<mxfile host="65bd71144e">
    <diagram id="JsGlMlhnKfhaU9w6Vo76" name="Page-1">
        <mxGraphModel dx="3280" dy="1421" grid="1" gridSize="14" guides="1" tooltips="1" connect="1" arrows="1" fold="1" page="1" pageScale="1" pageWidth="1169" pageHeight="827" background="#ffffff" math="0" shadow="0">
            <root>
                <mxCell id="0"/>
                <mxCell id="1" parent="0"/>
                <mxCell id="27" value="" style="shape=image;imageAspect=0;aspect=fixed;verticalLabelPosition=bottom;verticalAlign=top;labelBackgroundColor=none;fontSize=24;fontColor=#000000;image=data:image/png,iVBORw0KGgoAAAANSUhEUgAAAyAAAAG9CAYAAADtFxLcAABUC0lEQVR42uzBgQAAAACAoP2pF6kCAAAAAAAAAAAAAAAAAAAAAAAAAAAAAAAAAAAAAAAAAAAAAAAAAAAAAAAAAAAAAAAAAAAAAAAAAAAAAAAAAAAAAAAAAAAAAAAAAAAAAAAAAAAAAAAAAAAAAAAAAAAAAAAAAAAAAAAAAAAAAAAAAAAAAAAAAAAAAAAAAAAAAAAAAAAAAAAAAAAAAAAAAAAAAAAAAAAAAAAAAAAAAAAAAAAAAAAAAAAAAAAAAAAAAAAAAAAAAAAAAAAAAAAAAAAAAAAAAAAAAAAAAAAAAAAAAAAAAAAAAAAAAAAAAAAAAAAAAAAAAAAAAAAAAAAAAAAAAAAAAAAAAAAAAAAAAAAAAAAAAAAAAAAAAAAAAAAAAAAAAAAAAAAAAAAAAAAAAAAAAAAAAABm5+5VqwjCAAwvFhZWIlZegJWVpYUEszOCpEiTxsILsAgWYm1KUZLMamNlb2tpJeIliKVYCMLZ2RAhpAiHyRzyQyAhEBLy+zzwMrcwHx8zAAAAAAAAAAAAAAAAAAAAAAAAAAAAAAAAAAAAAAAAAAAAAAAAAAAAAAAAAAAAAAAAAAAAAAAAAAAAAAAAAAAAAAAAAAAAAAAAAAAAAAAAAAAAAAAAAAAAAAAAAAAAAAAAAAAAAAAAAAAAAAAAAAAAAAAAAAAAAAAAAAAAAAAAAAAAAAAAAAAAAAAAAAAAAAAAAAAAAAAAAAAAAAAAAAAAAAAAAAAAAAAAAAAAAAAAAAAAABfO48XVW3Gpn41dPx9TXmi7/CKk4cnUu/+3GwAAgJMQl4eZkPK32rhWDmjcpvy99nL6w+huAwAAcFSTzUZI+WutHLFfIfVvwvvhwdzncq0BAAA4zGSTEVL+XSvHqx/V81M9Z+PbfzcaAACAvWIa7oWU/9bKCbcetzYq848W+zsNAABwtcXllYch5dVaOYV+xpQXYhrdbwAAgKtl+7H5eq2cQX/alD/GbpiZe12uNwAAwOUVu+FpSHmjVs66NuW1NvVf2q5/NrW0crMBAAAuj5D65ztf7J6TAaS03W7j2o/QDa988QsAABfc5GJ/XgaP/QPI/qa7TfbuJ7TNOo7j+I81jLJD6WHgKDZJn5aJs4c1dTJH1ybp0zh0ikgVkVE8SPCwgwcRDzK2g0gQ1jz5B7mYdsODbdMkqzJGkTFm/8mKiBQR6UFEhybPk5o0eVJK9vP7W5iNTQZN0yVZ93nBmzzputx6+PA8eR51RfYkXLKi9TEAAAAAAHh8ONzqaKOMjh0PkKLsXi0ue7Srdq86jFv8AgAAAAA0KOtFbhhyq6FGGRy7GyCUVytOp2ZsPs1p9f99hAEAAAAAQP29GvzzEI2P640yNqocICXZC+XtPm3Z7lUv0e8dYwAAAAAAUHuvBNZaaXzM7cFI+IfKNPAA2cp3v59tfs1l82qn3pzgBxgAAAAAADxa4rIkh6L+WOU4+GNQUc8w0hsUl3Fp5+hnyXK/e/+J5x71hhgq9R8ghWyF4jafGrL7kq/jeyMAAAAAAI+APLomOZTEapXj4xe7L2lk2wx548+XfXK6R73AyIuXf2+WPdrLNCqC9PO7dR0gpek2r/aNLaA5Twfj+N4IAAAAAEC1xHcgxJkLilfRTzQ02thDOBT1VLkzHQ5Fc7JtXrqsHhO3/hWXgtVpgJTm17iVGvBpK1a/eskWWLMwAAAAAACozKA7Ic5OqBSvoltyUGvZwZPUz5Z5knre4VbfYg8hzqiIkSKeej6kJDbqOkBK+40GSXDAr519boIfZABQEfF380ws0yZF17s7IxmLNK33SeGcbJ7KviDed8RyR80R3fzUDY5LIQEAAPYDhzdhlxU1Xc34EMNAXELFdohGyDtlnqi+6fBqZ3Zydy4xYsSlWtRf9RsgpdEIyQwEtJl+f3LEOppsZVBz4uYBx0NJc8/Yut1yJfVez3jqs54raYVBQ+iK5KTOKX2kM6wHpXD2Vmc4e5fiD5K2N71VhyiczdDrr9Qc9VXHdOZTGifvmqazJ4/OpA6zatzkBuPXOckYzcnGazknvbraY7lJarktmn2aATxpvuNthkXe1zTPR5oW+TlWK3f4ITbPu9kif40t8Q/Y99xPx28zANgfxFmHIUXdoPjuS1wVzwthFZLdifNlPi8zOKqerOQ5JYNK3EpDZFT2JFbrP0CogCgp2qRmqfN9Qc3IYM9YQ7z5xBdr0onxddkylnb2hlIuy3hqko6XLWMpnY75g3oKXWdQN8+GM0e6wvqFril9pXMqy/8rXKiCAVK+iM7NW6n0/lvzdM5F/zZsDOckVkSa4C2mWOa4KZJ9wxTLfmiM6kFjRJ+l11VjTN+keHHthTLsIu6KB/vQCj/YfJtLhgUu08hwGhbyrqb5e5NNC/eWqTTFRQdE8/kg20u3eSuNCgsNjGHqIxoZQXo/S8erVJ7i/w8DBGBfkD3a+yVnISrNrSqsCvQZn5T53KTs1bp3+z0W+r8f0wBZoON8HQdISacDyZv9vmQ/g12d1egNpb+kobHUO5aKU7w4y7a2DxB6/ZxBzXVNpA+LMx1dU9kNiotqMEBKMtEoMUVzP5iiukrx4ozFxUprF13TlxjA4+4ObzHM8X/ZOxeYKM9t769t1VLqhVI2tUgtZVOkitYi9VhrEQGp289jjHE3xhhjjDHGGGNMY4wxpsYYYzyWm4gcN0WkiECRIiIiIkUERGqIMcYYY4wxHuuGmWGY+wzj861n77ZcHHXeZ70vzsDzS/4ZLsNcOGfX98d61lq732h2549uedaIeYRhf+SN/mkdmFH/DtsCFNrYXEwV5jbGhmGK0s5iQSKR+Dd4ZGoXRTz6plfR4dULD4//JCmzOxIIpOb8Fooisj45U1+BwmF53QKS8EdyDFl8NDFIvCY+ryca5YPxcOFQJiCYE8a1IBlSosqsK1E4DBjG83oFpE84RAQEkwcSiZ/Dqxyjm7ls9EWJgEALSyAKyH4ME4wDfpX/bkokfk3fBb9wsGrStRlUBCsp+R6e5/7XaeqMvOX9KclH9EtRPHIxT16zgGC6q2XDuvfEnzCtoAjIpwWWWSBRAFU+LPv/EI7hICBTKu1bQSLxc8ZcZdtIAtLGgoHCdVZJEJAOkEgk/gnvl8CL+gKifLhSMvSrtThig49d4Wms79ffG4NBZZKzu+KTjuj2JWXqb74WAcF8dcyQDxKviM837iUIiPuLUhYAkiHh4zLrIRQQNpwE5MOztiSQSPwcPHqVRxCQx0CljT0gCEghSCQS/yMx/0EA7tSoJMoH7u/QLwGN+HsmG8u3ont43lYtN5HjtKqIpCzDloXZhjqUD9dQCQjPghzDcpC8EpSMMlEBwdwFyZAQVWpe8zHKx3ATkEnnTSEgkfg5KB/togLyl2vPaonTtMZxkSDkW5BIJP5FYva/xi3qu7AXjQErH/NBY/iIXXyuJg/N7vVcUEBjuOgk4T4PlI3chUcMT7UWEMy9f5TK6TqvAsXjDqECUgYSzYkptkWgfFiGoYA8BonE32FsFEqGRbgC0uI+RDx+NY8oIKkgkUj8B358CS/g24jy8XRRmmEWDBF8mSE+Z8dzu0awmVxg3C/pWBhKxXysiBxE+bijkYCwxBxDIkheSBSKJ0qGS1RAZhWY9oBEcz4utdRy+Rh2AvKzrRYkEj/nzRYWxeVDVED4HhDi8auNJAH5lU0CiUTiH2DFYgo2nN8lyseDr7//VxQMMYuyOsN4E7qH13McXhMLj+imYXVkZ+JR/U01BeSrHP1BkLyQz/PNs7h4CB/BOmlaARJN+VuZdR4Xj+EpIHY5wlni94xtYcspAgItbBaxApJNEBAdSCQS/yAlrSsGL9YfEeXjFhcBIEB7D92R+BoeP1cJSdcdgtcMykaVWgKCaQbJC/n8B+MaioB8WtATDRKtqx/Vw1VAMHKEs8TvGX2V7SEIiBsFJIBYAWkkCEg9SCQS3yc5vSseL9Q7ifLRSp8+RSc1Qx+Lr0X3nIRk6HfCEPL3TN2EhVm6VKyC7EXJaFaxAoLptv09U47kfXEFpOcAQUBsssdGW/5WbA1H6XAPVwGZXGGWI5wlfg+KR5mogIxufXYHqGAVQ1hArrMMkEgkvk1KWmciXqAbKfKBF/cNyw52jgMf4evMrjl4lMz0/CJE/UYtj4AlZelWonBkYO/HDYxbgx6QvmTr5oHEI5+f6KkSFxDTDZBoXf3YxaWDKCCmqHJLftQZvrzQNG3Kue6g906yQH7LE11uj4z8yR6F95sXUWFZHnHGsinijG3PR2dsxyPOWOtRQB6iaLg1EBBXRIMc4Szxf8Y0P7srXAG59qwMKFxj4cQG9PUgkUh8l0XpncvwwtxGkg/e6J3/wOf+wU3N6kry8N7cyRn6VWrsR+H9HSgYG7HhvBDzQOsxvIPz1dFuOWLwxROwHogKCE7AKgCJpqBstFMEBKscjVHl1nAgwhd7Rp6xR39YYV0R8bNtb8QZewXKx32SgJy13QGJxN9BiUYBcYsKyKhrbDdRQJaQBOQ6iweJROKbpGbq1vMLclrlQ5fry8dVcPv68sHvEV+zIzlDt1jpZDAUrSUoFPtxAWEjxiK4iNCFwnEDb7MWHtWvTszqiknI7opB2diDcSkRkAXHDBUgeY7pOEI6HqVDVEDwe1LsNOSjU+ZQLhziAmK7FVbFAkFDUECeEgSkBCQSP2dMK4tDAWHCFRBsYCcev9pBEBA33GSBIJFIfA+8CP+WIh48qRldB8APWJTZtW6ggGAydY6UzK4ts3M9j+hNPtIZnZRpWJecaTienKW/jWE8Sf3ipYB0Jh3VV+HtroVHDQkvW46YmG1Yp0RAME9B8hxx+ca54gKCOWmUs+O1rX4sowjIR2fsKZoKUqU5lFIB+bDSthskEj9nzFW2liIg0MwiiQJSRBAQuUhWIvFFFqV3HaTKB17E+9VfiVPTddsGCsjvydI9xtu85IyunXi7Lxk3vydn6p5iuHD0xTsBcePtLbzNTTxiWLvwaGe00h0iKB1PvBcQzDFjFEgGNaB3b6AIyKcF1jCQaEb0T9YDBAF5CBoT+bM9hSIgH1Tal4FE4ueMveo+RBAQC19iSBzBe4sgIHKRrETiS/ALXH5kiigfbswG8EOwYlPUJyCek9yXVwoIyoYJ04w5yDehqzEBDPeFlCgRkK9yDOtAMqj/w5ghKCC6z072NIBEUz4uMzeKC4glHzTmwzPW7RQBwZ+NAInEzxnb/KyWICBtQOFXNholwiEsINeYXCQrkfgKfGQrXnyX0eSjy4FZDn5KaoZuHkVAUDru4JSr/KQjug28Af2779TvfUHp2KJMQPTHQTKA+Hxj/UsExIa5Pbugpwy/fjDuhGnjZwXmlNmFFrkxdygoZaNQNkzCAlJu3QIag5Oy8gkCYgKJZBiA0vFYXEDceUChhcUSJ2D57XWKRDKsSMSmXLzwriMeuTLxqVLgx6RmdMYpEBBT8hF9A8rGPt58PlT7TRYe7Y5TWAG5DZLBAvIIBeQ+ikbVH5LxOUrG5z90R4LktcLH5XLZEBcQWyJozEcV9hsEAZELQiX+TwsL5vIhKiA4AWsrsf9jNUlAfmXyv/USyesm+UhPMF50t2EYIZ24qNDvR9rhgsL9rxYQfQF/r4TJXuTxvigeJgUCwr74J8qRROIHRJdZV5EE5IwpVOsKDcqHhSAgOSCR+DmjW1gCRUBGt7Ek4gjeAwQBsQDz3cmcEsmIIOn7rrBFmbrbJPnI1D1KSeuKAT/n92WLjpcKSEaXT1w8oFjUey8gmKP6JSCR+AEoGfuFBaTc2ql59aPSHk1ZRPjBWftmkEj8HJyAtYUiINDMQokVkGqCgLSCRCJ5fSzK+FcUXmw/IB67uosbzqeAn5OaqV/at5DwxQLydfa/fGKi1IJswz5lAtLtF+OQJRIUjSqCgDRqLiA/W1eSBORn23yQSPycMc3uXIKAPAUqbewRYQFhLkgkktdDSqZhFl5oPyVuN7+RmvNbKPg52DS/Bt+PC8NeJSD/72h3EPgAC3OMqUoEBNMIEokfEF1meSgqILj9PBs0hm9DJwgI/pzBJ/4bIpFQQPFoJQhIHVDoYEHEBvQtIJFIhp7UdEMCXmQbidOuGv+eqZsAfg6+l62eKzv6GygcDwYLSNKRzjjwAVJy9RNQPtwKBMTCFyqCROLDRP2om8BFQ1RA8PubNReQCnuFqIB8UGl7CBLJMADFwygqIKNb3WnE6sd8koBcZwkgkUgEIMlH31Ej4eAivsT8BwHg5yxK1+318P5cWP1YB8h/5/5fIErHnUE9ID7zlxOUj5sKBARjnAMSiQ8ztcQ6jyYg2k/AQvG4T6iAVINE4ucEtLIILh7CFZBrbB2xAX0zsQIih7JIJAJQNn1/03fUSCypOAEq8Tv//ks6382xKEOf7eH9WfDrS6AffJt7fwFZlKUrBh9hwdHuHCUCgtkGEokP83GJZRNJQEpNIaAh79WyQBQPt7CAnLXJXiyJb1DHJrx1lU0JaGKRbzayqDFNLG5sM4t9q5GFwzU2AV7Cm01sKUFA8GdYPBAY1cZyCPLxGCjcZIH4GBHwK4uBaywOWlgUtEihkUheCB4pmk+Wj3RdGvg5/BjSH9vOB8XAf0fPS1vXnEHHsB6Bj5CQo1+tUEDKQOIVM4q6g+JOdMfNzjetxD0hO3ED+vG4E8b6T0+YpoGWoBxPLzRGzSjsWT7zR9MuTMmMIrMq4hhbbA2PPWX6ZnqRad/0U+ZizA3M42nFZiOGYRyYR9NP49dPW7KnF5lTo86zsSAAof8jmyAghuhye6RIpmAmn+kJfvX+D+scLh6iAvJhpW01aAz/v1lYjT160nn74rBq++b3z9nTws7ZKyeds2+H10DoJXNoaK1rXmiNY03IBdeev15wFmCa8OPHf73g+AZUJOQqGzex1hkXVOdcG3zRlfFOnas5qM719J065vfHhUXGRaNUzHzrau/qgKvu/W82PasIaOptf7PJ/QjjwLA/c/U/GTswboxu7NVnNzHlY1vch8a2sFVvXmNRo6+ynQQBccOvLBAI/OUaayZsQK8Bb8DXiPdNhOtsN96W4M/exJhe8fhPMDV4/53Qyvx+MqhEQuYf37GxeGzqHq3y0bUb/Bx+pArfS/Vz7y1D9+TrTMPMF/3uUDps/SXEV6Z+JeYYIhQKyBOQvEgydsSf6MlFyajD5YT3MYwnblD+60f1+p4+LbCGffqjORWz/dNCc/7Mwp72mYUmC4b9Oz/+EfMhIeE4ZQ5FwVgbW2Qu4aKBYR6C4vHifIJC8slp0yogElNqXje1xGKYWvqfRL84DoKA9KX8+UQOzpm+fMRvKyyb4BWgcKynCEj4z45YUIEp51jQ++eccZPPOVaGn3PsmHzWnju5yl43+Zz9PsqGG8MG5/1q+0bQgl/Z6PfO2SPfu2BPea/GufG9C46D79U4yjA3UDCMGPafOAckBBN83iEs9EE1toh36xzLUDT2BNe5yt+tc94PrnOyd/6M688EXXJuBQ0ZX+86OP5yr+HPNPRl3IvyS6/h7T/juvd2A5sERMY1s9DAJvfmNxtRNq64DRgW0NQ/fdLhUUA85hmGi8bAiArI6NZn94DIX9qYkVABOQgvop1F4ve3YxowLgwjplH2m0hGNCgfGwny4cZpV5vAz0lMMwThe2ny8P4efP39y0fronQ0DVhEmKFfBT4CCshjBQLCEo53R8AIBjeg75mdb7yHt474fJSM/jnRF08Cgp8/ACKzTpr2zyo0NX5aaDJg2ODMxAwWEMx+8JLpJ21TYk/1fIvS0Y5hKCGYPtkQEJD/5LS5OLGBjRbv7TBnoIAwlA/GE/2SvC4B+fCMI+bVE7CsGQQBcUwvFa8ohZ2zzguvsnegaBgxzENQNF6S89Z5oDKh5x17sLLhxjBP4eLxEgFxcHkBL8GKSeK7F50ZmMbgi04Dhv2Zur54FJA6113QiAn1vYtROtiANPRl3AuCAsLe/k/cbze6UoFA4NXexW9deVb51hW3C8MCfo8vCghWQMqBQjOb8hdaA/rq545UXWPr8XtNGKZJrrHj0MD8vm9WIhEZM9shKB+OVB+62BYlMftfk/C93PSwQPH2oqzOsFcfX+s6MPAYlj4LfAQUkDLvBQRzTL8GRjDx+d23UD4Yj1IBwftUAgF+8YkC4vr0ZJ9weCMgn/5o2gMvYebJ3wJnnurZEPujqTm2yMR4uHyoLCD8tkRYQEqt9T4uIE/BCyLO2BpEBeTDSutNIBBe5dgR3icbigUk+Lz6x5BCLzhquGgICshNUMBfL/YuQflgPMEYJQLCE3zJtRhU5u1LLHTCZdcTioAENrh3gyDYwzH/rSu9zVw6/oivCwhOwNoLFFrZ0r/QZGDm75W7SSgjfJu6DsOGIA3Aj3VJJCOF1MO6cOFjV2ldy8HPSc3qjnjB8bPWr783Bnu7pHBABSSzqwN8hIRsw1ZlAtLtE5vcCZD6f3jlQ1hAThj3AYG4AvNMFBCmXEB6doIHPj1lmobSkT2jyGTEsFiMdgLyZ9aCANEllqe+LCCYYi8nYHUSKiBFRAEpJAjIA9AAlIxHwgJS4ywChaBsdIgKCKZa7X4tlI86DBMWkMbeamBsFCilgQW81eg+iLLhxjB/EhCcgLWCOIJ3F0FAHHCVheHtYYwNw4Y015nPDLGRSDQHR82uFFsyqCsBPwerN7H4Xh57eH91qYd+CwQvSfyfnpCBAqJzf3mwcxz4AAuyjfGKBCTXcBNGKLPzzbFcPAQFBGP6htbzYV4jJCCF5u3Qj9hCU+KMH83VXDr6MmQC0jm7igUqko9TPSFcPnxZQCLOeNH/UW6ZxKVDWEDOWnfQBMTeISwg1fYqUJmgChaEfR5MVEDerXXtBIVgn8daYQG5hKJwyR6t3tEr124uH6ICMv6X3ofjLymfnsR7RVA+OjCMy4a/CQgKQDQQGHWNFRMExAaE/hGVshIkkpEAjpXdITbxSr8Z/BgUhbn4PnQejl2V8cZygce70ycg/LYrBQio+Vd9lA+L9xUQgxuXGI68iTAI9n6sJgnISVMMEPiswHxQREBmFJq2AMIb1lE82mbg13hek4CwaafNq5U1oNsSfF5AfvKm/8OeShGQD8/aF1MmGqF82EQFZPI5235QmfcvuOZTBCSktnepSMM7CshDUQHBXpA0deTDOQfFw0UQEFvgZWecwJGrKdgvco/Lh58KiI3//zJxAtZtLiDgv7kNEslIAC+6d4stG9TtAT8FX3sq3+nx/CQv3fF/lLJRgkKT119AkrJ85/eD8tGgQEDw1pgKI5DP83sOEATEQWnC5swq7KkREBD82JyHt00YNgPzugUEU6Pw+NVmHxeQJ+AFH/1s/ZYiIJPLreEgSFiVI4bLh/gRLMcqUJlJNc7NFAGZhFOsQICQi67twgJyyWWi9sIENbCgCZd7H3DxEBUQvM96gWNX4wIb3bcCG3uZHwvIDaCAI6ZRQFx+LiA880EiGe7gMaSNggLyCI8p+V3DVErGv5ctOp57P+ldB4kVlfV9AoLBY1zgIyTkdO9XJiCGfTACQemoFhcQY4cKE7AeKxeQvviQgBhAAVNPW3J8XECKvWxALxAXELsBCEyudKykCMiks45poDK4ZySHICAmECSkko3jU7AEBYR/bxMQmHDZWcKlQ1hAfunNBQFQPCowzK8FpNmdDxSus1koIMzvBeQ6ywWJZLjz+1EkJpjq2bn+s/X893HDbg/b27+lN7N3xfQXEIxRoJqi0SQs/WIlAoKphxEISscjUQHBjwuoO0e4fAwTAWExxd7/9TqmxNzoywLyt3LLRu8a0O0dhApIIxAIP2vbSxAQx2w+7lZl3quxNxMEpBUIvFvrOCAqIBMvue4Iy8cl52YuHOIC4u6AFuXjWHHS1SouHv4uIKNa2XZiA/raYSEgbWzE9mJKRhBcIPqOIwkkXVf83Xe+caH9CvnY4XGHSbpug3oy19XZT0DYojTDLCCg5o4TFBC3AgGxJH7nP2KpBrOx74VLB0FASBL72UlTwnASkGnFPfPBS1A8On1ZQD6qfHVjMj9+F/GzzSYqIB9UWrNoAmIvJwjITdAAXDhoEBWQ0AvO47Tt6iwUxcMmIiA8Ey+6kkAh4xocsRPrXTaCgBgmNrIIke3uKB1PhoOAjG5mqcQG9EPDREDccFOO5JWMAFL6FvAJJTWjy6dHt6JkHPK0w4RPAAMVwfG7VX0Cgsno8plGfRSQW94LCCa3Ow5GEHH5PfPFBQRz0phKa0A3bRlOAhJz2rLUu90n5klcPHxYQJ6AF/AlhVw4hCsgZ+0biQJyT1RAcFt6IahMWJVtCpcP4QpIDX0zOYpHnqiAYCoUyVYtC8SpV3cwTEhAcNlg4C+9i0GAtxvdO7h0DAcBgetsErEBvXaYCAjfRzINJJLhDgrEAX5RTpMQ/X7wMfgRKHxtxz28XgtvRFdddLL0O/sLSFJGVxH4CAnZ+lwlAoLZAiOIz/ONmykC8lmeJYzY/5E7nATkk2LTN941oJtTfFxAisELPqqwfkMRkA+rrHOF5aOUBaCAuIUrILjAEFRm0gX7EoqA4AjeJCASUmOPRvlwCwqIe2Kt98cIJ17qzePyISwgl917QIQWFoDC8XRYCEjzs05AiALyeIgFxI15hLmNuYl5qmIfyDyQSIY7fJEeUUD6eil8BD5KF19TmYfXaUhO080FDUhNNyT0FxDMQ/ARFuQY1igTEL3f73lR2P+RIyogn53o0QGRTwtMrcNJQGJKvKuAfFJqTkHhKBuc6OdiNREExBJVbi37m9KcsZZFlluWgBegaOyjCEgUYfLSlHPOOBQQJiog2Cy+GFQGxWMnRUCwohAKKvDORVeloIDwzw96JR+Xe7/h4kEQkDrR0bO4qHA1Fw4VBeQxisZxzKYxzSyej/WFJhYEg7nGJqD8BL/ZxKJHX2HzxjSxtWNb3IdQNp4SKiANxP6PYC4fGgvIYxSDfHz/6zEzocFDvw5WcfB7GeTnameLQSIZ7vBFegLCYfK8H0S3Hl4zy3AJIB6vqvfw+h6jFEwDjfji+0cBKCCOfgLCEjN14eADzD/aHamwAvIIRhAoHM0EAWlQYQKW6TULiA3jVktAppaYEtXcKI3iYSEISANoTMQZa6WwgFTa7gOBD87a1lEEZPJ5a7jqAnLeUUQQkKegEigW80UFBGMIe8VSzYn19kjs+zASBOTh+AYWAoKgbNSqISBvNblvvtXUuxKIwwhQNu6JV0DcWUChlSVqJCBPMYcx8QqFqJD4vEtBIhkJ4MX5HUWb0NO71mJj9yr82DW4sTs1k9RbQZepdF27h9d8b3GaIQI0JiVL19ZfQFKO6L4BHwHH8T5RICBsfq5+CowQUDgMogIyu8CURZyAFcnFYygFhC8snF5k2R1bbErkE7j+aKSeXmSeNf2UpYkoIBhLHKjEJz/ZoyhHsPDIVQZoDMrGA2EBqbBWAgEUi8MEATEAooGA3BIVkJALznpQERSQZkEBwYlYzvUvW3qIE7NaUUCYoIDYJvJlg4JMwAoEyoabKiCYnL6/5BPAPhiUDbd4BYRtJArIFlUF5Bprw9uVILrfqY0tIR7BSgCJZCSAjeh5igQkQ78TELxd7WG0rUOgx4JM6mFduGeR6upITn8aOkS/x7Q+AcEc0WWAj4CyUa5AQPBz/SoYAXz2T8MULhyiAoIN7BuAwKyCnmVDJCB3Zpwy7ZleaIyClzDzR2s4UUDcUys7x4FKfFxmXUHqASm3rQcNmYp7J7hsiArIB3h8CwiEV9prCQLSCGqDF+YoIA5CBSQDVOTdi47lYgKCqXfdgheA4nEYwwgCsh4IvNXY+w2XDYqA4MdZoBJjrrK5lB4Q/vPECVjHVRKQNkwSULnGEokCNKIGwUhGMPzolLJFhPrKvvGz+k2eGr2/ztTPhyEiJa07Ep/z/vOipGtKwRGroABiBWTFwAqI/gb4CCgY2xQJSK4hC0YAcT/0LKUJiHEuEEDh2K2hgDhmFJnzZxQpq0igeOjEBcRyD1QkusyyhyIg2D8yBzTkwzPWueICgsEGduIErMfCAlJlz1a9+lHtiEUBYYQKyAZQGRSPO0ICgsGvz39+34drMRcPUQHBFAKRwCu9x0kC0tjbymVRRQHZQBEQwHHCxAb0VqKAPIZrbCWoxTW2hiQgv7IRcwJBMsLhi/QU9oB0DjrCtdvDfYwpmdrvwvg6rTMOj1099bQokfdlwBDCKy0DKiBZeldi9r/GAQH1BMQ4R4mAYDpgBBCf372LIiD/9aNuAq0CYizRQEB0WPHYz8fcikyPQ/FwiQrItNOWclARbEovJwiIe+ZJbefpf1Rh30gRkIgqR4ywfFxgwVw+RAVkcrV9owYCspoiIO+dd85VXUAuOTcSBKQM+vE27hhB6XgiLiDum/2XDRL6Px7QBETdIz5jsIeDICAPgAJjo1A8TAQBKQLeWK8mbWw/QUBMIJGMJLhUKJEQLi0Dx/l62LeBYrA4vTNauwWDhgQuOh52kxS9ri3tKB4P+gkIS8rqTgIfgP8+UDgsCgTE/WVep0/Ik5bE5xmLCQJyHxBaBaTnjooC8hCzeebJ3wJBkE+KbFMoR7BwAtYeUJHoUvNdgoDcBY35sMKaRRAQBz9jTtiAnkAQEIx1ngYCcoAiIMF8IpjanGdjg+scT0QEBOMKbmDhfwxEmHjZVcelQ1BADBMvsUggMr6JRXPREBeQ3iZQGRSNBmEBaX5WCRRaWBQXD2EBuc7iQW3aWDWp/0QiGUmkZHRVKRAQjxOvFnnqJcnUPcJekSnqHxv79/hg2/PHrrqyX+d2dlxAWNhPQDCG3eAjoHA0KhAQjG/Ik5bE/2C8LSog+PVKIPBFKQuYdbLHrYKA6GYU9eyIyGcBQCT2R8tSUg9IsXU5kOnbcYHS4SYISDloDIpGo7CAVNhvAIEPquybKQISUcGCNBCQaoKAPACNePeia5eggPBekH2AoGDs5sIhKCDuCZd7l4AK4NLCDRQBebPRvVEDAdGJCQim2b2feLG/nCAg2mwdb2MPCRWQApBIRhK8sVzhMax8j8v/Mj3u37ibmvNbKKjEonT9mucncGHSuw7Ca4b3xPQXEEwt+AgLjnYfUCIgmD0wjJleysaigDgEBQRj3AcE4k50x6GAMHEBMVs+LTQfnF2qXp/TtFPmnRQBiT3dHQkqMfUnSzxpEWG5bc8QCIhOXEBsBSQBqbTnEATkgUYTsB4KC0iNqwo0YuI5FoQCYhIUkM6gi64ElA2XqIDg9/aCSuDukFxxAcG0sDBQEf54pEWErewbYr/FHoKA3NNgEMME4hQun9mpJpEogLZIT6GA3H3hEsBMXa2H+7fzHR1ABEcAb/EweYtnO/gAyen6mYMExMjFDHyAr47qlygTEN+RJy2Yk2eYiQLCxI9gmb4BAigf6ygC4mGiFRkcxVtEEBALqFh9/LjMvI4iILhQcDloSHiVNYyLhqiA4PGt7bQdIPZmYQGptleByrxTxyZw+RCvgDj2g4aggKQJCQgGR+7auGyICMi4y721av7v4u1fettEBQS/3gEq82YLS6UIyNirbBqxAb2MICAVGlQ/5hMFZAlIJCMJ3rDNR+gqkZAXVTX+O/f/AvH7zR7G9zYk5j8IEO/50O/w8DrcOO1qHfgI/PgXyoexT0AwR/UzwQfAhYRBKB1ubwVk/jGDz8iTFnz+g3ENSUBOmmKAwGeFPYcJAtIJGoCLCW8RBKRN3QlY5jRSBaTCHqlt/4d9sbiAYCrtKcQJWAZRAZl8zrYfVCb0vGseRUBCLjhWayogDdZwlA+XoIAwMQFx9l82SAd7hlBAbKICEtDozgWVGdvMdhAExEGdxoXScVdYQK6zvaA219lmkoC0sgiQSEYaeDHfpkhA0rqWwwtIPtITjPe57WEvR1Xid2y0wKjgNA+P5UjJ7FoBPkYKVoD6CwiO490EPgJKx20FAsLjE/KkTf9H90GCgDj48j5aBcRYJywgRaZ6LQYVoHQ4xAXEdBxUBIWjjiAgXlRjqMevrDsoAhJRbZ4EgoT9bA3n4iF+BMuxSnUBqXZuoggIH+ELGvPOJWfhEAqIY8IlZzyoyNuXnTNRQJiogAQ2qd//Mfaqu1BYQFqf3SQ2oAegdLiFBQRH72pQAckhCIgF2PD9o59E8tJFeooEBCdfvVRosjrD8H4PPIhDobeN4vxIF/5MsYfnN+Hj+GSTNMrHnv4CgikEHwEXDB5XIiBf5fqOPGlQAakRFxBjBxBB+XhKEJAMUBnckB7LpUNQQPBrpq0qC8hTgoC0gsZ8VGErJAhIJxBA2VhCEZBJZx3T1BcQezZBQFxROK1KcwGpc8QOkYDg99TfafJ2Y+9akoD8wuLVF5BnHaICMqbVXUi82I/n0iEsIO0sWgMBaSYISDtIJCORlHTdCkUCkqlrhVeQlNkdiaLyxNO0KhiI56Nc6boaT+N9+Y4R8FGwKpMySEAegI+QcNSwVomA4G0RDFM+/6H7MaECUgAEPvvBFMLlQ1xAetaDyqBwrKIIyNQSUyKoRFSpKYQLh7iA2I5rLyDWm8ICUmGrp21Ad+wgCIiDD2DQQECaRAUEFxDeBgUQJaRWcwGpdxYCor6AuNIIAuKGX1We+IRVYBQQh3gFhO0gNqCvIwiIDbQ4YtzGjHIClkQisEhPYSO6w5tlfylZ+li8r8FDBWUvvIDENEMQikazh+d8mHykMxp8GL58EAXE1U9AWFJOVxj4AInZxiglAvLlMYPPyJOazC/qDsIKCCMIyLckASkwp1AE5NMi4xwN+j8OUASES4OK/R9JFAHBBvQtoCH8+B1WQBzCAlJpT6P1fzgKCQJyU6MJWDpCBaQEhoiJF11JWgrI+Muum2FVLFAbAemtJwjIXVAZ3kCOAsJEBQQnYC0GAqNaWRpBQDpAbbB/g9iAvgMkkpFK35Ep74KN5fO97IuYi/e3eKhmbPdwAT8Jv9fh4fnupB7WhYMfkJzZ1dFfQFBIVoKPkJDT/cRbAeH5wkfkSU0+/6cpgSIgcSeNqbQFhMZtBAFxTy9Vf8P+9GJzlbCAlJifgIpMLbNuI1VASm0JoCFRP5mmoYAwMQHBVNrW0yog9g5RAZl8zlEIKjP5vDWci4ewgNS4dsMQEnzJdUMjATFMrNdu+AHKx1NxAXlWprqANLFVFAGBayyc1IDeyuoJAlKggYAsIwnIdbYUJJKRCu/PUCggO8FLUrP0iz3t78DN5TmLMv4VxSsHi9I7l/Eqh4fnauON7eAnJGfqs/sLCApYGvgIKB4VSgQEFxL6jDypuIBwC6kCUmiZBARmFfTkEwTkPmgACsdDUQGZdtpcCyqCQpFHEZCYM9r+tyLijHUVRUA+OGuJpxx7QemwCVdAqhw7QGUmnbcvpghIaK1jOQwh71zqXaWFgIyv79XsfYy7wkK4fIgKSMAV924NGtAPEATEAERQOJ4KC8g1DfZttLFdJAFpZ5EgkYxU+CI9ZQLSVaWwP2JF3x4PL5Opb/h7pm4C+BF47Gz1wAqIwWeay1A8tisTEIPPyJN6/R89uQQB0anQgN4uKiD4cQWozNS8znFcOEQFJKbEfEjlBvR2goA8Ao356IxlP0FA3O/Vih/RQYGI4dIhKiBcFtQXEMcOkoCcF6gaUMCz/+/U9d5XWUD2gYa8fdmVRBGQwCvqy9HY5mdVBAFpIvZ/hHLhIFRAUkFtrrESOQFLIiEs0lPYB6JTXmVRJDntfHcI+BlJRwxT+gsIxsWb6sEHWHBMN1eRgOT4jjypOAGrlSAgDUCA71ZB2bCICsiMQtM+UJnY4p55FAHBrAW1wAl5KBsWUQH5+CdbtfYCYq0SFRD83j0gMLnSsZIiIPy4FKgMjtAtJAiIwMhkOkF1zi0qCkg9lxpNBaTBvY1UAWlikRpMwHooKiBvtLqzicedUkgCcpWFaVABuUM4fnUDJJKRDL84wot+o6IqSFpXjMDI3z1eVli2gJ+C0vF4wDGsLEMi+AB/z2RjsQ/E5q2AYFyzfUSeVBQQo7CAFJiygMDMwp5oLh7CAnLStBJUZtopy0aCgODnllmgEp/8ZI/isiFcASm3HhwCAXkoXgGxl9Ma0G17CQJiAEQDAblJEJB2eA0EXXSuU0dAFCwbJAlIbx5BQEyq/3X9VzaBy4eogIxpZZuIArKdICA6UJt7bCw+rotQAfGZcf0SCQFyI3othinIBpGN4Z62pXtoUm/nG9fBD0nK1JcMmISVpd8FPgLKR5P3AoLJ8Q15UoM5x7sjuHyICkhcfs8G2gQs00qSgJzqiVG/Ad2SRRAQV0Q+C1Cv/8O6giQgZbbVoCG4r2ICCggTFZAplbY9xAb0CoKANILaYE8KSoeDICB5IABRPmaheFhUEBDX+HrXPBgCUDzaxAWktxVUZvRVNl9cQDCtbB4QGHWN5RMEpFGDBvQ4Uv/HNbYTJJKRzqLMgdUJLyQhHwRIzdCv8vI5jLw5Hp9npT/1giRnGbYOOoZVAz5CwjH9QSUC8lWu78gTlfi8nmXiAoI5aZxDnIC1lyAgnjew0xvQGwkCcgdUJLrMsociIJGl5ljQEBzxO09cQDCV1hVAAIXjnrCAVNmzNej/mMalQ1RAQmrs22EIGXeeheAywocqNaHfhaGAsVGBv/SaRAUkoNGdCyozptm9iSIgKK5BxAb0GwQBydLg+NVakoDwCVoSyUiHL9JTWAG5B0rpG7fLFMaBqUUh2YwTuKaAD5Oc3RU/8AiW3vDdd77RZLbgmH6pIgE51l0Nw4Q5P3TvogjIl9iwDQRmFfZUEASkQ6MJWDqCgJSAikwttZQTBMTlxZI94gQsyyaKgGAFI0pYPkpZAAqHW1RAJlfbN2qw/+MbioCE1tpTYKhAeUf5aFBzDwhOvloKGjOxnkVy8SAcwdoCKvPmVXeOqICMaXn2kDpEAGXDQhCQjRo0oB8mCUgLiwKJZKSz7GDnOKWTqvgSQ8F+E0ZLVwdfaJia0RkHPsbsXDYaxcPSX0ISM/Sx4APwkcZKBARjAB+RJyooHiUEAbmvwgSs++IC0lMAKjO12BLGZUNcQCy71J2AZb4rKCDYgG69CYjGG9CzCQJCarj+oNIZz4VD/AiWdZ4GArKfVAG5YJkEQwTKRxaGqSkguPujCTQmsKF3OUVAAhpZgvoC0ttMqIBUA4V2Fs1lQ1hArrN5oDbXWR1BQGxQOjz+fZVIyPALe4UisFxkUpSHx3qMOzO28Z0hvMqBx8Fq8dbh5et4xHeKJGfoFvNGa/ABUDoaBo7j1W8EHwEb0e8oEBD25f/qpsEwAKXjjqiA4MeVQGDmyd8CUTrc4gJi/hZUZnqROZUiINg/sgzI9P2FH0XDTaiAFILGoHw0iQrIlJ9tbUDgg7O2dRQBiahgQRoISKWogIRecOhgiHi3zrmWy4fqAoIZf1nbPpDAX9y7KQIy/hIL1mAHiEFcQNwHgMAbbWwlSUA6WJAGR7CeEASkAyQSyZ+jcrOV7erQHQaFpKR3rR30OE8WZXWGeazIYP8HTsQqwvvovJuepTPhbRl/DsoCQ3qlQb9/UB9IAfgICUcNed4LCCa322fkSZQoFFMUD5ewgBQY9wEB3j/CpUNQQPD75lT1R/Cav6UISEyxLQJUYupPlnguGsIVkHLrjiEQEINwBaTSlkcSkCr7YYKAPNRoAtYD4QpIrb0RhoDgOudcFBCHNgKCueSq1LgBvYwgII9AZQKa2RQUECYqIG+0sNXEBvS9BAF5CGrzKwvhj01IEUgkEgTB/orVCo9DtYJCUCrKB0hD+qtH7iZ+x0Z/ndGZmJquS8Ofue/la3NjGvH5tvON6zCELDyiXzJoEtZ98BEW5HTvUCIgeB+fkSdR4v9pmMXFQ7wCYlpJPH61gSIgn+FxKQ36PwqEBeSU2QQqMrXMvI4iIH8rsyzWtAH9Z2s4lw/hCkilfSutAmKvFRaQansVqMxfG9g4LhziR7CcWaAx+BonBV90PUIJYZoJCGbcJcc07QTEdUdUQAKuPKsGlXmzqXcpRUDGtrBYUgN6K6sgCEiVBtWPJKKA7ACJRDLweJSCOL74/lEAeAlfLog/Y+kvCbwpXWDjeOyi9K5d+PNtCl7rHTzWdXBRln4e70MBDZl/tDsIxcPdT0CYwPvUhK9y9AcVCUiu4R74OXPyjGtpAkIbgfvZSVOWsICcNOlAA2KLzDfEKyCWZlCRmDJzGkFA8D7WMNCQyHLLEoqAYAUkkSggj8UEBHPOtl/941fOuRQBCb3g3ARa8isbjeLRhGEaCwjepzcPtOA8G4vS4RKugDS5D2hw/GoXQUBccJt2RHpUG7svLCDX2QENBGQHUUCSQCKR9MH7MZRISGq6IQG8JDVdv9RDBYXE12mdk3C070Z8rGqMzcvelU68zcfb5amHfgvUqA/kdn8BWZhpWAGvmcTcnhBsQn+sREB4uFCBH/P5D92HCAJCHYGLAtLTQKiANGqxeBRFwyYqIDGnTbmqCkippY4gIDrQmMgztp0UAYkqNYWAIOEXWDAKCBM/guVYBSrzfo1zI0lALmrbOxFc6zzOxWMoBATjCm5k4eovIHTO4tIhLCCNvatVF5AmdzFBQG4BhZssEI9guQkVkFUaCEgZSUA6mF//uyqRaCEgJYoEJKNrp4LHPj7g57GKASrCZQLHCa/Axy7AdHr5HmyYai4xXGZAJVA6jg8SkMNAgHrBmXi0OyXhmKHD+ylYfZn3v4ZZ4MegdNSKC4ixAxCigHSKCggmC1SGb2XnoiFeATFtBhVByXgqLiDWBtCYiAprEUFAnhA3oCdQBCS82hELaoLTvLD/o5AiIEEN2l14vVPr3Bx80cmGTkDw88uuQxr0f6yhCMjbV9hMDSogt0UFZEyLu5i48G8OCggTFpAWFquBgDwkCMhdkEgkz0nCVgxTkGoFW9CfDpQXfayWF928OoPjeg/xnSUK3k87Nr7vSk7Xz6RtRDes6y8gmDYYIr74pzH4q6P6JSgc+1A46jEmDOMREZAvj3XHgx+D0vFYVEDwtoAkH3mWMBQQJiogMwpNG9XfgG5aSRKQElMCqASvDkxFyRAVkL+VmTO0b0C33RIVEJyAVUtsQN9MEBCHmvtR3rtgT8EFhB0YRhCQR9pVPlzzUD4cQy0gOJLXpLZUYf/HIYKAeDjuRN7/8S2XD/EKCG3j9xutbANBQFT/fcB1No14/Oo4SCSSgSSnd8UrFBCvFu3x3otBP3cfhpCUtO5ILlcoJHV46/LyvT3EyVq5qZn6pf/4jo1VJnLGqEEC4vrv3P8L1KjnJDIh27B2QbYhY8FRww2cdOXGsP7SIS4gmFzfXv74Khnj0kE4grUdCMTlGxeTBKSgZ676DeimvRQBmV5qDFZvA7o5iSIgeARrg9Z7fVA8HOIVEPshkoBU2nMIAnITVCC0yjV30nl7IxcPHpKA1DqqQQNCLlrCgi86nnD5GHoBwa81uHaoXAGpIQjILXW3n/eu4+JBERAUiKXE/o8sgoDc0qD6sYskINfYGpBIJM//g9vXKO5dvv7+1bsieAP4wN4RXRq8JlJzfgvF51+/KFNf6e17RRExLMrSFSdn6FclphmCvOsD0T3tExDMEUMCEPl7pm7CgiO6FBSNPQuO6mvw1oBh/ZOAERaQYbaMMD7fkEgTkO5UIDCroOdbioD814+6CeqP4LWUiwpITLH5kboTsKzbKAKCDehzQEMifzbHcvEgVEDWEhvQm0QFJKzKVkSqeJyzp+Bxq9pJ1X3iQRWQkFrHIVCZ8BYWgNLRjmFEATGJCgjmCW8cV1FAHhIEpFC1ykezewtKh5sqIIAjfIEASkYDQUCKQU0YG4WPeZskIL8yv/2jnkSiKXhh3qCsD+TVi/bwAv7uAGnBsbrgA/CqxKL0zmX4mvJwZO/TFwsIJvPPuDD1yZldWxenGSJeMq2rrb+ALMwy7Fa+U6QzOvGoYW1itj4XcwvjxrAFPEd5DExLAfky11AOfgwKx1aSgBTSNjZ/VtBTKCwgP5ofgAbEnjLfE66AnDZXqysgljyCgLjxiNE4bSdg2VaLCwim0jKLeATLKFwBOWvbLzJB6v1zjjXvVzs6uHjwqCkgOAFrLajMuxed+Vw6iAKyB7ObICBsfINTlWpcyFU2jguHsIA0uXeoMYULj13l9EkHSUCMQATlQycsINfYTpWPX60gHr+6CRKJ5IUCsl+RgGS+fNFealZXzOBjW7zSAj4GP0qGR7TmYXM8r9bc8SAgHpOcqbuJsrGfH1/rLzYoH0/6Cwjm4cumbvHvLTxqSMA9IjtRMqownRg2OF4IiAlvb6JsOMgC8r/6xeDH4ASs4wQB0QFCExBjh3gFxFwFKvNFKQtAAXETjmAdBBVB+WgXFxDzPdCYiDPWAwQBcUU0sAAQ5MOztgguH6ICEn7OsQO8JOSCZVLYeccOFI9HGMajhYCEXHDGgYrgro/tKCCMKCBlgExsYkG8CiIqIJi7alSLA39xxlMEBD9fBgQCmlhkQFNvGwoIU0lAmoHCVRbG5UNYQK6zpSqOeA6kVj8w+0EikbxwI/oShZOw7r9CaHYMur9fbADlCwxRPL7FNGHcLxaQvvwuHdUoJPf6ekAGpDU5Uz+fj7ZNzeqOWJilX43CkYW5gXFh2L/TJxveCMjDxGxDUcJR/eaFxwwzeQM+/4cwIae7lSYg3a3g58z5wdhGEJAGIMDH92IFxCEqILMKTfs1OH4VjwLCxAQEc9q8Ws2JSigfFkIFpBw0BqWimiAgd4BAeJV1OUVAMGUvf28sKOycbf2kc/b696vtbgzj4qGhgLi5kKlX+XAloXy4iAJyI6yKBcLv4NcPEQSEja/vXU4fwetaTBMQNgtEKGWjUDq2vdnktuAtU0tA3mhx5wKB0W0slSQgrSxCxd6PQgwjpZXFgUQi8cz/w4tjviRQgYS8dNFeaqaudVD/xzfgZyT+T09IckbXWhSOcozlJQLyXJIG50hfFg6KFwLiQtloT8zWYcO5bmVSTleYpwu7r4525xCPYFkSsrtiwM9B4TCJC4gpAwh8esI0DQWEiQoILiFcBSoz45R5HUVApp4yzwSV+OQnexSXD1EBiS6z7AWNQel4JCog2P9RQuv/sO2iCQim2nZgcrU9ml/4/7XaPGnyeetc/Hwb35D+/jm7A4Oy0ReNBeQuqERQvW1KyEVnJ5cPgoA8freehQ3eoI7iYRMVEEwbEBnX0LuSJCBXWbzyKVe9i1E4OlA+GI+aAjKmhW0hHr/6liAgRlAD7DPCx8rDMHn8SiLRGBSF20oEJCVdtwI8wMVkkMw4UnL1E8CP4RvdUzL1S1KydLkoIE80FhADVjuqE48YdidmGRL5Ma1XDRFIONpdROwBsXx1rNvvt7RiA3kkFw5hASno2UDcgL6KIiBcYFQXkCJzGkFAXGqOdY05bV1BEBCMdYW21Q9DEJcOQgVkF7EB/RCG0RYRvjjvY4ZYQMrUajp/t855g4sHQUBs715yxoMH3qnvPU4QEDau3pVAq4D0riMJyBX3Pm/7fd662rvizabepj/EQwMBwbAEooAUEASkmdxwfo0t4+KAYeRcY9tAIpG8nNTMvqWBXuYweIA3qA+6Xy0MMxYe0U3DI1p7UUpukAUEj3AtzDaUYZVj68Kj3XG8L8X7CVlsLB7HqiA2oRu+ytHPg2HAnPye5SQBOWmcAwTiCnr2EwTE8w4HegN6HUFAboGKRJdY9lAE5G+l9ihNqx8/2+ZTBARH6C6jjeC15QwzAVGlYhVS5yzh0kERkOBLvS+swk+8ZI9EAXGJCgh+rYooIGsoAoJxBDa6N3ucytXAxmG1YwnKRVpAk/sJpk86NBIQaGHBxBG8HQQBeYopgOtsN+Yb4Mefmlko8F4OT/B9Ie0skt8Xcwh/9j6GqRSj3H4ukXjViN61TqGAtL2gklI9sJm7awsMY1JwJ0fyEcNhFA+HFwLiSDyib03C+2OWJ6c/DQVB+GhglI8m4hSsJwm5+lgYJnyeZ9xNEZAv8zrHEUfwVokKCPZ/3NRoAtYTgoAUgYpMLbGUEwTEovV46Mhyy2aKgODnEUQBKRhOAvLX846VKvR97OLCQRIQfAx4Be9ccpYICwhmXIP4BvrAht6lNAH5sxJixNubAVee1QZc6W0OuOJ+iHFx6eiL5gLyGChgHx0KiEOBgCiJG2PAPPhdVGwYplmusX0gkUi8a8BWKCCDF+3x41fj8Ou2/vfDC+0RMf8axWPNSwTkcVK2YR3//QCJvmNufOoVcQzvfb7QEIYRn//QU0YQkPtABOXjIaECUgQqE32qJ4TLh6iATD9t3qmugJjvEgSkDTQm8owthyAgJiASftaWO5wEJKTGHk2ceJX6bq3TTRMQZwl4QdBl50yKgIy/3FsAgoz/xTWfICAeE9AvQywgNUDhGpvGxcMrAfHt6DDBIJFIvKNvL4aXyRy4aI/3hQy6z4hqwELZuPOcgGQa2r/KNIWASiTgJC2UjnukPSC5hptf5XZOgmEGysZdgoBUAAG+QJDLh7iA9OwAlZleZEqkCMgnxZYloBLhpSwAKyBuUQHBDejHQWNQOJoJAtIMiOwB+TM2KBWvWIVcskejfBgwTFBA8GNXO+8fAS9BAakhCIjrnTqxZXPjrrCQ4SMg7kNA4I1rbNWwEJDrbANIJBLvwf6NSkUCkt61a9A438JB9xlRJUgct1szUEB0T3m1Qs3eExSOx5RFhJhmrHwMu3OpifksAGXDLS4gxn1AYNaJnnkEAcGvW5aAysQWmbaSKiCltimgElNxHDAKCBOugPxk3ToEAmIQFRCcgJULRKactW4bRgLSISwflWwcisdtDCMIyMPQSyxU2aQtVwJBQDCuw5RN6MNBQN5oZmuAwKhW9/5hICCNwFC+JRKJkkZ0/bcKj2FVw+8kfsdG4+e6Ad/P6oyHEUTyEf2DAZvQ8fcJKpF4VDcX94DoSJvQj3bXzObH5oYhs3/ojuOyIS4gppVA4LMTpk0UAYkttoZrICDHRQVkerHZCCoy9bR5HUVAospMiZrKR7ltChcO8QqIfbMKR7ASho2AXHAUgCDv1rrKuHgQBMQUdME5EwRACWkWFRCMZfwlFiwoIMXDQUBwBO8sIPCX1mdVfi4gT6CFhYFEIlHGoiz9PIUCYvhjahNuP08a9L3HMILARYSxg3pA3F+lqXPMaUG2IRFH85pQQJiogOBtBZ+aBcOUz/N61lEEBBNDG8FrzCEIiBE0YMaP5jbxCoilCVQkpsScRhGQmDM9wdpOwLIspQjIBzhBC4hEnWcTUD4cPiQg1ZgOQQHZAQKEXHTsDUHpIAiIO6jOsQwEGX+pdylBQDDuXWLb0HsX+4iA3Bvb7N4lKCAuIC6eHNX67IEfC4gJrrG5IJFIlMMvUHkTubKt6PrY3/tHMgZtP8+BEQQKx65BAtKqTuXDsBx3g9hQQJiwgOCSQvhueJeE4/OMhwkC4uAVPOIErCaCgDSBBsQWmU3CFZDTlmx1BcRSRxCQx4BoXAHZRRGQ8FKjKoKE8lHxmgUEP3bWvXfeORcQlI8aEQH563n7YsWVjwuOZSgfboqA4LLBHUAEhaNDVEAwT/kSO5H9Eygh91+vgGADeRMLGou7QgQF5A6xAX0CCgjzUwGxQCtLBIlEQlpI2KxIQNL1m3//uQcDv6dfAiMIrIC0DRKQnUBk4VH9RpQPN4aJC0j3fhgBoGjUiQuI6YYKE7AMogKCI3hz1F9AaI9EAWGECsgmlXeAPBUVEGxArwGNiTxjLRYVEOz/eAQqMeWsfelrEhA3ykcJykc89IEC4qwXEZCwWmu4smNXjhgUDyOGiQoIHr0qABWYcLl3NUFAcCSve6PgMaw1r0lAHCgg2+B3RAVkTIu7hLh9fJ6fCshdzEyQSCTURnTdIWUVEN1N3A6+bdDXTXx7OIwQeKM5ioe7v4CkZHfF0B5TvxPDeEQFBI9ejZgtrCgaTwgVkAIgMPukfgoXD1EBmVlo2gQqM73QsowiINNLeuaBSkSVmkK4fIhXQKwHQWMizthuEyog1aAiKCA1QyYg5x06lI7D752zR8LzoIDYmxQLyAWHARQw8RwLQum4h2EEAWnuW8RHBKd3TazvvScqIJj7/DEEj2KVDa2APGsY28xiAaEJCKaF7aYdv2Kb/ExA3Jg8uMrGgUQioZOa1rXck2golJJyGEGkHNFvHLgJXXcPCKBsHOTSQRAQd8Kx7vUwQpid2xPCRUNYQE70bCduQF9KEBD8vGe++gsILbsoAjIr3xAEKhFdbE6iCEjUT+Y1oCFReOGKsuEiVEAOgIp8eNYWMfms/amGAuJ+/7y9AeVjdcQrzuyjfLQrr4DYm8Fb8GhoSK2jmksHQUAevFfLQkFFJtY7NxEEBKsgvStBhFoWiPLRMAQCcg9F4xvogywgb7Sw5UABL+T5Y6CI5KB8PPBxAWmE62xEDdmRSDQnNee3ULqAdK2FEQRKR1V/AVmYpT8IAvyjlI1amK0/zoWDICCOr3K6V8AIYs4P3Uk0AelOJY7g3UkREH6xr0H/RwlBQB6qOwHLuo0iIFN/Ms/UdvyueSaXDUIFZDWozIfnHDEoHU/UFRBb+6Rz9u2Tz3t/PArl46ZiATlvzwEvCbngOMiFQ1hAcOLVO3WOWFAblNKgS64nYgKCaehtpzw3bkfP1kRArvS2j21COfIwJpYqIG82s0hQkzYWDa1sKwpHGeaBDwiIBa6xfGiT4iGRaMaiTP09goC4E/+nJwRGCHwbPEqHZUAFJEM3T0A+xiZmG8q4bBAExLTgWHcKjDD+K9+4BkXj/osSz5PvKT33Z/MUWiYR+z8Oo2Tcf3lMf+ZTnsI/0woaMKPIfFtUQD4pNlepKyCWPIKAuKaXsrEaH79K+KjCUuc5troPX5HIM/Zo0ID3zphCUTyOY9yCAtKJKQs7Z1v/QaUlDAR4/7yzDgXk/nueUvOfhA7KX2uc67ySjxpXYsgF5/2Q2ucT3D8XX5x36nqXgEZMuOzcikex7vNM6J/Lz2f84GBDeWCjcxYQeOuKcw7KRjXGTRSQ23i7b2wjiwEveLPFlYricb8vz/4dFI0XBjeg39Z898WvLARa2GKUkt0oIJUoAg+H4IjVHZSO43i7FJ97xBwrl0heGygRBaICkpKha4IRRHKWYTmXjr7onvJKBigg9dBvgVj5qOWiQRAQHe4KkSMAJcDhVZUZRd1CmV3FAkFFUDzaRQUEG9BvwQhncrU9OrzSsQPlownT6UE8HJi7mGo8YpX2frVtDd4vCiTDgrcaWXjgL+7Nb1/pLQ5sdN1GAel8gYA4Aq+477x15VklHrE6/BZWOt7myxiHM/wIYTuLRUFYjvkWrrNcvK3H3MI8xlheIRkGzH2UjDZMOf78Icwm/DgRMwEkEokAtI3oG8UrIPodMIJIPmLIGygghjxQQCL2LyQeMbSjgDCCgDz88mhPNEgkvgbKOIqHRbgC8pO1CCQDaWCjP/z/7N1RaFRXGsDxwyKlK6Vbig9hKSLBarQi0i1Lu9Uymbn3RsHKsqylSMnDPixLH4IspSyylIgsImyTuXdmLKH4UtdNMrH4IHZXpIRlV4qILFKCLKUUCa3YuedM0sxEQpC730ktnYTUxrkxzp37/8FHzGggzIPkn3PPOf+sd3R8NLNh0zi/lU0re+nhT/8TbfyZHJ2ryu19zHosE7KCellC7GrUubCKYt8v3jOgNfUM6O1N7/8omL0qJewljBIdtxYFSNHsVyu0Z6jSkS2aT7uLJmo6QEpTN3YPmY0KaEHPjsx02fBoegWkXPuTAgAA7c/+YG1vOW8qQPI6Nacv5Yr6xcb4kKm/NDD5+Mq+trJFwuOmTNR0gJSqV/cEM6nZb4Pk2TpSOxQnQLZ8WEvdniYAAFLLzet/NLkKMnHgRCUV52Jn/fD4kv0f51b0dcWp57uL+rYNjxgBMv7yqXS8z0guiY734wTIpnNyQhgAAEgHxw+PxDgJ679OXnsH2/wZy1ygJxY/flXt/fHbzauvSHBMy0QxAuRcmi56RHJJdHzRdICcrd9QAAAgPXr8SsbGRMzRbqDHnHzYuy/QbXWiRDaY6pQAaXz86q7dUK7uw+4Pkdi4IxPFCJDTmf5onQJa3Obh+i4bHc0GyJaz9VMKAACkhz0aVgJiXiZanQnnPF9fkj/3SYw8oxJO4uOPSwJk/L7/vmQOZYtm3sZGjAApqP72XlVC++garQ3GCBCZ2VRdqAkAAIQX6E9sPDykueoF4Z9zebNTJVAuMOONAeIU9OH73BXSJ/ER2Wk6QIrmiAISYucH0XoJjkqMAJnvLJu2WjUFAAAr4OX1YRsLazBfyPheIcwm4fGinoHppyU+5hcFyMmpTrWM7kAfteHRbIDIysfdzEnzBwUkyLaR2cM2OJoOkHL9kgIAAOmTKX39hJvXt20krOFUPT884/j6tVbdN5ILzCEbHw0B8ulyRxl3B6aUlb9vNkBk1WMuU9KvKSBBNv9NP9k1Wr8VJ0A2n629oQAAQDp5gf5tjJiIO3MyF728edN7t3X2jWQDPdoYINmiPqYa/GIoWifhcUYmihEgdYmP1FzqiPYh8VGSiZoLEJmxevWZMjd8AwCQaq5vjsePifjjBOaa4+t3nKC6Sz0iB/ujxyQ8phsDxC1MvaDueXXoq/USHRdkohgBUs2W9K8UkDDbyjVH4uNunAB5dqzmKwAAAAmAYzJRC81NCaOSl9eOjQK1RtxAezY8GgJkUt2TGaw+lQvMv210xAiQW68UzA4FJMy2D+sd9tErmShGgMx1lu9sVAAAAJZXMHvdwHzWIgHSONNOoEfle3vdRsBD3v9RagyQbGDeu7dfpkNi5LpM1GyAyIbzzxc2swMJYx+Z6irXr9jwiBkgBQUAALB0f4Prh792fT0qM90iAdI48zIfe0HYt3ewukmtMgmdm0tWQN70CmGXUzCf2fiIESDX9wxVOhSQMPb/hK6R+nkbHTEDpL51uP5zBQAAcL/9EPaRJPsolHycbJEAWTrXZY65hcoLKiZ3sLrLkehYEiBVmTsyUYwAubz75NRTCkiacvSTrpHasARIFDNA5PXZPgUAAPBg92Po7W5g3nbz+nKLxMeSCSsSS6e9wOzfFzz4vhGnoN9ZJkAWpvkA0R+/fKryhAISaHN5ZoPEx0TcAJHXPuGWfwAAEIs9Ntcen+sG+qLrh3OtESDfj+PrGfk4Jt/bG/ZiwRU+fnV9NQNEPh9e2EAPJNhz5emnJUCuxAiQmS1nv+lSAAAAq+XAiYpcaGjvEwlPu77WrRIhi/aNBGbc3vyeDZbfBJ7zzes2PlYxQN7r5ze+aBM7P4jWS3RcbCJA5PVZLtsEAAAPT6Y/WucMVjKOrwc9P/y8RQJk8QR6wt594gShkw3CXzq+PirhMb9aAZItmb8ooM08V44e2zZaG32wAJk9rgAAANaSMzjV6fq6z/P1Jfk43xIBIuPYCZZM/ACRz/VbCmhXdlP6aP39FQbImCqzCggAAB6hzF+/2eDkw1430GN2j0abBcjdXEH/TgEpIAFy9EcC5NLmj9j/BAAAWshLA5OP20eg3Lz2JQi+THiAzHUX9G8UkCJby7W3lg+Q2XF7caECAABoVXaztudXnvd8fdT1zbWEBchMrqgdBaTQlpFar4TH/HcB0lWuXyA+AABA4niFqU2N+0ZaOEB0JtAvKiDFZNXjgMTHna0js2fsrekKAAAgyewdHt8e8WvsEb/TLRQgX2Z8s0MBUNv/PrNdAQAAtJuFI359s3th30igJx9hgNxwfLNRAQAAAEiPngG93Q3M2xIkl9cqQJyiubYnmNmgAAAAAKSXXZHwfPN7xw/Pu3449zACJFsw/9oX6CcVAAAAAHzn1aGv1nuB2S+RMSSrI7dXJUCK5rwcHczpPgAAAAB+2EG5ifnbfSPhCYmO/zUVIEXtc7oPAAAAgAfmFMwOiZEjEiFXVhAgF3JFjtkFAAAAsAp6BisdOT/sdQP9roTHsOOHZxxfDzpB2Jspfd2hAAAAAAAAAAAAAAAAAAAAAAAAAAAAAAAAAAAAAAAAAAAAAAAAAAAAAAAAAAAAAAAAAAAAAAAAAAAAAAAAAAAAAAAAAAAAAAAAAAAAAAAAAAAAAAAAAAAAAAAAAAAAAAAAAAAAAAAAAAAAAAAAAAAAAAAAAAAAAAAAAAAAAAAAAAAAAAAAAAAAAAAAAAAAAAAAAAAAAAAAAAAAAAAAAAAAAAAAAADA/9mDAwEAAAAAIP/XRlBVVVVVVVVVVVVVVVVVVVVVVVVVVVVVVVVVVVVVVVVVVVVVVVVVVVVVVVVVVVVVVVVVVVVVVVVVVVVVVVVVVVVVVVVVVVVVVVVVVVVVVVVVVVVVVVVVVVVVVVVVVVVVVVVVVVVVVVVVVVVVVVVVVVVVVVVVVVVVVVVVVVVVVVVVVVVVVVVVVVVVVVVVVVVVVVVVVVVVVVVVVVVVVVVVVVVVVVVVVVVVVVVVVVVVVVVVVVVVVVVVVVVVVVVVVVVVVVVVVVVVVVVVVVVVVVVVVVVVVVVVVVVVVVVVVVVVVVVVVVVVVVVVVVVVVVVVVVVVVVVVVVVVVVVVVVVVVVVVVVVVVVVVVVVVVVVVVVVVVVVVVVVVVVVVVVVVVVVVVVVVVVVVVWkPDgQAAAAABPlbLzBCBQAAAAAAAAAAAAAAAAAAAAAAAAAAAAAAAAAAAAAAAAAAAAAAAAAAAAAAAAAAAAAAAAAAAAAAAAAAAAAAAAAAAAAAAAAAAMAJ4FoaMB5vJ0sAAAAASUVORK5CYII=;" parent="1" vertex="1">
                    <mxGeometry x="644" y="591" width="242.91" height="135" as="geometry"/>
                </mxCell>
                <mxCell id="31" value="" style="rounded=1;whiteSpace=wrap;html=1;labelBackgroundColor=none;fontSize=24;fontColor=#000000;strokeColor=#000000;fillColor=none;" parent="1" vertex="1">
                    <mxGeometry x="644" y="381" width="252" height="630" as="geometry"/>
                </mxCell>
                <mxCell id="3" value="&lt;font style=&quot;font-size: 24px;&quot;&gt;Pico W&lt;/font&gt;" style="sketch=0;outlineConnect=0;fontColor=#232F3E;gradientColor=none;fillColor=#3F8624;strokeColor=none;dashed=0;verticalLabelPosition=bottom;verticalAlign=top;align=center;html=1;fontSize=12;fontStyle=0;aspect=fixed;pointerEvents=1;shape=mxgraph.aws4.hardware_board;" parent="1" vertex="1">
                    <mxGeometry x="-84" y="366.5" width="134" height="134" as="geometry"/>
                </mxCell>
                <mxCell id="18" value="&lt;font style=&quot;font-size: 24px;&quot;&gt;&lt;span style=&quot;font-weight: normal;&quot;&gt;Mosquitto Broker&lt;/span&gt;&lt;/font&gt;" style="sketch=0;outlineConnect=0;fontColor=#232F3E;gradientColor=none;fillColor=#B0084D;strokeColor=none;dashed=0;verticalLabelPosition=bottom;verticalAlign=top;align=center;html=1;fontSize=12;fontStyle=1;aspect=fixed;pointerEvents=1;shape=mxgraph.aws4.mq_broker;" parent="1" vertex="1">
                    <mxGeometry x="322" y="370.5" width="126" height="126" as="geometry"/>
                </mxCell>
                <mxCell id="24" value="" style="sketch=0;aspect=fixed;html=1;points=[];align=center;image;fontSize=12;image=img/lib/mscae/Docker.svg;labelBackgroundColor=none;fontColor=#000000;" parent="1" vertex="1">
                    <mxGeometry x="718.82" y="266" width="101.22" height="83" as="geometry"/>
                </mxCell>
                <mxCell id="26" value="" style="shape=image;imageAspect=0;aspect=fixed;verticalLabelPosition=bottom;verticalAlign=top;labelBackgroundColor=none;fontSize=24;fontColor=#000000;image=data:image/png,iVBORw0KGgoAAAANSUhEUgAAAZAAAAD1CAMAAABJL1OjAAADAFBMVEVHcExAQEFAQEH3iyNAQEH2gyVAQEFAQEFAQEGbXzRAQEFAQEFAQEFAQEH0bihAQEFAQEFAQEFAQEFAQEFAQEFAQEFAQEFAQEFAQEHyXSlAQEFAQEHxWSpAQEH8rxxAQEFAQEFAQEFAQEHzZilAQEFAQEFAQEH6oyBAQEFAQEFAQEHzZSnyYylAQEHyWinyWilAQEHyXinxWSpAQEFAQEFAQEHyWynyWynyYylAQEFAQEHyWilAQEHyWypAQEHyXin4lyT5mSP+vhb1fCfyWiryWiryXCnyXinyXCnyXCpAQEH2hyb1fCfxWSrxWSryXSnyXSn5mCP4lCX0eCj0cSn6oCLyZClAQEHxWSrxWSryXSlAQEH8qx/1fif0cShAQEHyXin6pCD+uBn7qh/4lyT5nyP1fSf5mST4lCX6pCH2gSf7qR/4mCT0dCjyWyn3lCX5miT/wRP4lyX5myPzZin2hCf3jSb/whP0dijyWyn3kiX9shv/wBT4miT3iib5niPyYin2gyf0dyjyXCr/xBL/xBL6oSL6pSH5niP7qCD2hSb1fif+uhf4lyT7pyD/vxX6oCL0cyj/vxX1eCj0dij2iib/wxP/wRPzain0dCjzbyn2gSf/xhH2iib6oCLzcin0dCjzain3kyX/vhb/vhX2gib+vhb0eCj6oiLzbSn7qB/zbin3jSX/yBD/xBP9tBvxWSpAQEH2jSb2hyf5oCLzcyn7rR/8rh/3lyX1fyf9tBv0dij4mCX9txr+uhj7qx/zbynzbCn+vRb3lCX3kiX3kCXyZyn/vxX7qR/2iSb4myT6pCL6piD5niP2hSf1gifyZCn1gSf0eyf0eCjyYin/wBT8sB/8sB38sR38shz9tRvxWyr9uRn9thvzbin+uxj3lSX4mSXyayryairyaSn3kSX/wxP2jibzcCn2iyb2iib4miTyZin6oiL5nSP6oyL7qCD1hCf5nyP6pyDzdCn1fSf0eij/xRPxWir/whTxXynxXinxYCnyYSn/xxL/yRDw3atoAAAAsHRSTlMAcJEIoARA0PABUMEf9hH+NOv6COEQGciZQFgl89wVX68FDBeJOUYNLtW8IRxntKOqkPoVeOYMqzK2Sr+DXX9kHSwvxnfJJdt/mqViVdXjbThWbE2VY9FMzu1Qc745v2xLOCbg1XxCS5OmhOug24fhJt7zyPq08ulrK+laeurS5PKVoVXJunOzQJrqJku90YqIdNPm0KRgrKevh/VsevL48O+vnPPgQPb56fm3wfjz9DRPII8AABP/SURBVHja7Ny7ayJbHAfwL8gUp5lemM7iFoqihQoiFusTrg9IEBVWrNKtlUXShc1fEDZFYpNNtYRtfo1VmqSxFq7dgoWxsLBMcdmbwI0m7vo6M7713vl9ypE5R/z5mzPnif8VJZ4KKWD7IpojotwJ2H4oaNTnCQuwPVCmIacKtmuKi35LRsF2S3HSqLwfTGK78RjSMmC7I1w0SeOXrR2K07SUDWxHCjRLhLuIO2LP00xusF0QAZKwgu1AmmRSFrCts2kkFQfbugTJaQ6wLTuhN9yu7wkX6dF4mHHLbB7SFQbbqjjpS4Jtk4iRASv317fJT4Y8SV/Y6sUsqjWc8EWSqWTODrYWYZpTzl3yYkymnOuHiwZcYKtTQz6N5udxpm145w0naQynyKq8QaeHFuUJhLwALOE8d1jWy5/QaDmaK2NN0ZQ8D3stTxQCtHYFsOUowSStFTfrqxBnSdqIFJiUavdbX/kdFkzI5GhTeCnXLNFg2ZnU6Jd8xDXSq7O5aHOCYOMcaV+eZvFEyhkBIKjRBpXBRtjDEdKTclud9Au36v/B99hFBcCGErQHImBDLtoDObAhJxngR9Z2BWgP+MD2KiA83rtnAQmBbSQgWs5XThesJw51IJopheKunEZGeIfP+hv1vDNecmCaEIA96I54SEeS95Os9bXX40z7BXQJ75krzxGZg3vlaPjOvBCYg7DK5xpzXrCBOK0kl1axAEswQLM5eQ3XmxCtwJkRWJTf5aFZEnwGxICVluY7wRKEcCRmhiQNBsBOSwpksLSoi3fByQiNlpEPCqzCH5lRJm/x6YvQEnwqViRCeZoU4WZkuQkRLYiVCWHz8b7EWYI0l02c9xPSaJyHz61ZolV3etdXd2Qy1ryqFEjRQtwC62NJ0Lg4NyMiQYuIY73SHhrl4TVzKNACwlg3a55nc8dZPLuMB+BP8VL4cb6ttB9y9hiNSPIoY4kktjQiKxwxns8dpaRoLkkvNsQR43OERoj43/PQotiYaH6kIk4Rh+fHHILYIL/245eY6fsiIvHDmAsbVRqp6gxmd/LzHyMpFZuV/v0dAqZPESR+GngpYMOE6+fQM5/7azt91ucU2DRL9nmIl5ai/KLnuWLHQryZUPkykO0L+NzhQlSBIXFy+vLu1PRvvrDEmnrcixRVcmebb15ems1Gr9FoNiuRaskLA6HmUAlmJ6xNHacq5lVynTYlKs6QDXqEs/mmwZsOAXevIRUWmIs3HevoFNNrVHxHAnKOm2ZjgJ9ZgKMhdaNiHkr6tl7vNfTVY0EFMiL0Hrk6LwlCqNOTqWIepVin0egZ6tRjIQUSSrbeG3BzV6RYl6nYYEy97HTqc+k8trNWSPjrAw9ZmJ2tUpe5hDHrba8+v87jpSTI4vI9IqbfnxDqSGVgRKQrnQXdFjCT/b0k049nXXUeJbIKDCiJbrv9uKjEH5jF3XrsM3tnXblpSzycw4DlstVeQjfrwDRhq7T7ijA3a+tBxg59yvf2w1Jatx8Fph0OvsqNyafW4w8yRRj4/LCsVqWAKcL+9pnJD48tdlsS59BXbT+0ltXtBjHtalDgkal7IuL6XiYKXQet+xV0n4KYcjT4xNwbqvz3Mp+gy37TnX3b98/u6uHh908tg4hcHwhMEIObqqbOkOOuxP0h9IhirTvl9vBAFegTAor/+OprV651/RETxPnr9dolzOywJtE9MAhkbVLxT0VgjLAUrmpS3VsHJtgH5Zg6Qy5qMip0qF8nf92LI8zkqF7XZD4omFB8vXoBExPSX+vTQol1fa5AQtjkWXiICcf9ms2cIfYnidpn3duun8Z88kNOwH/xJHGAcY7Xa19hYgd3MsfQcfjX3agPKvQp1cEN076oGPfh6c7MARHHdxJPR5BTv92NKlpgQIiDb7OrmUzE6p2pA9L/q0uokDsfzw8L5uD/8i879++TSBqHAfxJyBRvY3M9yWULius3V8JSQgOGTjZxAUFhg4FgNnposMBfp+tl12JjtDDx3JithCBkTSjUBMEfUf8BLDYGN96CRuvbU2fR5X1n3hfNNe98TCzMNzyEx3lnXh2gRR0fe/GA9/PnFchLeXlMd635a/r+/uTrZ+Ay9Y4W9NlOcJ/y7lreqyzifH11fUxnB9vUg+q8AG8j1DAnHvjtjbSfs/G7/ZrpahRsC9dNx33gRbwrtCSpr3LvUfpWro7YUmB7edS0/Av4OWhJV04YANv7I7UPqr/AZJpvjl07IWKUFmWHAc6VQuFKiwNM3qPm2GtCIKDj3SElyyv9okX61DqYnGByNKcKDohxUqIKo5CcMnpY0NMJptRVQTXfAUF2SvS85PfzPk8cFnT1gOlDQXXwAYKIt0Ah92ldSRQoBAqxNwoqB0QROyUsAYmRxCGHRieYlg9VB1MQ5qSkzct850/q8ICHU6OQA9UkxCmTlCfQA1mRNwd8HGCaVGcadogjqdawRh9k1ZNp8Fkg7EIaqjm0oZOSZpd1J/JsubHPJwWm5X1VH9pgmm8Jy8xLWghJ7OxzSoBpuPGoQoh9p7WRKSkbIY5MZp/TMFjInDqTaa+QVKa1EDl3Itb5nQw3BSx9Px4lhXa4KWlSntWVuQy/fRtYHOrMWQLt6KTEzUFCPbUdAQ6wTO2oJtEOL+V5JGQ8hwzvCKilwDR5N3N2ZkUbrK1pZ8OQjytzJmJYActcTR1yKBBnpaQtQzpkuCbk9BlYxmuqTxBHrLUWawOQTrAmyAEWJbqjDtkgzkYJk7CQT2uClsC0oM6czkEY8bZmSXiE2GprggYsYOkY+NGIF8JcRiEAQqfCNNasBXVme9gEQcTdGlWLQjbRtW1R02CyDJ7eDX0JQVSIkiVfIc5tYadTYAo2xxwQQz5RsiTch7i/CJslYIpsq1NbLgIRZGCrNWoa8lnYEjVgAdNz/5bqixsibJutSdt+K+Tj3hK1ALbfBptzcxYicqhSkrYHbZCPY0vQoAUshNhi6thmNSqwbC3Rs6RsxBXbFBMgYCLewXxz0u9ScF/3kt8NGhPrOUQlXLWILVoVsRUzQ0N/89E2N6uDoaDlLqbfHd/8/kMrWpFglSUu4R2lxPr9lRIRIdBgWVLn8tV8Pl+tRqcjkch0snqrHxRL+SpLCBL6dTYvZBwaCPHE8j/byN8JgcIayzNtjENG4yPVDX5+CzSZI/kNqqQLNAHNMAkXLYB0hDb4nYSgoz8S22gRm6UXaUpqhZUXICXS7T/hF4SeDvf0yQP+dAchoHFrZ8UskBEhxDPylVfSCn2mYCASjyZjyeh0yGMFiyWpE5aGrEzpkZMyH87LUYJbCiFgmf1a1jYi8RsTFI+/zOWkl+Bp9Jf1fA1CZt2RxfI/+soBPAkS18/qhdxMwUhyT1fWjaeQvtBNKi9KvGbdIEC/JxJf1HmtPHi87o/lPX1ybg5/RpTuC01PcIyYR/YuOARguDGxl9WUJngUUzx7keUwJvuadYeYF7OaLiaUR/XRm+VynoThlierY9qMtim92fPzLI9ZGG4Q0nWuqVIZ6W7/+DjnUll0waCaWqx80/YxoKAdlq7sNy5jEv7XkI14KnrqcRvE2WbOKxzOfXJv01uRsYqe3dWABYJci7sVDjMeIuPbqDSZfbv6fEMEAsy9l/VdXeGJcaMNiu7VXV2VykxQAScyFK5c7mpZDc/0prsV4+igIp5LHqUZjwk8/o5Xdi/Z6mO4YZTBRCbqXErhWRt0kGBXvViqawhbjSr0KF0lPsXcTOAVmIg57SuWtNWHjD70WWZKnFaLJd+EywoKW7qrXlwt6eg1/mzFgZh9RQG5XHjsrWf8lQW3zC9cf4z5irmiPp8ZBh62XFFMqbj+/XvY5/OFizfWixxWX8DAg/zJf3j895W7K2F9PbcuUuUQDHwm1nP/g7fGzoNX+N/27ac3bTQP4PgPSrANWMaYf7JFwAgoICEhBQ4gFGly5A1wSKVosqe9bU45NMfksFKlSjm0l9xS9Ta7+p1WGqlz6KWvYHY7qx3trW+hmst0YpsnGB4/DnahiSfPR+qpDlH8jf08fh7nX9/AX3mOdR1/ix7P+ARrXdLzf2/dj88e5VvVIf3943+27dlTfsNa37OPW/bLs8f5SnVYf3n3y3Zd8/tVEDu//rhVH8/47SqQ3e32+OdzvtgezHf/3aKPl8fABXPw7tftuX7CL4+g3r7bou94j8C+32YQfsMKTDr43xbxHZDgjrfY4w2/YwUmPf1pa95dAhfcm/9vzTVwgUmX77flpyvggnv93tfp2xfXJyGL/A24wHbO3vv4cL0rAewcXF2cBs7xgQ8hobz4wHbywtkJl24cv7q+OP0QxEs+yQpj92eW06sduCVJ1r/d75+fXb++OD85OXnz5vTkw89++Hs/4Vwycpyx9/kkcJz59TgHLpSXv3k4f/UE1nDxG9sr4EJ5+2nVycsDWM/T808sJ/xFk7BOPrn84+LsANa3e8no8ZlfIKGd/e6kuLx4+epgB4LZPf/sGeRyh8+xwto9ODg43n3qTKUCe/L6s4cvb4ELT4KvcfUDHeSajyD36Pj892VfTvlOyL2SXp1+cQfhN6x79+Tq9MvCGXD3buf5Benxmg8gD8Pu1cUPNz3O+bu8D8eTgxdXvAfHcRzHcRzHPRJFfVIrdfKd0nR/XAfufhn7HXTJdXUNuHvTHCm4St0vAHcvMjX0JPYk2Ljsfk3Iz/WA83AkI0vJgM3SBVzI7QFHqffRh1yFDSrU0C0BHGWvhC65SildyqNbQ9pcjw4uyQJH9aggoQiDrAmWeiuu4q0ebIjUxSUl4FbVBYXk6LfBxdQ76ChpsCE9XKYDt0Kq4ZzQpP6vp+KNYRE2xMyjozLRUxYTuBUxnItrQNurIeaasCkzdEx4CBYjh44YeDvKVWFj4vP2wLF00XHETgabU0KLzFfJmFpoU+LwTeTRMgKOJY22kgnfhMgfBv1l0aa0YYO0bCvVytZDBDGNZGrW3IM7FJvUUfQh41TSiN7UIY62MgTQF25MAMzWpN8VHFkg2g3yWNNptO3mgkV3BxGFW7CQGaRzaBsmWpL9gDT/TouPMQCMRgVtlYbByKpPVbTJ3V4BbkwECzx8kooWxYAABLyR0AZDvJWXwJEsoVu3CZB0z+FEXAGE0VfQpaMDFBaXE/mYdnHqOkyZFoGiDVR0kRsFgARa4OFro60LgYN0BXQZLB5alilxba0gZkPBFd2iRxBysglxDCtaeVyhzqIT5BBt1YBBbPQSelNFmqCvEaRYQpraooLQlCq4SRP0MIlMkATaMuGDuM7ZWEYv8t1BjDx6ydFBaErK3SOBnuSoBCmhZQhfGaQJN5oyMvkHKVaQgQ5CEzPUHIUWlSCq1xCSZhqtBsl1y/F4fN8+q0MkShN9ljqs5ZhBEuBmdpGoxKuz1FFC9Q8iTnszvXFbcQREFQm5FkvNqg0hakHITWEJMonLQXKTAtyq4VytDY7CRF4ryCHOCS1pnqg69AlS3nMO6snoaIIjI5Mcgzo4sqNoBUFbOVwQMQkLLa/tXqOzRpCijI6G6d7nZQaJAZEV0TYFR5+EzcBCL/dYgigtejTCXBLcCsLdQRpLU2fCnDKClGEhhTZZc8/hsVQAt1kuQkFEtEylNYMM3UGm4JJlbPVmxLuCaKL3yw5myTOIvOexVJ0ES1lBi1qEZbEIBcl77Wsjk+AO0vRYgknDqt5dQWZoUwuwoq14BemDW9W1dWCqjIcqqRSdIGm0iBK4ZWhjtNVIEOqLOmhLsvZs2UHKaNsHSt8rSAzcDCdaw3WRViRYNY5OkDLa2mu+mjBxBemAS10hS1qUxh1BBOaz6dgriA5ummsD8ohZVlIjE6SKtkPwR+a0KdcpFDzWxBJAa90RRLZbVoBiV6aCpGCJK0icXKS0fmSCGGRs8FeQ0aIUWEFaZKJEy/gHqSN7D3EYJAg563tAm0QmCLn3N9dag0xLrCApctZpBf8gBTJWe+gEClJDWx1oh9EJsk//gtK0IZnMsIKMH8AVUvtTXCGGgrbWGtXkAmxhDBGRNYZoocaQZqTHkNvfq3wBmNo58ozMDFJHWwVCz7KKQBljoCAx9ixrGKEgWXTUTGAoVBS05DLsIOyxyKys9xwyAMo0WJAm2joSrGpF5zlk8WNjWQJPWhodDfAJEmcNBVW8I4iOtmGdvpsGC2KK1BEOKR2pIEURHQnT909HKppfkCzjZfaiuu5aVhyWmWkMFgTKjLtvL0JrWRYd50oZoDTz6FCaQAehhwKxCW71EjKC0Lt8VWoRIWCQLDq6Grglo7Taayvj6r4OsRdH4hD8g4y9XgPJlILshwwkuKVNMXAQqKEjvQcLuhyl/RCbOUJCnRhASM2yjEQcWEGIEc6VM+DQYuJaO4b7OJfOgkNKVTBEEENGh9ozwWH0o7Vj6Kh3caGSONTHM33QH+JCwqSDsEYLzI0OW9lWNSGuu6eeRkLYT2WTepzkCBgEekio5WqyOR50lYjtqc9pNfTVkIAZhL5X0/yDQCaPlFBBpHLU3zohpH1lzb+KZgeBlHcRhR2EMIboSQkYBMw+elKiFgQg2UGGrgHrBYGkiLRh1ScIkekgLVcVgwYBKY4e+uXoBXHeUaZVdABGEFpmROcsZv2CEFqc/s5ZCBKESA2psIdSPIJBAOpHAi5TuroEAYKAlOqgW0eXoO0fhMgux1QHGoQKAoWGjC5K3wCIZpAb7cORinPDfq8IXtKiJQ2epFaCfII6HVs526KlB7a8aCmDl/bt7Eoe9TRyNDm4KdrGsES0NWBJ4SitoENoZOBGQ7RANBWyyVQq2a5DWKaROoodzdomBFZs9WIxPavB19Ka1VismiwC95j8AXlcpvrpxzYXAAAAAElFTkSuQmCC;base64,iVBORw0KGgoAAAANSUhEUgAAAfIAAAB4CAMAAAA+E4DoAAAC/VBMVEVMaXH+/v7+/v4vPz8yN0P9/f39/v7///8zN0MxN0MxOET///8vOkUzOUIxN0QyN0S3ub0xOEMvN0cyOET///8yN0UyOET////////9/f78/Pz9/v36+vr5+vv29/iWmJ78/Pz+/v36+vrn6euioqvx8fP3+Pj8/Pzt7+/Z293l5efQ0dX3+PfZ2dvh4+Vvc3yytbl2eoLk5ujf3+Ln6OnBwsafoqn8/P2jpqumqa5/hIvNz9HNztKhoal7f4eUl56+wMVaX2mVmJ4yOENmanNmanLt7/BhZm+vsrfAwcRxdX3DxsuWmqB8gIexs7h8f4fe3+Ggo6msrrOkqK7c3N/9/v2Zm6HExsm8vsJcX2mLjpX///9obHVeYWp0fYLP0NR6foZ3e4OKjpW/wcSws7iXmqLb3uCAg4tsb3lmanOhpKrO0NPm5+mvsrbd3uGOkZiytLmMj5ZLUFtSV2KOkJeytbrDxcja2961uLzExspARVBESlXS1Nfa292ws7fo6euhpKmGiZGJjJOqrLL09PXOz9KJjJR+g4uztbmcn6X7+vuJjJP6+/tnaXOUl56nqrDc3+C+wsW7vsKusLWcoKU3PEmytLn39/e6vMC5u8CCho3Fx8uXm6HV1trl5ueYmqC3ub1wdH2Pkpj4+Ph+goeEh5DW19v+/v7S09XJys7LztBWWmWUlptUWGJkZnGmqK1UV2Pa3d5iZnDc3t+2vLyOkplYW2RJTlqXm6H///9rcHdxdX7Dxsukpqzi4+Wcn6U3PUk2PEg3PUo2PEk2PEo3PUg2Pkg2PUgyOEQ4Pkk0OkU3PEknLjspLzwyOUUmLDovNUIgJjMuNEAwN0RCR1IsMz81O0g2PUc4Pks8Qk03PEg/RE8qMT4wNkIrMj8jKTYtNEErMD00Okc6QEw2PkozN0VOU14kKzhJTll1eIFZXmhTWGI0PEZhZW9RVmAaIS4dIzFWW2VLUFuFiZFeYmxqb3hna3QxNkJFSlZjaHH9/f2Mj5Zvc3x6foba3N8/13JbAAAAv3RSTlMABQQQwAIDAUCA8AYwUKDg0JAgcAdgsAgJCxofFCcwTQ85Qw80FyNPZm86fY8lLOFC7YMfVKEYWX/p/lpJCfPLgfW60Ny9QPCvZcwMor0o0k2vcv1cSddWcukkbOjhDnDl28vsT/Nnk9Tu3Jd1xJf4frD49ZrbwO+ei/j1QKrs/aOpvde7qtzpzOpn6Hij/o80stCewfK3zb+T0M1fx9E++4eEn13ugtS6j/zDa+lCvc/U1uId7Izv/eI18jPN8SakK2oAACH0SURBVHhe7NppbF3V1QbgdU58zo59HFvEN76+tgMOUUJaREOhCQQU0hAU0jA1BFBJgEJEw5B8CbP4oAyFtpS2NAgQokBRK1QoQ0H8aGmhSGvtM995njzPc+aJUb25BiHf2KmwHOnmcJ/rH5Ys/3q9115recPUMPg2KWFOD7yEAcDZH1RWVn5w+bcl7JKlL18zFE9mhrZf+c5/loPzlcy/sDcSG7HNWCA0vP2Wd25eCM5WsnDt7mAaszYnxFh/qO/z5095uwGcq2T1rbuTtq6lfRqiaaMdDO3KDF76o580giOVSJtvi2g9Ph8ahk6EWR/6ULf8uzpH7/zLuWeA45RcsmU0YvcQEZomEhKhnkqpiHYwsLv547X/3HEaOErJ8iX7+znSWNjky3/HuU6IKd3XG+iPD914y4XngGOUiGv2BLiKZGYRidAwUoiaxnUk1JFI5cGWSHjP4qc2XQ05TIATW4kIdw63+LIp0olzIiTT1hGNlO4jRI2riIRkJzvarb7r33ruLA+c8ErW7Q2PpDgnXdW0Ecvq4ppGmDINw/QRqjZSPnTErla/Fh++9aNXXoUTWsmagdYkoqohcTXa96/1w12E2J3JJr35Gm8i0hgkTLVGw917V17x5gmcesm6TJiIVI6m0RUY3expfGXU8o7se+ThDx+w9WCQSOMaHkHkM0ykZLC1tzl+975t0nIBTkAlF9qthIhmD9m9/gOLAKDpvaFYbOA+F6x+5oL34+lwzIuYNRCRVMNEJKRs0uq1Mw8O/mrDDfMlKHazZ9aU15ZZ1eBUlTVVZdaXqstqy2fNhmNo2HTIQiI7i2THAoOLABSRuV8bDid2roGcuS/87vrD6Wgi6ENCJNNGQjKMlIHUpaK3+bNlP99wNhSpypnlJ5Wtsr5UC440o7zaOkp11SyYCIOm064IeLOImM0ihjv3LQKRCS4J3FsGOjr7Hqo/tR4AFvztmov6ultaYoRIhIhcVe2szTWuJckbsw8sO3MDg+IzwxqvHJyopsKaWAVMaOtgv+rLT97IOzq3nwOi7JGZ2w2NL8Xb/H1ffLIRAGQGTQ+9u3ZPJhQKUw8hqlzlOiGZhp1FJCsQ/f4dG6DozLTGm+XEI15rFTp2Ufvx4ohh+Dghpnki+rON4BFA8bjcDKD+GTvRPvzIb0GWwcMAoOms5y9b2ReNRJNkE+ociVA3bFSRc/J3b1oKxabGGq/SgYmvsiZVA0db/trBSI+R4pyIeqKH3p0LgugWJYHJTJSg4TeticjQVpAUBiDmfgDANv7iqeuGA5EWL6YMQqT8XKepPGu3WSuK7kavssYD56myJlc50Vp9NJJWMa0RZTGaXVcPAMwtMhEk4chBb/ioMxG5bTWAW2GC4oIxG++55YKBUC51jqSjRkio63rW9mfeKLa3cmXWOGXgOLOsyVVMkPj9Q5EejpqGPh2jmWebmBtAVljuSxSYDAANK0LhyOKToU4RQZZAUiRZhpyrTt/xxE7/roA3na/uyDlH1Hfd9D0orsit8arAcaqtydUenfijQ/22z0RdJ5t3NP9QhgLMBQ2b+qPtNy4EqHPViSApMoAoCjKANG/z/Z8OhfzdNiIR5xphKtF3BxSV2Y5v2OdY1je4yuV79gTSNLY8NzoOH504yG6AhhdDrYEX60ES3RLkSXWCnC8BV3/yyRcH+9M9pOuUShHZXaFzp2Vnkpuja49Lwz4TnGaV9U2u8kv7EpoPCVVC3rL3zXqog0KiCDD3plAsuqIRBFkEkFwuCZiQ+xyJ/JE31+9MqCZyDVOGjoS77pmGnck0nsdya7wZ4DCV1jFUQ4Fn94YJkZBQS3cO/3ReI0jKhJnPWxywvM/NF0RJACa7BDji1Bcue+ui4Xhn2B5pTYSTRJwjx/bPzy+qAbq2sJ1xmpOsAsfqXB7NhDXNMAmJc//+7wDITJBgPMnlqpMBVl8XjWWeg3m/hDE/+L9r1l6783B3KBGO9bYNDP5hX7M3H7nZNvr2NA3Qs49H2Sv7FtT1iq8r5ZyCqm6HNRMxS4TJwMGtYwlDIUGQPXIu44vDscxj57wOLmnrsl9fdPdAd0dnIuhN2sPnLVu09PK5C+/NeDHFOQV7r5ymP9fj0rCfBA4zwypQPmOsZtZUVRcemzutWBbzWzc7GBjcCrIkMEUorOySIAsADGDrykPe5pXbn3zi7w/G7Whb1LKbH1j56Utn3rB0vgg5Ddd2oYGaTrvPLaYBuvCmm+PkobywA5o9rl9vfCxqqZgykSPFAuctghwGjBUO1bILBBFAkeC+uNfrtdPJaFtHbya+97Mn73v6hsZLYIwC4l/tEc5TxNv3TfEyrzgeA/QchzXsU29Pv3tT54iJhBzRDrf942oQRZiQJEgCCIIgwqK7YqhT8FDzXddf8fh7r/97Lowb6TwPp1NJ0/BR4ODLRfQfr3KHr1sLa+MqmMRVH4Y0bhqocTI6YitOBjcoEkyCgeyWAJ6JB7nW1XvbvdvqIEcU4GtMgqY/ZbyIhKrlPb+IBuiywqHFAaZSG9840I4mV5FzPZVIrlsAbkkRYRJMEZgEsPnuXkxR58e/BxDrJACRATAZxrjqGDS9n0TUNZ7afWXxNOyFy8hap3dvNXA0GdgfRyNpniVUOZqJ7scFcLtczDVZ5rKseEA+fWci5m9Nhh8DBnnjXrILEkDjBUlCTNp2//anp6Fhryi9j5im2shA2bE/l7jPRiKkjuY/Hzm2HpEJDCajgGfJgL+j++N4V8tloIAgMJCZnD/kX5Fh/noiJJ/JA4OnTH/DXnofMfXuzb1lZ3s395nkswlb4rnEFVkSZUWEyS14IR5KND/76nrLf/FpoOQw4chHgK+A6FK2eImTrmvBw1OKvGIKA3TpfUTV/+5VXDsG/Gk1q6dU0u3Ou/5/I+QCB0lhsgQTkWQJLr+3uT/QfL+bbbMTfQ+BDCBK+ZjhKzKTRKiPE0fSVYzcPP2XUhGsd4rAlJaLCw74ezCrYtaHdqDvdAlkmMxYqRfgjNttfyi+xANw9v5EZg0AiIW/5JYVCeoPeDGv/fYz4Bv7L21XHt1WeeXve9J7T7K2WpYtKYmNEwghCWQjCdlIIWYaUhgIDIEwA2VNWdpQ1iUQOCUsw9LThJlOz4HOTKedaU87nQydthTmdHp4T7JlSZas1ZYty5ZlJ5GdOImzYecQnzP+nswk6OnL1Sd7bv5LdO55+X7vLu93l48xYTfXXlCAadIbLQzRAteFCqn16asu5Dj11UaL+aLlQaNVf2H6aK8uma7oyO8uANKm1xtrDDptBaogxZy64UIBVVbFfaSQkvI0ByJHFvOCQ6J6dJFALsEtbw2GskPfcQDA5ad6Q6+pxHuRSxDALcLsHyZkVTITP51mIQhhSc2ESywWq4GhPwLXRRdzNb1c2WStMZcEuzh9tBOPrFVtpKm21RkNlHcZ64jZmJIVmXxMdYVO/1JwuCTBARThTQTxJUsHw9kTTwjAmfjZb8ezSxsIxFKJH7vf75dVSZxcBiBNs8BPT7ostGPRG9j6I3BdWtHV2NCTrqux0wKW8TzgWshrmxDNeqNZk/ngHTGfkJlS8qd3aLHa5EaHXBDdAPXvpTP5zz8AEAWnAFvjoaMflHYJToBFaUVWJb+bJeXERXchihd7v40s0QLXpZVa5Ki1WZRBq5QAroXcovU29KfSUXHW1hP+4cDU5EFk3TzgJJebDjlwHNTf3xsNnVsMpM/RIcGSY7ljjwCQ7pgicbgcsOR0+xTkr1/NQI+h0lT+mVtRArpSXUR06MNqGZ+aYsR051NKM6UTHXd4hnIgt09BnpJVz+4JD+8Gh+B0XdQDL1p6sDe8fCWQlJ5zAjRMZOKPAA+OEj1yItSfmvLsfesuY6DHUKmmhAEcJyuV3mHXBWDWmjjuIaqLIDdWlXI6ZuQYit8SI4OrecZHHHuLtys99tH8ApQa9CSpEIr5rfcMJOK3fgMIx+oglj17bSh262wQXBrIOacD5uwMTwXzY0sY6DFULCyB34J8wrDrYkfcb6F5sa/migZ21Zp3GfdSG4mNe1tavbJ/8MdzoIRf59wuB4CbA+mOze2J4IP1BH9uCuP1kfzRFSByWisHCWBDR6qrpVVubo3vY6DHUNGxZPc2pD+iYl06xBAp9QGtVi3k9rIR16PhUNsa8HqLPAl5a0tzsyfY84ETJIekQU9UIXYvvN4/1rJpFgnd4pe4LhoPj+8CkRYHjiWaVR439+JNDPQYIk1sh25B+iMq1AVIsKUwPnYccm0vE265LO/dvrbCvidvlz/RPn7d3AYt01pA2LTrSG+0+7bGwseaIKk1NVh0LpRbA7Q6676JzIFWsl4o+sVfM9NjeCg3spwKEQvliFl14e6IGkAMOOT4s2g/8vwMlrL6pLdV9e3B8e6Ef+jf/1uTvokc+as5b4739/esFSRJAJ6HL7mX//ksP7qHut3zqrXZlExm2wbOEsglloQdNzUdwwcS0h/Bros8KKMt4nAaKPihfsHCwl+tHh5QRweV8MTOTzoSh16YBxrhG2HWT3oyHYd2/qtJ4ngA6Xz/xPZY/swPqGDelW31ekifRKBcyrU8B0U/vRLQIf0RTLoQa8VHROpwAK1+5iTByBKUVr9zMKXufMmdabiuuz9++L9KldRnfy2dCR97zQmcW/wqp74hEDq5GHgK5stOJhRFDihKfBfHOD6EW5oGkcKKBHPxqSL9EUy6MOgI0U6DEg/TBlYjryrxNDh/tb7fl1LkViUY2A1/n47mHtuqTb6v/tpYOH/k+zcB8MWN7SuPhvqeBBeFmP/pRMaT9sne1uAPyxs01xkKUvwBbTgvZkpgrrJQjJnqQowA7LqobJe+1kxLSHRlejFzaYutqrYYdGrlxGgrnSTUGlWxFtuA8bxc4Gku7xkJtCmtshzbDs7bxno7Nl8CPAg8JxXw5iW46pvN4diJF68FUeKLqy7bTmWP3yzSPPuSHdmA3HLgQDp4ZvXM9kdo/Z+FBiDeH8Guq1YDiwFpsMOLRlZ7aS7KSCcWqivqbr3ljF9WJfJpA8z6UV90bOMGEHg3p06Z8ZIA9Xe2h2OnV10LUMKWhb3Hs+vo/YzbR1MkUwikkvOn1R+B/0RP/dDD+yPYdVmLEf/K6WptEed79AbtS6HttNcmCTi5qIX80ylWNH6uAaDhvVw8vnErTEIuguh2uDmofyvUETv9a04tmGvlrmj+8BagyV2BdgK5nB65T5rZ/ggzxTA1eNjw/gh2XVWUaE0JIGjCbjPQfmG82H/aUNHwFXddSFalfXwfuGDeqUh/+NMFwLtdnMSJEtQ/kIlmz64QALiSAfvho5GDdMhXHg2TtVJKZ+Cda6fTH4FzNtRzqUOjBbsuM4UEQwIIjSWrqqHnd7qLkcIAyKtG4UsGOmVVQuslgYP1E6F46LMF4OQcDkmEhqW5g/kzVwKYBEEiHLzGjk9lR/cCRUioV/d+yp3L3TM7YGCl4WcvOrQatMWbXVctBVRKAEGKRtU6pImDdi62CoevLjvbOwX52svBAXDFuVB/3+v1wDtdMOef74kmcrcuaCzwbZJJS7S5bjse++J8lq8N9WqlThk49sYMNO3hiYx24Zkd6Y9g0oWECOxfdaWCuP1iHqIWzWrpPsBMhfyLjKxK/0Q9gRyu+Dzc4f9IXQu08GxvYuzDegCTCEREE2hkSy5/+g6gyZaDvTJZ/Rjs+b3A0LSHDxiUPBpLdZXmRJFowawLP3o9A91qs6ADG/SU1Vjh8BW3Nz8VzI8sAafDBLDwdLhDfnGWe87i6/1Rz9fnAEBhkMFUimZbeCgSoKfs3z6RS6dln9w5+KoEqOBBiY6fuaaOQoMgnzAMupDnQ31zDcWnI0k3zUlYkHE0qiwbG/CRq1N8B7eCSZIIiifC0e4dL7x6zO/v/pEDnCJwLoFGkl9xLhujrwB6dyKr3tKR7rofhRzPoOlOjEBUSvTIaTLrwoOmnU63VqOutwnNC+meu6rs4av/PBr1pEk5beztWQQWTpy03NxAui0dHEh+xIP6V5xIu5ph/qbR7I59QNlAcM1no4W+m5G7pYpnpO2UBA+XKh3ub9l1WSjIIfU6xA6xir7WSVQ8fLVsXVj2Ec714BeXE9h40Q33jfd5mhUluLTQFUNFiyx5vD2fH1aHEyRtPs/D9ni7Quy8/ZNFM5mw68tDyYycJpMu7PlwDgxZwob5DyvFczN3/s//KBZIeQKtSvvpWepcmaMR4Pv97Yrs7Xxsw2WNAGKBhBEEkMRiTDnYPhRJbiiUz4tF4icdRka18oHx52aSbi2r2GkzY6fJrgs31rqih0B6qjEPQT8Xa+Wjuhuyss8jpxRlcB+pi0qk/+2JYxmF3J+RPLVq2SWzCN4guFyaW5IEDuD24XyWkDGCJGqdALx7Lu9NK21ysPutSlseqyn0HCZ1OuQ0K9Vl0xw9Qreidoj7DzxrtDKM6j58sl9WLTH4fCNInNMNk5CfDbV0xGKRTH60Z93UJadODkpJ/Yej2ccbQHBJ2n83gfOp44G03Koo/humT7eylKttFuQ02XThQZOdbrWzbTyw01wA+6juJRMhb0tAUbzpHTeBKLpMDh6+czrTf2LPnnNDo/lw/nj38Kbt36U2v6zJhobngYMvPeGyJhRMH/B52+L7588c3WpEQTICIP6WTRf+fDjdSqu+IxV9NKtl33V11Z0xT0r2ynLrYzeR2png5uDF7v7ks27XdT+7bXjoeCyUPx4//OAf1+yb8uaC2iBF/LwgmeC6ntChReDkgSc0vCj+3yCqRApxi4c6ZE+gpSVxclWFLY86lJ7T1q4ZThPVhT8fTrfiZQ/cdRsv6rnNTKO6W0YVpc3TqnS+3AgETDfAU9mOU7eoyd19/3bj8HgsFg6NJj9/4I97t6nLYkwOyck5Ocnt4p2w4nAovBtcnOTieBA5ThBMnIkUXk2iZIIVp0PeTjnlG0g+OJN0K11s1XYmegfXhdAlCN2K2CHiIeh+So9nfnT5x6Fepat5EvLBNx2TQDkck6RrPrvKXVj0Aw0/WP/kLw5ls+FIVr3k9BvXXAOiJHES73BwJoBty2PZncTtiyDwwPMSONwcB+oUE8x9aLD3QIuiBJTB38xcwk7v4zSaGfdH4LpwugTnwHA7xJNuG1N/BFwc8nNhpW0Slc7AWg4k0cTBrp6+noIX50WBB5Dm3bHl48O5SC4Tix6+4b2HFqieXRIlddXjs9nMqQYwceQNkVwuCSRhipWZv+K5IzmPN6V4FJ+inzG61UwZ8azVlT3RasZ1MT0fUq9Dds4hHgLrj2DfdbXkrZhXrXel7uedEi/wcHMsPNEAYAIQ3DyAIBB73bp+x9FEONqXzyQ3/2bPChfJzkwCiPDBgczhfcA71XVRgsAVphLrX9m559HDXX2tqRafTCBvqmxjuqWsewWaqg1MDfLsuhjpVjxhx/0bkjXi34Z0uX20cI9l8Mgbqom+eyYbu7GR8G4mEDhiveoCX6G+Yevac56+9v5I29Azjz5I9goInAOeOBIO7iOmLTlcHBCZ+6vHb733UE9vOJfweMiNuM0BZfC3gAhCZ9ITmWqLjjVasOjCgiYODG6HeLG8tgK6lS7bO8fS5L4rf/L3Kp2yeDzcvQEkkoOZgNCtvENUp4tB/MMfFr09kWwf6c31J5++YcebTpM4+YZEMu83To22wMrn7v/d/vHuRKgvGiTTT80eT+ek7mDyw/8vulVf2Qo8XBf78xk0XS3INwNSkKH7Kdu0dl2R0lmgtc0nd/Y8py4I2ZuNTCwDcDhAvLSwbZ1ALoHgMgFI81ev/tWpZ7qVaF908KX933sFfn4u7B9u4G+69FvfffW9u19O9vgzfQl58KXNn6cV9Xp7EjUSJ38NZUkdjkET/kaDpc6KGAGrLhxyg16TEyCPgHkIuiXop7frauu6rNzsVQIjvrdAcME1w7EYGT0GCaB0TcVx6Zw3P747Odibibb2vPxSVzrQ8qdX12785CXyIuQSg8lP7vn47xZt+6ucMrXTPz0wghg5nc7UChrt7aTj24acZoW6imGl7BBB6VYLy9I2cxOy1YL5LrA1x8legXRb4l7Ci983FOlCF3cJXOMTj9/wdDIY6e1MtbYoSsoz0JvJ+HuG9j/w+PNzeQ6uvnEwqCLeLPtGojcwzChhlMLFo72udgoVM3KaTLqokFuJLkONnjIniNsh7j/sVtrscOXxaU2nX03gEk9fASI8mY1gGxndbhOxfteKO3+7vzseDBxQlP7MwPgzv/vw9VdICdYpwNw/d44QwMkm/pH+e7dOj27V1V4Q+6j4qb8rioUIfcKsS4utjV6Lq2XZOacv7YrMVvxiHPa7wH5+NCMTaU/+BGZd+bex0Tsvh4uK6FA5OI5ci/e1u6PNHm9u6NFNb5McHniBF0TY9s5Yp9wsB8gg4kjHPYsqXcBoUHG0Vl1oFpRz1Rm+uo+rDjUCdl1EFYOY6Y+AQ15lNBiMVsrk+3TvArtjOOuVlYDSPvh1mPvCoXBuC+bWJQBOlASRYPzLQzlP3+Y33YWBJpEnSf6y7/UPtCiyz+dt7gqGl66seAGjTa+3FTvJEkNbRmOdljlFuE5mXeyQM9ghm+YmjG5F5dlR1Qeno4+SEeHI6W8jwHACiDwn8aIJJJi3PBs8cQVAI8dzDk5wmpyw7BfxYFtzQFZamrv8pNDG0B+B/y+Zd7TYqf6WXZeRGRj8C4wd8rrp3QUmSfAzXzDt8SmBjv1z6z8ePf7eXECFM021OS94Y3Mo9H4jiCLZAyU6RAdcsjzeLqu5utLVm//LK2exQI7Py5a7pqUaMQJmXdrIU/kKi+lBbkTuAsMhf+RwPO1R5HTv0Cv7DocitxcG0HDhHQDbHkr29SwBgRCuZJRNhIcfiyfk5gDpZg7kgpvmA8wI5LWse1qacPqEXZeZHRjcDnHIK6dbqRcvRGRilu3dN+4OhY8tBLcA5YgkCBw8m+0jjLxIKHYSylcuzyVk9asvEAj1/MUcmCHI65gNzY72o7HrAhsbMPgjaNMYXOxIqQeX2bfGyOxYwBvc/GFk9P655UIOoDLy2R/PAVHN43mAldfn27tkRSYSSu75FjBJHbI0gWnTQi0y/sKkS0N246JjGgutZcoLkbkmXG7OBQu7ocaCnZG9hZQcF4EDgF3jofRukC6VJKeJZP9H8u2eAunmySU3MSCOWp2BsQ+5BjECVl2sS7qqGOwQefvY6FZDWZB/ed9pZ3vfycUg8EJ5fl0UYW82fIbcYU+uMgdYOJQPBtQJFeVAOPm8ExgEs7pqlnhaZdQhXCebLnyvo96gZ6Fb2YJ5leYkpnu1wKqjYRUmWW7N/mkBuHkoS0QTYeSzf54NJieh47ldydCIx0smDz1K36Gd4oze06ovPwLbCEhofwS7LvqK1ToDxZTxR8CbbW0GK0N/RHmdCdw3s4UCiBwM3QwEvfKEh8UnQ4m7AATBBDDvX17qG2nxeEgmmIqfeF8AdtE1YaaGpzp1tTh5zaBLI7risdSmGjvt8x9/BLxz16gDo9ZzI2MwqLwWD3pkxSe3+oN7weRwnkdLrafRNvUJ8GQ+dHZrYa3I1TsD0bSny0tCRGfi+vtEgBnDvKnmq6ZmoRLb+ho7Xl9n11Vcb7FOPWaVvrrWztof0cTg4qqsds3boMPpVlyeGkoostKsyJ15dV8j5yIwiybRJRY2rpukkunbvHWx2J2F2y/nPp72txK4UylPp3/zP0GlYqzCTx505FfaHiaLDu+PYNRV+TAd+w2uBlvxU0w14RlY+iP+t72zi22qDOP4O9atp+0YbDAwoASGgKDjWyGEAEZARIHpFjF8BqKId3qhF3IDgaAXQvxKJBpECQYvJBojEWOU53nf871+rPvoKd3abmVjuMG+IGyGXZi+NTqCDV07zmSnvza9POfiOe9z3uf/vE//JCWe7IkAJMbH4HzllDIXHzObPNk1huRPTm64Qr677m5+jiuwCy/osb/3AxBT988n6cPXUALbJIeQTD4UHLZx//reFHGbmTTI9FrJ5wTToaDI9o8pT4oPnSM958jpP7pFXktLiH3qzYv7ts1zxeU0LqzmJHW9JS81u9sr42l//fG+ACAAIsK18IIlxDRy/y/Xsg2fvWZxJloGSZF1agA0RMkAVBRvY+PN46+UlyY01Rx+9u2/mPLBUX/3+RnERU6tqmUhRL7K1Zot04gFMc9eM2O5lfNifw0iAAMECaho9Ll9V755s7L0eR72PG6adddw6Yzf291tcR/bU4tqr8n8qJsYrG78fAqxIAUjZI5erKbpHDl/Z7MOiNCCksSYwZiG1VF//+1jZx7jAcyx80R+B3ay1ePumEvI+veadFkCQAmC9Z7b64mVSD4naA4T0nZy3X3AE0AEDTSNgUG5aCqF/Z7egQ1nlieZO33k5e7uFaWk/A2fVwIFEZSgL/TpE7OJhUg+J2gSdx+kThE7WdMfrWVUVCSkLCQDAEJIUiDc1lX3x1tr1gxK1lyOjbdQyv/0RJeT8qfbdE1BBiAHfdrGJcRSJO+cmIOgpn3ffLJ7RX+3W6UMDBBbKPA8XQUIEPZ1qbf2frJ4Wlxly5toz3O57DzkK6t9HUcWn2vTE48HC/paT8wio5kiLryk/ko1f5GXkCEwZuuZgwPV3R69hYqiiAgQ/9UQAAzV7W/t2HPw2+18hNz+UF7cgGP2YX/99YqOaEwD0EIQavFpH4/ynZuTF8zcw/YeTZGSkbEsdw6hzuTq2sxXy78foP5m3eCdEQoiIiAin1/yRKuv7Hhh/BwSL9jjf9k+byBiNAQioCFiCJC6676YTkY1wiClZZJjgiAkt0stML1M4BSSoTN7admGG52RSAypFtISehoyEQCo1Bppq+/dsW71MsL5UIsZei0CIB8+a+w9OZO4LLJFG0wi3Obv3rinWuZ1Qtysftajuasv9LR6Y8j9lXjMDVkGhUo01uQzes9tef/Ls2c/O9qoyYzxmTNsgZr2kxN5+T6KsQ3BN8kEeAsqc/0nEbOfNhdvfa1dUZRYABE4qCELhYCKGI7UNlwZuH1LC0hViAg8FfTtXDnLAgJbqowdkYiPy0x9tj+1q/zis+9eDni9AQDkX0UGBKSge8Ne6tUBUGJMVgAC+tr5ZNQjDM3dyPyQZ/6g5e0icyoWHKi7pKp8pFCRq3jo+ScQ0GRRBAARQNcXLLGE2pIqDmJazIe/MMwnSw+v/flqQ1OTFxRDAYYg81SPfOYMRRE0b2zPoKSefZXzUskMcgvv2EYO510XvrP/h846T70XIUhBo5Sv8xaKhkGrtPDlG1OJFTDhTZ5Bk9453Kp+zkebNrY3RD0qAmUGoIyMSoCAWuTSxiOW6J0JJqT19M+HOu+HEjD1xKFNPXU10RpGIUAZFRGABT24ZRuxW6NZVjQuNZdTMym5z3Lfw4sPHfu10+dvEkXNkERFptHQ22XEOhSXFN4j7LYCYi4l91/gXXbs60U9bf56nTLV3XX1N8v1SnMFx6QkcXcWCsR0BKcJkv6+10+v6vF1dTV37n18M7EmwlhHoW1QlfSMrXCCQEaEAqcZTZz8ytNfVVSMnzuDWIYsZb8s215KLESWmQ9+vLNkyZIlS5Ys9gdKdsvyFx1TGEDX2nocAAAAAElFTkSuQmCC;base64,iVBORw0KGgoAAAANSUhEUgAAAyAAAAG9CAYAAADtFxLcAABUC0lEQVR42uzBgQAAAACAoP2pF6kCAAAAAAAAAAAAAAAAAAAAAAAAAAAAAAAAAAAAAAAAAAAAAAAAAAAAAAAAAAAAAAAAAAAAAAAAAAAAAAAAAAAAAAAAAAAAAAAAAAAAAAAAAAAAAAAAAAAAAAAAAAAAAAAAAAAAAAAAAAAAAAAAAAAAAAAAAAAAAAAAAAAAAAAAAAAAAAAAAAAAAAAAAAAAAAAAAAAAAAAAAAAAAAAAAAAAAAAAAAAAAAAAAAAAAAAAAAAAAAAAAAAAAAAAAAAAAAAAAAAAAAAAAAAAAAAAAAAAAAAAAAAAAAAAAAAAAAAAAAAAAAAAAAAAAAAAAAAAAAAAAAAAAAAAAAAAAAAAAAAAAAAAAAAAAAAAAAAAAAAAAAAAAAAAAAAAAAAAAAAAAAAAAABm5+5VqwjCAAwvFhZWIlZegJWVpYUEszOCpEiTxsILsAgWYm1KUZLMamNlb2tpJeIliKVYCMLZ2RAhpAiHyRzyQyAhEBLy+zzwMrcwHx8zAAAAAAAAAAAAAAAAAAAAAAAAAAAAAAAAAAAAAAAAAAAAAAAAAAAAAAAAAAAAAAAAAAAAAAAAAAAAAAAAAAAAAAAAAAAAAAAAAAAAAAAAAAAAAAAAAAAAAAAAAAAAAAAAAAAAAAAAAAAAAAAAAAAAAAAAAAAAAAAAAAAAAAAAAAAAAAAAAAAAAAAAAAAAAAAAAAAAAAAAAAAAAAAAAAAAAAAAAAAAAAAAAAAAAAAAAAAAABfO48XVW3Gpn41dPx9TXmi7/CKk4cnUu/+3GwAAgJMQl4eZkPK32rhWDmjcpvy99nL6w+huAwAAcFSTzUZI+WutHLFfIfVvwvvhwdzncq0BAAA4zGSTEVL+XSvHqx/V81M9Z+PbfzcaAACAvWIa7oWU/9bKCbcetzYq848W+zsNAABwtcXllYch5dVaOYV+xpQXYhrdbwAAgKtl+7H5eq2cQX/alD/GbpiZe12uNwAAwOUVu+FpSHmjVs66NuW1NvVf2q5/NrW0crMBAAAuj5D65ztf7J6TAaS03W7j2o/QDa988QsAABfc5GJ/XgaP/QPI/qa7TfbuJ7TNOo7j+I81jLJD6WHgKDZJn5aJs4c1dTJH1ybp0zh0ikgVkVE8SPCwgwcRDzK2g0gQ1jz5B7mYdsODbdMkqzJGkTFm/8mKiBQR6UFEhybPk5o0eVJK9vP7W5iNTQZN0yVZ93nBmzzputx6+PA8eR51RfYkXLKi9TEAAAAAAHh8ONzqaKOMjh0PkKLsXi0ue7Srdq86jFv8AgAAAAA0KOtFbhhyq6FGGRy7GyCUVytOp2ZsPs1p9f99hAEAAAAAQP29GvzzEI2P640yNqocICXZC+XtPm3Z7lUv0e8dYwAAAAAAUHuvBNZaaXzM7cFI+IfKNPAA2cp3v59tfs1l82qn3pzgBxgAAAAAADxa4rIkh6L+WOU4+GNQUc8w0hsUl3Fp5+hnyXK/e/+J5x71hhgq9R8ghWyF4jafGrL7kq/jeyMAAAAAAI+APLomOZTEapXj4xe7L2lk2wx548+XfXK6R73AyIuXf2+WPdrLNCqC9PO7dR0gpek2r/aNLaA5Twfj+N4IAAAAAEC1xHcgxJkLilfRTzQ02thDOBT1VLkzHQ5Fc7JtXrqsHhO3/hWXgtVpgJTm17iVGvBpK1a/eskWWLMwAAAAAACozKA7Ic5OqBSvoltyUGvZwZPUz5Z5knre4VbfYg8hzqiIkSKeej6kJDbqOkBK+40GSXDAr519boIfZABQEfF380ws0yZF17s7IxmLNK33SeGcbJ7KviDed8RyR80R3fzUDY5LIQEAAPYDhzdhlxU1Xc34EMNAXELFdohGyDtlnqi+6fBqZ3Zydy4xYsSlWtRf9RsgpdEIyQwEtJl+f3LEOppsZVBz4uYBx0NJc8/Yut1yJfVez3jqs54raYVBQ+iK5KTOKX2kM6wHpXD2Vmc4e5fiD5K2N71VhyiczdDrr9Qc9VXHdOZTGifvmqazJ4/OpA6zatzkBuPXOckYzcnGazknvbraY7lJarktmn2aATxpvuNthkXe1zTPR5oW+TlWK3f4ITbPu9kif40t8Q/Y99xPx28zANgfxFmHIUXdoPjuS1wVzwthFZLdifNlPi8zOKqerOQ5JYNK3EpDZFT2JFbrP0CogCgp2qRmqfN9Qc3IYM9YQ7z5xBdr0onxddkylnb2hlIuy3hqko6XLWMpnY75g3oKXWdQN8+GM0e6wvqFril9pXMqy/8rXKiCAVK+iM7NW6n0/lvzdM5F/zZsDOckVkSa4C2mWOa4KZJ9wxTLfmiM6kFjRJ+l11VjTN+keHHthTLsIu6KB/vQCj/YfJtLhgUu08hwGhbyrqb5e5NNC/eWqTTFRQdE8/kg20u3eSuNCgsNjGHqIxoZQXo/S8erVJ7i/w8DBGBfkD3a+yVnISrNrSqsCvQZn5T53KTs1bp3+z0W+r8f0wBZoON8HQdISacDyZv9vmQ/g12d1egNpb+kobHUO5aKU7w4y7a2DxB6/ZxBzXVNpA+LMx1dU9kNiotqMEBKMtEoMUVzP5iiukrx4ozFxUprF13TlxjA4+4ObzHM8X/ZOxeYKM9t769t1VLqhVI2tUgtZVOkitYi9VhrEQGp289jjHE3xhhjjDHGGGNMY4wxpsYYYzyWm4gcN0WkiECRIiIiIkUERGqIMcYYY4wxHuuGmWGY+wzj861n77ZcHHXeZ70vzsDzS/4ZLsNcOGfX98d61lq732h2549uedaIeYRhf+SN/mkdmFH/DtsCFNrYXEwV5jbGhmGK0s5iQSKR+Dd4ZGoXRTz6plfR4dULD4//JCmzOxIIpOb8Fooisj45U1+BwmF53QKS8EdyDFl8NDFIvCY+ryca5YPxcOFQJiCYE8a1IBlSosqsK1E4DBjG83oFpE84RAQEkwcSiZ/Dqxyjm7ls9EWJgEALSyAKyH4ME4wDfpX/bkokfk3fBb9wsGrStRlUBCsp+R6e5/7XaeqMvOX9KclH9EtRPHIxT16zgGC6q2XDuvfEnzCtoAjIpwWWWSBRAFU+LPv/EI7hICBTKu1bQSLxc8ZcZdtIAtLGgoHCdVZJEJAOkEgk/gnvl8CL+gKifLhSMvSrtThig49d4Wms79ffG4NBZZKzu+KTjuj2JWXqb74WAcF8dcyQDxKviM837iUIiPuLUhYAkiHh4zLrIRQQNpwE5MOztiSQSPwcPHqVRxCQx0CljT0gCEghSCQS/yMx/0EA7tSoJMoH7u/QLwGN+HsmG8u3ont43lYtN5HjtKqIpCzDloXZhjqUD9dQCQjPghzDcpC8EpSMMlEBwdwFyZAQVWpe8zHKx3ATkEnnTSEgkfg5KB/togLyl2vPaonTtMZxkSDkW5BIJP5FYva/xi3qu7AXjQErH/NBY/iIXXyuJg/N7vVcUEBjuOgk4T4PlI3chUcMT7UWEMy9f5TK6TqvAsXjDqECUgYSzYkptkWgfFiGoYA8BonE32FsFEqGRbgC0uI+RDx+NY8oIKkgkUj8B358CS/g24jy8XRRmmEWDBF8mSE+Z8dzu0awmVxg3C/pWBhKxXysiBxE+bijkYCwxBxDIkheSBSKJ0qGS1RAZhWY9oBEcz4utdRy+Rh2AvKzrRYkEj/nzRYWxeVDVED4HhDi8auNJAH5lU0CiUTiH2DFYgo2nN8lyseDr7//VxQMMYuyOsN4E7qH13McXhMLj+imYXVkZ+JR/U01BeSrHP1BkLyQz/PNs7h4CB/BOmlaARJN+VuZdR4Xj+EpIHY5wlni94xtYcspAgItbBaxApJNEBAdSCQS/yAlrSsGL9YfEeXjFhcBIEB7D92R+BoeP1cJSdcdgtcMykaVWgKCaQbJC/n8B+MaioB8WtATDRKtqx/Vw1VAMHKEs8TvGX2V7SEIiBsFJIBYAWkkCEg9SCQS3yc5vSseL9Q7ifLRSp8+RSc1Qx+Lr0X3nIRk6HfCEPL3TN2EhVm6VKyC7EXJaFaxAoLptv09U47kfXEFpOcAQUBsssdGW/5WbA1H6XAPVwGZXGGWI5wlfg+KR5mogIxufXYHqGAVQ1hArrMMkEgkvk1KWmciXqAbKfKBF/cNyw52jgMf4evMrjl4lMz0/CJE/UYtj4AlZelWonBkYO/HDYxbgx6QvmTr5oHEI5+f6KkSFxDTDZBoXf3YxaWDKCCmqHJLftQZvrzQNG3Kue6g906yQH7LE11uj4z8yR6F95sXUWFZHnHGsinijG3PR2dsxyPOWOtRQB6iaLg1EBBXRIMc4Szxf8Y0P7srXAG59qwMKFxj4cQG9PUgkUh8l0XpncvwwtxGkg/e6J3/wOf+wU3N6kry8N7cyRn6VWrsR+H9HSgYG7HhvBDzQOsxvIPz1dFuOWLwxROwHogKCE7AKgCJpqBstFMEBKscjVHl1nAgwhd7Rp6xR39YYV0R8bNtb8QZewXKx32SgJy13QGJxN9BiUYBcYsKyKhrbDdRQJaQBOQ6iweJROKbpGbq1vMLclrlQ5fry8dVcPv68sHvEV+zIzlDt1jpZDAUrSUoFPtxAWEjxiK4iNCFwnEDb7MWHtWvTszqiknI7opB2diDcSkRkAXHDBUgeY7pOEI6HqVDVEDwe1LsNOSjU+ZQLhziAmK7FVbFAkFDUECeEgSkBCQSP2dMK4tDAWHCFRBsYCcev9pBEBA33GSBIJFIfA+8CP+WIh48qRldB8APWJTZtW6ggGAydY6UzK4ts3M9j+hNPtIZnZRpWJecaTienKW/jWE8Sf3ipYB0Jh3VV+HtroVHDQkvW46YmG1Yp0RAME9B8hxx+ca54gKCOWmUs+O1rX4sowjIR2fsKZoKUqU5lFIB+bDSthskEj9nzFW2liIg0MwiiQJSRBAQuUhWIvFFFqV3HaTKB17E+9VfiVPTddsGCsjvydI9xtu85IyunXi7Lxk3vydn6p5iuHD0xTsBcePtLbzNTTxiWLvwaGe00h0iKB1PvBcQzDFjFEgGNaB3b6AIyKcF1jCQaEb0T9YDBAF5CBoT+bM9hSIgH1Tal4FE4ueMveo+RBAQC19iSBzBe4sgIHKRrETiS/ALXH5kiigfbswG8EOwYlPUJyCek9yXVwoIyoYJ04w5yDehqzEBDPeFlCgRkK9yDOtAMqj/w5ghKCC6z072NIBEUz4uMzeKC4glHzTmwzPW7RQBwZ+NAInEzxnb/KyWICBtQOFXNholwiEsINeYXCQrkfgKfGQrXnyX0eSjy4FZDn5KaoZuHkVAUDru4JSr/KQjug28Af2779TvfUHp2KJMQPTHQTKA+Hxj/UsExIa5Pbugpwy/fjDuhGnjZwXmlNmFFrkxdygoZaNQNkzCAlJu3QIag5Oy8gkCYgKJZBiA0vFYXEDceUChhcUSJ2D57XWKRDKsSMSmXLzwriMeuTLxqVLgx6RmdMYpEBBT8hF9A8rGPt58PlT7TRYe7Y5TWAG5DZLBAvIIBeQ+ikbVH5LxOUrG5z90R4LktcLH5XLZEBcQWyJozEcV9hsEAZELQiX+TwsL5vIhKiA4AWsrsf9jNUlAfmXyv/USyesm+UhPMF50t2EYIZ24qNDvR9rhgsL9rxYQfQF/r4TJXuTxvigeJgUCwr74J8qRROIHRJdZV5EE5IwpVOsKDcqHhSAgOSCR+DmjW1gCRUBGt7Ek4gjeAwQBsQDz3cmcEsmIIOn7rrBFmbrbJPnI1D1KSeuKAT/n92WLjpcKSEaXT1w8oFjUey8gmKP6JSCR+AEoGfuFBaTc2ql59aPSHk1ZRPjBWftmkEj8HJyAtYUiINDMQokVkGqCgLSCRCJ5fSzK+FcUXmw/IB67uosbzqeAn5OaqV/at5DwxQLydfa/fGKi1IJswz5lAtLtF+OQJRIUjSqCgDRqLiA/W1eSBORn23yQSPycMc3uXIKAPAUqbewRYQFhLkgkktdDSqZhFl5oPyVuN7+RmvNbKPg52DS/Bt+PC8NeJSD/72h3EPgAC3OMqUoEBNMIEokfEF1meSgqILj9PBs0hm9DJwgI/pzBJ/4bIpFQQPFoJQhIHVDoYEHEBvQtIJFIhp7UdEMCXmQbidOuGv+eqZsAfg6+l62eKzv6GygcDwYLSNKRzjjwAVJy9RNQPtwKBMTCFyqCROLDRP2om8BFQ1RA8PubNReQCnuFqIB8UGl7CBLJMADFwygqIKNb3WnE6sd8koBcZwkgkUgEIMlH31Ej4eAivsT8BwHg5yxK1+318P5cWP1YB8h/5/5fIErHnUE9ID7zlxOUj5sKBARjnAMSiQ8ztcQ6jyYg2k/AQvG4T6iAVINE4ucEtLIILh7CFZBrbB2xAX0zsQIih7JIJAJQNn1/03fUSCypOAEq8Tv//ks6382xKEOf7eH9WfDrS6AffJt7fwFZlKUrBh9hwdHuHCUCgtkGEokP83GJZRNJQEpNIaAh79WyQBQPt7CAnLXJXiyJb1DHJrx1lU0JaGKRbzayqDFNLG5sM4t9q5GFwzU2AV7Cm01sKUFA8GdYPBAY1cZyCPLxGCjcZIH4GBHwK4uBaywOWlgUtEihkUheCB4pmk+Wj3RdGvg5/BjSH9vOB8XAf0fPS1vXnEHHsB6Bj5CQo1+tUEDKQOIVM4q6g+JOdMfNzjetxD0hO3ED+vG4E8b6T0+YpoGWoBxPLzRGzSjsWT7zR9MuTMmMIrMq4hhbbA2PPWX6ZnqRad/0U+ZizA3M42nFZiOGYRyYR9NP49dPW7KnF5lTo86zsSAAof8jmyAghuhye6RIpmAmn+kJfvX+D+scLh6iAvJhpW01aAz/v1lYjT160nn74rBq++b3z9nTws7ZKyeds2+H10DoJXNoaK1rXmiNY03IBdeev15wFmCa8OPHf73g+AZUJOQqGzex1hkXVOdcG3zRlfFOnas5qM719J065vfHhUXGRaNUzHzrau/qgKvu/W82PasIaOptf7PJ/QjjwLA/c/U/GTswboxu7NVnNzHlY1vch8a2sFVvXmNRo6+ynQQBccOvLBAI/OUaayZsQK8Bb8DXiPdNhOtsN96W4M/exJhe8fhPMDV4/53Qyvx+MqhEQuYf37GxeGzqHq3y0bUb/Bx+pArfS/Vz7y1D9+TrTMPMF/3uUDps/SXEV6Z+JeYYIhQKyBOQvEgydsSf6MlFyajD5YT3MYwnblD+60f1+p4+LbCGffqjORWz/dNCc/7Mwp72mYUmC4b9Oz/+EfMhIeE4ZQ5FwVgbW2Qu4aKBYR6C4vHifIJC8slp0yogElNqXje1xGKYWvqfRL84DoKA9KX8+UQOzpm+fMRvKyyb4BWgcKynCEj4z45YUIEp51jQ++eccZPPOVaGn3PsmHzWnju5yl43+Zz9PsqGG8MG5/1q+0bQgl/Z6PfO2SPfu2BPea/GufG9C46D79U4yjA3UDCMGPafOAckBBN83iEs9EE1toh36xzLUDT2BNe5yt+tc94PrnOyd/6M688EXXJuBQ0ZX+86OP5yr+HPNPRl3IvyS6/h7T/juvd2A5sERMY1s9DAJvfmNxtRNq64DRgW0NQ/fdLhUUA85hmGi8bAiArI6NZn94DIX9qYkVABOQgvop1F4ve3YxowLgwjplH2m0hGNCgfGwny4cZpV5vAz0lMMwThe2ny8P4efP39y0fronQ0DVhEmKFfBT4CCshjBQLCEo53R8AIBjeg75mdb7yHt474fJSM/jnRF08Cgp8/ACKzTpr2zyo0NX5aaDJg2ODMxAwWEMx+8JLpJ21TYk/1fIvS0Y5hKCGYPtkQEJD/5LS5OLGBjRbv7TBnoIAwlA/GE/2SvC4B+fCMI+bVE7CsGQQBcUwvFa8ohZ2zzguvsnegaBgxzENQNF6S89Z5oDKh5x17sLLhxjBP4eLxEgFxcHkBL8GKSeK7F50ZmMbgi04Dhv2Zur54FJA6113QiAn1vYtROtiANPRl3AuCAsLe/k/cbze6UoFA4NXexW9deVb51hW3C8MCfo8vCghWQMqBQjOb8hdaA/rq545UXWPr8XtNGKZJrrHj0MD8vm9WIhEZM9shKB+OVB+62BYlMftfk/C93PSwQPH2oqzOsFcfX+s6MPAYlj4LfAQUkDLvBQRzTL8GRjDx+d23UD4Yj1IBwftUAgF+8YkC4vr0ZJ9weCMgn/5o2gMvYebJ3wJnnurZEPujqTm2yMR4uHyoLCD8tkRYQEqt9T4uIE/BCyLO2BpEBeTDSutNIBBe5dgR3icbigUk+Lz6x5BCLzhquGgICshNUMBfL/YuQflgPMEYJQLCE3zJtRhU5u1LLHTCZdcTioAENrh3gyDYwzH/rSu9zVw6/oivCwhOwNoLFFrZ0r/QZGDm75W7SSgjfJu6DsOGIA3Aj3VJJCOF1MO6cOFjV2ldy8HPSc3qjnjB8bPWr783Bnu7pHBABSSzqwN8hIRsw1ZlAtLtE5vcCZD6f3jlQ1hAThj3AYG4AvNMFBCmXEB6doIHPj1lmobSkT2jyGTEsFiMdgLyZ9aCANEllqe+LCCYYi8nYHUSKiBFRAEpJAjIA9AAlIxHwgJS4ywChaBsdIgKCKZa7X4tlI86DBMWkMbeamBsFCilgQW81eg+iLLhxjB/EhCcgLWCOIJ3F0FAHHCVheHtYYwNw4Y015nPDLGRSDQHR82uFFsyqCsBPwerN7H4Xh57eH91qYd+CwQvSfyfnpCBAqJzf3mwcxz4AAuyjfGKBCTXcBNGKLPzzbFcPAQFBGP6htbzYV4jJCCF5u3Qj9hCU+KMH83VXDr6MmQC0jm7igUqko9TPSFcPnxZQCLOeNH/UW6ZxKVDWEDOWnfQBMTeISwg1fYqUJmgChaEfR5MVEDerXXtBIVgn8daYQG5hKJwyR6t3tEr124uH6ICMv6X3ofjLymfnsR7RVA+OjCMy4a/CQgKQDQQGHWNFRMExAaE/hGVshIkkpEAjpXdITbxSr8Z/BgUhbn4PnQejl2V8cZygce70ycg/LYrBQio+Vd9lA+L9xUQgxuXGI68iTAI9n6sJgnISVMMEPiswHxQREBmFJq2AMIb1lE82mbg13hek4CwaafNq5U1oNsSfF5AfvKm/8OeShGQD8/aF1MmGqF82EQFZPI5235QmfcvuOZTBCSktnepSMM7CshDUQHBXpA0deTDOQfFw0UQEFvgZWecwJGrKdgvco/Lh58KiI3//zJxAtZtLiDgv7kNEslIAC+6d4stG9TtAT8FX3sq3+nx/CQv3fF/lLJRgkKT119AkrJ85/eD8tGgQEDw1pgKI5DP83sOEATEQWnC5swq7KkREBD82JyHt00YNgPzugUEU6Pw+NVmHxeQJ+AFH/1s/ZYiIJPLreEgSFiVI4bLh/gRLMcqUJlJNc7NFAGZhFOsQICQi67twgJyyWWi9sIENbCgCZd7H3DxEBUQvM96gWNX4wIb3bcCG3uZHwvIDaCAI6ZRQFx+LiA880EiGe7gMaSNggLyCI8p+V3DVErGv5ctOp57P+ldB4kVlfV9AoLBY1zgIyTkdO9XJiCGfTACQemoFhcQY4cKE7AeKxeQvviQgBhAAVNPW3J8XECKvWxALxAXELsBCEyudKykCMiks45poDK4ZySHICAmECSkko3jU7AEBYR/bxMQmHDZWcKlQ1hAfunNBQFQPCowzK8FpNmdDxSus1koIMzvBeQ6ywWJZLjz+1EkJpjq2bn+s/X893HDbg/b27+lN7N3xfQXEIxRoJqi0SQs/WIlAoKphxEISscjUQHBjwuoO0e4fAwTAWExxd7/9TqmxNzoywLyt3LLRu8a0O0dhApIIxAIP2vbSxAQx2w+7lZl3quxNxMEpBUIvFvrOCAqIBMvue4Iy8cl52YuHOIC4u6AFuXjWHHS1SouHv4uIKNa2XZiA/raYSEgbWzE9mJKRhBcIPqOIwkkXVf83Xe+caH9CvnY4XGHSbpug3oy19XZT0DYojTDLCCg5o4TFBC3AgGxJH7nP2KpBrOx74VLB0FASBL72UlTwnASkGnFPfPBS1A8On1ZQD6qfHVjMj9+F/GzzSYqIB9UWrNoAmIvJwjITdAAXDhoEBWQ0AvO47Tt6iwUxcMmIiA8Ey+6kkAh4xocsRPrXTaCgBgmNrIIke3uKB1PhoOAjG5mqcQG9EPDREDccFOO5JWMAFL6FvAJJTWjy6dHt6JkHPK0w4RPAAMVwfG7VX0Cgsno8plGfRSQW94LCCa3Ow5GEHH5PfPFBQRz0phKa0A3bRlOAhJz2rLUu90n5klcPHxYQJ6AF/AlhVw4hCsgZ+0biQJyT1RAcFt6IahMWJVtCpcP4QpIDX0zOYpHnqiAYCoUyVYtC8SpV3cwTEhAcNlg4C+9i0GAtxvdO7h0DAcBgetsErEBvXaYCAjfRzINJJLhDgrEAX5RTpMQ/X7wMfgRKHxtxz28XgtvRFdddLL0O/sLSFJGVxH4CAnZ+lwlAoLZAiOIz/ONmykC8lmeJYzY/5E7nATkk2LTN941oJtTfFxAisELPqqwfkMRkA+rrHOF5aOUBaCAuIUrILjAEFRm0gX7EoqA4AjeJCASUmOPRvlwCwqIe2Kt98cIJ17qzePyISwgl917QIQWFoDC8XRYCEjzs05AiALyeIgFxI15hLmNuYl5qmIfyDyQSIY7fJEeUUD6eil8BD5KF19TmYfXaUhO080FDUhNNyT0FxDMQ/ARFuQY1igTEL3f73lR2P+RIyogn53o0QGRTwtMrcNJQGJKvKuAfFJqTkHhKBuc6OdiNREExBJVbi37m9KcsZZFlluWgBegaOyjCEgUYfLSlHPOOBQQJiog2Cy+GFQGxWMnRUCwohAKKvDORVeloIDwzw96JR+Xe7/h4kEQkDrR0bO4qHA1Fw4VBeQxisZxzKYxzSyej/WFJhYEg7nGJqD8BL/ZxKJHX2HzxjSxtWNb3IdQNp4SKiANxP6PYC4fGgvIYxSDfHz/6zEzocFDvw5WcfB7GeTnameLQSIZ7vBFegLCYfK8H0S3Hl4zy3AJIB6vqvfw+h6jFEwDjfji+0cBKCCOfgLCEjN14eADzD/aHamwAvIIRhAoHM0EAWlQYQKW6TULiA3jVktAppaYEtXcKI3iYSEISANoTMQZa6WwgFTa7gOBD87a1lEEZPJ5a7jqAnLeUUQQkKegEigW80UFBGMIe8VSzYn19kjs+zASBOTh+AYWAoKgbNSqISBvNblvvtXUuxKIwwhQNu6JV0DcWUChlSVqJCBPMYcx8QqFqJD4vEtBIhkJ4MX5HUWb0NO71mJj9yr82DW4sTs1k9RbQZepdF27h9d8b3GaIQI0JiVL19ZfQFKO6L4BHwHH8T5RICBsfq5+CowQUDgMogIyu8CURZyAFcnFYygFhC8snF5k2R1bbErkE7j+aKSeXmSeNf2UpYkoIBhLHKjEJz/ZoyhHsPDIVQZoDMrGA2EBqbBWAgEUi8MEATEAooGA3BIVkJALznpQERSQZkEBwYlYzvUvW3qIE7NaUUCYoIDYJvJlg4JMwAoEyoabKiCYnL6/5BPAPhiUDbd4BYRtJArIFlUF5Bprw9uVILrfqY0tIR7BSgCJZCSAjeh5igQkQ78TELxd7WG0rUOgx4JM6mFduGeR6upITn8aOkS/x7Q+AcEc0WWAj4CyUa5AQPBz/SoYAXz2T8MULhyiAoIN7BuAwKyCnmVDJCB3Zpwy7ZleaIyClzDzR2s4UUDcUys7x4FKfFxmXUHqASm3rQcNmYp7J7hsiArIB3h8CwiEV9prCQLSCGqDF+YoIA5CBSQDVOTdi47lYgKCqXfdgheA4nEYwwgCsh4IvNXY+w2XDYqA4MdZoBJjrrK5lB4Q/vPECVjHVRKQNkwSULnGEokCNKIGwUhGMPzolLJFhPrKvvGz+k2eGr2/ztTPhyEiJa07Ep/z/vOipGtKwRGroABiBWTFwAqI/gb4CCgY2xQJSK4hC0YAcT/0LKUJiHEuEEDh2K2hgDhmFJnzZxQpq0igeOjEBcRyD1QkusyyhyIg2D8yBzTkwzPWueICgsEGduIErMfCAlJlz1a9+lHtiEUBYYQKyAZQGRSPO0ICgsGvz39+34drMRcPUQHBFAKRwCu9x0kC0tjbymVRRQHZQBEQwHHCxAb0VqKAPIZrbCWoxTW2hiQgv7IRcwJBMsLhi/QU9oB0DjrCtdvDfYwpmdrvwvg6rTMOj1099bQokfdlwBDCKy0DKiBZeldi9r/GAQH1BMQ4R4mAYDpgBBCf372LIiD/9aNuAq0CYizRQEB0WPHYz8fcikyPQ/FwiQrItNOWclARbEovJwiIe+ZJbefpf1Rh30gRkIgqR4ywfFxgwVw+RAVkcrV9owYCspoiIO+dd85VXUAuOTcSBKQM+vE27hhB6XgiLiDum/2XDRL6Px7QBETdIz5jsIeDICAPgAJjo1A8TAQBKQLeWK8mbWw/QUBMIJGMJLhUKJEQLi0Dx/l62LeBYrA4vTNauwWDhgQuOh52kxS9ri3tKB4P+gkIS8rqTgIfgP8+UDgsCgTE/WVep0/Ik5bE5xmLCQJyHxBaBaTnjooC8hCzeebJ3wJBkE+KbFMoR7BwAtYeUJHoUvNdgoDcBY35sMKaRRAQBz9jTtiAnkAQEIx1ngYCcoAiIMF8IpjanGdjg+scT0QEBOMKbmDhfwxEmHjZVcelQ1BADBMvsUggMr6JRXPREBeQ3iZQGRSNBmEBaX5WCRRaWBQXD2EBuc7iQW3aWDWp/0QiGUmkZHRVKRAQjxOvFnnqJcnUPcJekSnqHxv79/hg2/PHrrqyX+d2dlxAWNhPQDCG3eAjoHA0KhAQjG/Ik5bE/2C8LSog+PVKIPBFKQuYdbLHrYKA6GYU9eyIyGcBQCT2R8tSUg9IsXU5kOnbcYHS4SYISDloDIpGo7CAVNhvAIEPquybKQISUcGCNBCQaoKAPACNePeia5eggPBekH2AoGDs5sIhKCDuCZd7l4AK4NLCDRQBebPRvVEDAdGJCQim2b2feLG/nCAg2mwdb2MPCRWQApBIRhK8sVzhMax8j8v/Mj3u37ibmvNbKKjEonT9mucncGHSuw7Ca4b3xPQXEEwt+AgLjnYfUCIgmD0wjJleysaigDgEBQRj3AcE4k50x6GAMHEBMVs+LTQfnF2qXp/TtFPmnRQBiT3dHQkqMfUnSzxpEWG5bc8QCIhOXEBsBSQBqbTnEATkgUYTsB4KC0iNqwo0YuI5FoQCYhIUkM6gi64ElA2XqIDg9/aCSuDukFxxAcG0sDBQEf54pEWErewbYr/FHoKA3NNgEMME4hQun9mpJpEogLZIT6GA3H3hEsBMXa2H+7fzHR1ABEcAb/EweYtnO/gAyen6mYMExMjFDHyAr47qlygTEN+RJy2Yk2eYiQLCxI9gmb4BAigf6ygC4mGiFRkcxVtEEBALqFh9/LjMvI4iILhQcDloSHiVNYyLhqiA4PGt7bQdIPZmYQGptleByrxTxyZw+RCvgDj2g4aggKQJCQgGR+7auGyICMi4y721av7v4u1fettEBQS/3gEq82YLS6UIyNirbBqxAb2MICAVGlQ/5hMFZAlIJCMJ3rDNR+gqkZAXVTX+O/f/AvH7zR7G9zYk5j8IEO/50O/w8DrcOO1qHfgI/PgXyoexT0AwR/UzwQfAhYRBKB1ubwVk/jGDz8iTFnz+g3ENSUBOmmKAwGeFPYcJAtIJGoCLCW8RBKRN3QlY5jRSBaTCHqlt/4d9sbiAYCrtKcQJWAZRAZl8zrYfVCb0vGseRUBCLjhWayogDdZwlA+XoIAwMQFx9l82SAd7hlBAbKICEtDozgWVGdvMdhAExEGdxoXScVdYQK6zvaA219lmkoC0sgiQSEYaeDHfpkhA0rqWwwtIPtITjPe57WEvR1Xid2y0wKjgNA+P5UjJ7FoBPkYKVoD6CwiO490EPgJKx20FAsLjE/KkTf9H90GCgDj48j5aBcRYJywgRaZ6LQYVoHQ4xAXEdBxUBIWjjiAgXlRjqMevrDsoAhJRbZ4EgoT9bA3n4iF+BMuxSnUBqXZuoggIH+ELGvPOJWfhEAqIY8IlZzyoyNuXnTNRQJiogAQ2qd//Mfaqu1BYQFqf3SQ2oAegdLiFBQRH72pQAckhCIgF2PD9o59E8tJFeooEBCdfvVRosjrD8H4PPIhDobeN4vxIF/5MsYfnN+Hj+GSTNMrHnv4CgikEHwEXDB5XIiBf5fqOPGlQAakRFxBjBxBB+XhKEJAMUBnckB7LpUNQQPBrpq0qC8hTgoC0gsZ8VGErJAhIJxBA2VhCEZBJZx3T1BcQezZBQFxROK1KcwGpc8QOkYDg99TfafJ2Y+9akoD8wuLVF5BnHaICMqbVXUi82I/n0iEsIO0sWgMBaSYISDtIJCORlHTdCkUCkqlrhVeQlNkdiaLyxNO0KhiI56Nc6boaT+N9+Y4R8FGwKpMySEAegI+QcNSwVomA4G0RDFM+/6H7MaECUgAEPvvBFMLlQ1xAetaDyqBwrKIIyNQSUyKoRFSpKYQLh7iA2I5rLyDWm8ICUmGrp21Ad+wgCIiDD2DQQECaRAUEFxDeBgUQJaRWcwGpdxYCor6AuNIIAuKGX1We+IRVYBQQh3gFhO0gNqCvIwiIDbQ4YtzGjHIClkQisEhPYSO6w5tlfylZ+li8r8FDBWUvvIDENEMQikazh+d8mHykMxp8GL58EAXE1U9AWFJOVxj4AInZxiglAvLlMYPPyJOazC/qDsIKCCMIyLckASkwp1AE5NMi4xwN+j8OUASES4OK/R9JFAHBBvQtoCH8+B1WQBzCAlJpT6P1fzgKCQJyU6MJWDpCBaQEhoiJF11JWgrI+Muum2FVLFAbAemtJwjIXVAZ3kCOAsJEBQQnYC0GAqNaWRpBQDpAbbB/g9iAvgMkkpFK35Ep74KN5fO97IuYi/e3eKhmbPdwAT8Jv9fh4fnupB7WhYMfkJzZ1dFfQFBIVoKPkJDT/cRbAeH5wkfkSU0+/6cpgSIgcSeNqbQFhMZtBAFxTy9Vf8P+9GJzlbCAlJifgIpMLbNuI1VASm0JoCFRP5mmoYAwMQHBVNrW0yog9g5RAZl8zlEIKjP5vDWci4ewgNS4dsMQEnzJdUMjATFMrNdu+AHKx1NxAXlWprqANLFVFAGBayyc1IDeyuoJAlKggYAsIwnIdbYUJJKRCu/PUCggO8FLUrP0iz3t78DN5TmLMv4VxSsHi9I7l/Eqh4fnauON7eAnJGfqs/sLCApYGvgIKB4VSgQEFxL6jDypuIBwC6kCUmiZBARmFfTkEwTkPmgACsdDUQGZdtpcCyqCQpFHEZCYM9r+tyLijHUVRUA+OGuJpxx7QemwCVdAqhw7QGUmnbcvpghIaK1jOQwh71zqXaWFgIyv79XsfYy7wkK4fIgKSMAV924NGtAPEATEAERQOJ4KC8g1DfZttLFdJAFpZ5EgkYxU+CI9ZQLSVaWwP2JF3x4PL5Opb/h7pm4C+BF47Gz1wAqIwWeay1A8tisTEIPPyJN6/R89uQQB0anQgN4uKiD4cQWozNS8znFcOEQFJKbEfEjlBvR2goA8Ao356IxlP0FA3O/Vih/RQYGI4dIhKiBcFtQXEMcOkoCcF6gaUMCz/+/U9d5XWUD2gYa8fdmVRBGQwCvqy9HY5mdVBAFpIvZ/hHLhIFRAUkFtrrESOQFLIiEs0lPYB6JTXmVRJDntfHcI+BlJRwxT+gsIxsWb6sEHWHBMN1eRgOT4jjypOAGrlSAgDUCA71ZB2bCICsiMQtM+UJnY4p55FAHBrAW1wAl5KBsWUQH5+CdbtfYCYq0SFRD83j0gMLnSsZIiIPy4FKgMjtAtJAiIwMhkOkF1zi0qCkg9lxpNBaTBvY1UAWlikRpMwHooKiBvtLqzicedUkgCcpWFaVABuUM4fnUDJJKRDL84wot+o6IqSFpXjMDI3z1eVli2gJ+C0vF4wDGsLEMi+AB/z2RjsQ/E5q2AYFyzfUSeVBQQo7CAFJiygMDMwp5oLh7CAnLStBJUZtopy0aCgODnllmgEp/8ZI/isiFcASm3HhwCAXkoXgGxl9Ma0G17CQJiAEQDAblJEJB2eA0EXXSuU0dAFCwbJAlIbx5BQEyq/3X9VzaBy4eogIxpZZuIArKdICA6UJt7bCw+rotQAfGZcf0SCQFyI3othinIBpGN4Z62pXtoUm/nG9fBD0nK1JcMmISVpd8FPgLKR5P3AoLJ8Q15UoM5x7sjuHyICkhcfs8G2gQs00qSgJzqiVG/Ad2SRRAQV0Q+C1Cv/8O6giQgZbbVoCG4r2ICCggTFZAplbY9xAb0CoKANILaYE8KSoeDICB5IABRPmaheFhUEBDX+HrXPBgCUDzaxAWktxVUZvRVNl9cQDCtbB4QGHWN5RMEpFGDBvQ4Uv/HNbYTJJKRzqLMgdUJLyQhHwRIzdCv8vI5jLw5Hp9npT/1giRnGbYOOoZVAz5CwjH9QSUC8lWu78gTlfi8nmXiAoI5aZxDnIC1lyAgnjew0xvQGwkCcgdUJLrMsociIJGl5ljQEBzxO09cQDCV1hVAAIXjnrCAVNmzNej/mMalQ1RAQmrs22EIGXeeheAywocqNaHfhaGAsVGBv/SaRAUkoNGdCyozptm9iSIgKK5BxAb0GwQBydLg+NVakoDwCVoSyUiHL9JTWAG5B0rpG7fLFMaBqUUh2YwTuKaAD5Oc3RU/8AiW3vDdd77RZLbgmH6pIgE51l0Nw4Q5P3TvogjIl9iwDQRmFfZUEASkQ6MJWDqCgJSAikwttZQTBMTlxZI94gQsyyaKgGAFI0pYPkpZAAqHW1RAJlfbN2qw/+MbioCE1tpTYKhAeUf5aFBzDwhOvloKGjOxnkVy8SAcwdoCKvPmVXeOqICMaXn2kDpEAGXDQhCQjRo0oB8mCUgLiwKJZKSz7GDnOKWTqvgSQ8F+E0ZLVwdfaJia0RkHPsbsXDYaxcPSX0ISM/Sx4APwkcZKBARjAB+RJyooHiUEAbmvwgSs++IC0lMAKjO12BLGZUNcQCy71J2AZb4rKCDYgG69CYjGG9CzCQJCarj+oNIZz4VD/AiWdZ4GArKfVAG5YJkEQwTKRxaGqSkguPujCTQmsKF3OUVAAhpZgvoC0ttMqIBUA4V2Fs1lQ1hArrN5oDbXWR1BQGxQOjz+fZVIyPALe4UisFxkUpSHx3qMOzO28Z0hvMqBx8Fq8dbh5et4xHeKJGfoFvNGa/ABUDoaBo7j1W8EHwEb0e8oEBD25f/qpsEwAKXjjqiA4MeVQGDmyd8CUTrc4gJi/hZUZnqROZUiINg/sgzI9P2FH0XDTaiAFILGoHw0iQrIlJ9tbUDgg7O2dRQBiahgQRoISKWogIRecOhgiHi3zrmWy4fqAoIZf1nbPpDAX9y7KQIy/hIL1mAHiEFcQNwHgMAbbWwlSUA6WJAGR7CeEASkAyQSyZ+jcrOV7erQHQaFpKR3rR30OE8WZXWGeazIYP8HTsQqwvvovJuepTPhbRl/DsoCQ3qlQb9/UB9IAfgICUcNed4LCCa322fkSZQoFFMUD5ewgBQY9wEB3j/CpUNQQPD75lT1R/Cav6UISEyxLQJUYupPlnguGsIVkHLrjiEQEINwBaTSlkcSkCr7YYKAPNRoAtYD4QpIrb0RhoDgOudcFBCHNgKCueSq1LgBvYwgII9AZQKa2RQUECYqIG+0sNXEBvS9BAF5CGrzKwvhj01IEUgkEgTB/orVCo9DtYJCUCrKB0hD+qtH7iZ+x0Z/ndGZmJquS8Ofue/la3NjGvH5tvON6zCELDyiXzJoEtZ98BEW5HTvUCIgeB+fkSdR4v9pmMXFQ7wCYlpJPH61gSIgn+FxKQ36PwqEBeSU2QQqMrXMvI4iIH8rsyzWtAH9Z2s4lw/hCkilfSutAmKvFRaQansVqMxfG9g4LhziR7CcWaAx+BonBV90PUIJYZoJCGbcJcc07QTEdUdUQAKuPKsGlXmzqXcpRUDGtrBYUgN6K6sgCEiVBtWPJKKA7ACJRDLweJSCOL74/lEAeAlfLog/Y+kvCbwpXWDjeOyi9K5d+PNtCl7rHTzWdXBRln4e70MBDZl/tDsIxcPdT0CYwPvUhK9y9AcVCUiu4R74OXPyjGtpAkIbgfvZSVOWsICcNOlAA2KLzDfEKyCWZlCRmDJzGkFA8D7WMNCQyHLLEoqAYAUkkSggj8UEBHPOtl/941fOuRQBCb3g3ARa8isbjeLRhGEaCwjepzcPtOA8G4vS4RKugDS5D2hw/GoXQUBccJt2RHpUG7svLCDX2QENBGQHUUCSQCKR9MH7MZRISGq6IQG8JDVdv9RDBYXE12mdk3C070Z8rGqMzcvelU68zcfb5amHfgvUqA/kdn8BWZhpWAGvmcTcnhBsQn+sREB4uFCBH/P5D92HCAJCHYGLAtLTQKiANGqxeBRFwyYqIDGnTbmqCkippY4gIDrQmMgztp0UAYkqNYWAIOEXWDAKCBM/guVYBSrzfo1zI0lALmrbOxFc6zzOxWMoBATjCm5k4eovIHTO4tIhLCCNvatVF5AmdzFBQG4BhZssEI9guQkVkFUaCEgZSUA6mF//uyqRaCEgJYoEJKNrp4LHPj7g57GKASrCZQLHCa/Axy7AdHr5HmyYai4xXGZAJVA6jg8SkMNAgHrBmXi0OyXhmKHD+ylYfZn3v4ZZ4MegdNSKC4ixAxCigHSKCggmC1SGb2XnoiFeATFtBhVByXgqLiDWBtCYiAprEUFAnhA3oCdQBCS82hELaoLTvLD/o5AiIEEN2l14vVPr3Bx80cmGTkDw88uuQxr0f6yhCMjbV9hMDSogt0UFZEyLu5i48G8OCggTFpAWFquBgDwkCMhdkEgkz0nCVgxTkGoFW9CfDpQXfayWF928OoPjeg/xnSUK3k87Nr7vSk7Xz6RtRDes6y8gmDYYIr74pzH4q6P6JSgc+1A46jEmDOMREZAvj3XHgx+D0vFYVEDwtoAkH3mWMBQQJiogMwpNG9XfgG5aSRKQElMCqASvDkxFyRAVkL+VmTO0b0C33RIVEJyAVUtsQN9MEBCHmvtR3rtgT8EFhB0YRhCQR9pVPlzzUD4cQy0gOJLXpLZUYf/HIYKAeDjuRN7/8S2XD/EKCG3j9xutbANBQFT/fcB1No14/Oo4SCSSgSSnd8UrFBCvFu3x3otBP3cfhpCUtO5ILlcoJHV46/LyvT3EyVq5qZn6pf/4jo1VJnLGqEEC4vrv3P8L1KjnJDIh27B2QbYhY8FRww2cdOXGsP7SIS4gmFzfXv74Khnj0kE4grUdCMTlGxeTBKSgZ676DeimvRQBmV5qDFZvA7o5iSIgeARrg9Z7fVA8HOIVEPshkoBU2nMIAnITVCC0yjV30nl7IxcPHpKA1DqqQQNCLlrCgi86nnD5GHoBwa81uHaoXAGpIQjILXW3n/eu4+JBERAUiKXE/o8sgoDc0qD6sYskINfYGpBIJM//g9vXKO5dvv7+1bsieAP4wN4RXRq8JlJzfgvF51+/KFNf6e17RRExLMrSFSdn6FclphmCvOsD0T3tExDMEUMCEPl7pm7CgiO6FBSNPQuO6mvw1oBh/ZOAERaQYbaMMD7fkEgTkO5UIDCroOdbioD814+6CeqP4LWUiwpITLH5kboTsKzbKAKCDehzQEMifzbHcvEgVEDWEhvQm0QFJKzKVkSqeJyzp+Bxq9pJ1X3iQRWQkFrHIVCZ8BYWgNLRjmFEATGJCgjmCW8cV1FAHhIEpFC1ykezewtKh5sqIIAjfIEASkYDQUCKQU0YG4WPeZskIL8yv/2jnkSiKXhh3qCsD+TVi/bwAv7uAGnBsbrgA/CqxKL0zmX4mvJwZO/TFwsIJvPPuDD1yZldWxenGSJeMq2rrb+ALMwy7Fa+U6QzOvGoYW1itj4XcwvjxrAFPEd5DExLAfky11AOfgwKx1aSgBTSNjZ/VtBTKCwgP5ofgAbEnjLfE66AnDZXqysgljyCgLjxiNE4bSdg2VaLCwim0jKLeATLKFwBOWvbLzJB6v1zjjXvVzs6uHjwqCkgOAFrLajMuxed+Vw6iAKyB7ObICBsfINTlWpcyFU2jguHsIA0uXeoMYULj13l9EkHSUCMQATlQycsINfYTpWPX60gHr+6CRKJ5IUCsl+RgGS+fNFealZXzOBjW7zSAj4GP0qGR7TmYXM8r9bc8SAgHpOcqbuJsrGfH1/rLzYoH0/6Cwjm4cumbvHvLTxqSMA9IjtRMqownRg2OF4IiAlvb6JsOMgC8r/6xeDH4ASs4wQB0QFCExBjh3gFxFwFKvNFKQtAAXETjmAdBBVB+WgXFxDzPdCYiDPWAwQBcUU0sAAQ5MOztgguH6ICEn7OsQO8JOSCZVLYeccOFI9HGMajhYCEXHDGgYrgro/tKCCMKCBlgExsYkG8CiIqIJi7alSLA39xxlMEBD9fBgQCmlhkQFNvGwoIU0lAmoHCVRbG5UNYQK6zpSqOeA6kVj8w+0EikbxwI/oShZOw7r9CaHYMur9fbADlCwxRPL7FNGHcLxaQvvwuHdUoJPf6ekAGpDU5Uz+fj7ZNzeqOWJilX43CkYW5gXFh2L/TJxveCMjDxGxDUcJR/eaFxwwzeQM+/4cwIae7lSYg3a3g58z5wdhGEJAGIMDH92IFxCEqILMKTfs1OH4VjwLCxAQEc9q8Ws2JSigfFkIFpBw0BqWimiAgd4BAeJV1OUVAMGUvf28sKOycbf2kc/b696vtbgzj4qGhgLi5kKlX+XAloXy4iAJyI6yKBcLv4NcPEQSEja/vXU4fwetaTBMQNgtEKGWjUDq2vdnktuAtU0tA3mhx5wKB0W0slSQgrSxCxd6PQgwjpZXFgUQi8cz/w4tjviRQgYS8dNFeaqaudVD/xzfgZyT+T09IckbXWhSOcozlJQLyXJIG50hfFg6KFwLiQtloT8zWYcO5bmVSTleYpwu7r4525xCPYFkSsrtiwM9B4TCJC4gpAwh8esI0DQWEiQoILiFcBSoz45R5HUVApp4yzwSV+OQnexSXD1EBiS6z7AWNQel4JCog2P9RQuv/sO2iCQim2nZgcrU9ml/4/7XaPGnyeetc/Hwb35D+/jm7A4Oy0ReNBeQuqERQvW1KyEVnJ5cPgoA8freehQ3eoI7iYRMVEEwbEBnX0LuSJCBXWbzyKVe9i1E4OlA+GI+aAjKmhW0hHr/6liAgRlAD7DPCx8rDMHn8SiLRGBSF20oEJCVdtwI8wMVkkMw4UnL1E8CP4RvdUzL1S1KydLkoIE80FhADVjuqE48YdidmGRL5Ma1XDRFIONpdROwBsXx1rNvvt7RiA3kkFw5hASno2UDcgL6KIiBcYFQXkCJzGkFAXGqOdY05bV1BEBCMdYW21Q9DEJcOQgVkF7EB/RCG0RYRvjjvY4ZYQMrUajp/t855g4sHQUBs715yxoMH3qnvPU4QEDau3pVAq4D0riMJyBX3Pm/7fd662rvizabepj/EQwMBwbAEooAUEASkmdxwfo0t4+KAYeRcY9tAIpG8nNTMvqWBXuYweIA3qA+6Xy0MMxYe0U3DI1p7UUpukAUEj3AtzDaUYZVj68Kj3XG8L8X7CVlsLB7HqiA2oRu+ytHPg2HAnPye5SQBOWmcAwTiCnr2EwTE8w4HegN6HUFAboGKRJdY9lAE5G+l9ihNqx8/2+ZTBARH6C6jjeC15QwzAVGlYhVS5yzh0kERkOBLvS+swk+8ZI9EAXGJCgh+rYooIGsoAoJxBDa6N3ucytXAxmG1YwnKRVpAk/sJpk86NBIQaGHBxBG8HQQBeYopgOtsN+Yb4Mefmlko8F4OT/B9Ie0skt8Xcwh/9j6GqRSj3H4ukXjViN61TqGAtL2gklI9sJm7awsMY1JwJ0fyEcNhFA+HFwLiSDyib03C+2OWJ6c/DQVB+GhglI8m4hSsJwm5+lgYJnyeZ9xNEZAv8zrHEUfwVokKCPZ/3NRoAtYTgoAUgYpMLbGUEwTEovV46Mhyy2aKgODnEUQBKRhOAvLX846VKvR97OLCQRIQfAx4Be9ccpYICwhmXIP4BvrAht6lNAH5sxJixNubAVee1QZc6W0OuOJ+iHFx6eiL5gLyGChgHx0KiEOBgCiJG2PAPPhdVGwYplmusX0gkUi8a8BWKCCDF+3x41fj8Ou2/vfDC+0RMf8axWPNSwTkcVK2YR3//QCJvmNufOoVcQzvfb7QEIYRn//QU0YQkPtABOXjIaECUgQqE32qJ4TLh6iATD9t3qmugJjvEgSkDTQm8owthyAgJiASftaWO5wEJKTGHk2ceJX6bq3TTRMQZwl4QdBl50yKgIy/3FsAgoz/xTWfICAeE9AvQywgNUDhGpvGxcMrAfHt6DDBIJFIvKNvL4aXyRy4aI/3hQy6z4hqwELZuPOcgGQa2r/KNIWASiTgJC2UjnukPSC5hptf5XZOgmEGysZdgoBUAAG+QJDLh7iA9OwAlZleZEqkCMgnxZYloBLhpSwAKyBuUQHBDejHQWNQOJoJAtIMiOwB+TM2KBWvWIVcskejfBgwTFBA8GNXO+8fAS9BAakhCIjrnTqxZXPjrrCQ4SMg7kNA4I1rbNWwEJDrbANIJBLvwf6NSkUCkt61a9A438JB9xlRJUgct1szUEB0T3m1Qs3eExSOx5RFhJhmrHwMu3OpifksAGXDLS4gxn1AYNaJnnkEAcGvW5aAysQWmbaSKiCltimgElNxHDAKCBOugPxk3ToEAmIQFRCcgJULRKactW4bRgLSISwflWwcisdtDCMIyMPQSyxU2aQtVwJBQDCuw5RN6MNBQN5oZmuAwKhW9/5hICCNwFC+JRKJkkZ0/bcKj2FVw+8kfsdG4+e6Ad/P6oyHEUTyEf2DAZvQ8fcJKpF4VDcX94DoSJvQj3bXzObH5oYhs3/ojuOyIS4gppVA4LMTpk0UAYkttoZrICDHRQVkerHZCCoy9bR5HUVAospMiZrKR7ltChcO8QqIfbMKR7ASho2AXHAUgCDv1rrKuHgQBMQUdME5EwRACWkWFRCMZfwlFiwoIMXDQUBwBO8sIPCX1mdVfi4gT6CFhYFEIlHGoiz9PIUCYvhjahNuP08a9L3HMILARYSxg3pA3F+lqXPMaUG2IRFH85pQQJiogOBtBZ+aBcOUz/N61lEEBBNDG8FrzCEIiBE0YMaP5jbxCoilCVQkpsScRhGQmDM9wdpOwLIspQjIBzhBC4hEnWcTUD4cPiQg1ZgOQQHZAQKEXHTsDUHpIAiIO6jOsQwEGX+pdylBQDDuXWLb0HsX+4iA3Bvb7N4lKCAuIC6eHNX67IEfC4gJrrG5IJFIlMMvUHkTubKt6PrY3/tHMgZtP8+BEQQKx65BAtKqTuXDsBx3g9hQQJiwgOCSQvhueJeE4/OMhwkC4uAVPOIErCaCgDSBBsQWmU3CFZDTlmx1BcRSRxCQx4BoXAHZRRGQ8FKjKoKE8lHxmgUEP3bWvXfeORcQlI8aEQH563n7YsWVjwuOZSgfboqA4LLBHUAEhaNDVEAwT/kSO5H9Eygh91+vgGADeRMLGou7QgQF5A6xAX0CCgjzUwGxQCtLBIlEQlpI2KxIQNL1m3//uQcDv6dfAiMIrIC0DRKQnUBk4VH9RpQPN4aJC0j3fhgBoGjUiQuI6YYKE7AMogKCI3hz1F9AaI9EAWGECsgmlXeAPBUVEGxArwGNiTxjLRYVEOz/eAQqMeWsfelrEhA3ykcJykc89IEC4qwXEZCwWmu4smNXjhgUDyOGiQoIHr0qABWYcLl3NUFAcCSve6PgMaw1r0lAHCgg2+B3RAVkTIu7hLh9fJ6fCshdzEyQSCTURnTdIWUVEN1N3A6+bdDXTXx7OIwQeKM5ioe7v4CkZHfF0B5TvxPDeEQFBI9ejZgtrCgaTwgVkAIgMPukfgoXD1EBmVlo2gQqM73QsowiINNLeuaBSkSVmkK4fIhXQKwHQWMizthuEyog1aAiKCA1QyYg5x06lI7D752zR8LzoIDYmxQLyAWHARQw8RwLQum4h2EEAWnuW8RHBKd3TazvvScqIJj7/DEEj2KVDa2APGsY28xiAaEJCKaF7aYdv2Kb/ExA3Jg8uMrGgUQioZOa1rXck2golJJyGEGkHNFvHLgJXXcPCKBsHOTSQRAQd8Kx7vUwQpid2xPCRUNYQE70bCduQF9KEBD8vGe++gsILbsoAjIr3xAEKhFdbE6iCEjUT+Y1oCFReOGKsuEiVEAOgIp8eNYWMfms/amGAuJ+/7y9AeVjdcQrzuyjfLQrr4DYm8Fb8GhoSK2jmksHQUAevFfLQkFFJtY7NxEEBKsgvStBhFoWiPLRMAQCcg9F4xvogywgb7Sw5UABL+T5Y6CI5KB8PPBxAWmE62xEDdmRSDQnNee3ULqAdK2FEQRKR1V/AVmYpT8IAvyjlI1amK0/zoWDICCOr3K6V8AIYs4P3Uk0AelOJY7g3UkREH6xr0H/RwlBQB6qOwHLuo0iIFN/Ms/UdvyueSaXDUIFZDWozIfnHDEoHU/UFRBb+6Rz9u2Tz3t/PArl46ZiATlvzwEvCbngOMiFQ1hAcOLVO3WOWFAblNKgS64nYgKCaehtpzw3bkfP1kRArvS2j21COfIwJpYqIG82s0hQkzYWDa1sKwpHGeaBDwiIBa6xfGiT4iGRaMaiTP09goC4E/+nJwRGCHwbPEqHZUAFJEM3T0A+xiZmG8q4bBAExLTgWHcKjDD+K9+4BkXj/osSz5PvKT33Z/MUWiYR+z8Oo2Tcf3lMf+ZTnsI/0woaMKPIfFtUQD4pNlepKyCWPIKAuKaXsrEaH79K+KjCUuc5troPX5HIM/Zo0ID3zphCUTyOY9yCAtKJKQs7Z1v/QaUlDAR4/7yzDgXk/nueUvOfhA7KX2uc67ySjxpXYsgF5/2Q2ucT3D8XX5x36nqXgEZMuOzcikex7vNM6J/Lz2f84GBDeWCjcxYQeOuKcw7KRjXGTRSQ23i7b2wjiwEveLPFlYricb8vz/4dFI0XBjeg39Z898WvLARa2GKUkt0oIJUoAg+H4IjVHZSO43i7FJ97xBwrl0heGygRBaICkpKha4IRRHKWYTmXjr7onvJKBigg9dBvgVj5qOWiQRAQHe4KkSMAJcDhVZUZRd1CmV3FAkFFUDzaRQUEG9BvwQhncrU9OrzSsQPlownT6UE8HJi7mGo8YpX2frVtDd4vCiTDgrcaWXjgL+7Nb1/pLQ5sdN1GAel8gYA4Aq+477x15VklHrE6/BZWOt7myxiHM/wIYTuLRUFYjvkWrrNcvK3H3MI8xlheIRkGzH2UjDZMOf78Icwm/DgRMwEkEokAtI3oG8UrIPodMIJIPmLIGygghjxQQCL2LyQeMbSjgDCCgDz88mhPNEgkvgbKOIqHRbgC8pO1CCQDaWCjP/z/7N1RaFRXGsDxwyKlK6Vbig9hKSLBarQi0i1Lu9Uymbn3RsHKsqylSMnDPixLH4IspSyylIgsImyTuXdmLKH4UtdNMrH4IHZXpIRlV4qILFKCLKUUCa3YuedM0sxEQpC730ktnYTUxrkxzp37/8FHzGggzIPkn3PPOf+sd3R8NLNh0zi/lU0re+nhT/8TbfyZHJ2ryu19zHosE7KCellC7GrUubCKYt8v3jOgNfUM6O1N7/8omL0qJewljBIdtxYFSNHsVyu0Z6jSkS2aT7uLJmo6QEpTN3YPmY0KaEHPjsx02fBoegWkXPuTAgAA7c/+YG1vOW8qQPI6Nacv5Yr6xcb4kKm/NDD5+Mq+trJFwuOmTNR0gJSqV/cEM6nZb4Pk2TpSOxQnQLZ8WEvdniYAAFLLzet/NLkKMnHgRCUV52Jn/fD4kv0f51b0dcWp57uL+rYNjxgBMv7yqXS8z0guiY734wTIpnNyQhgAAEgHxw+PxDgJ679OXnsH2/wZy1ygJxY/flXt/fHbzauvSHBMy0QxAuRcmi56RHJJdHzRdICcrd9QAAAgPXr8SsbGRMzRbqDHnHzYuy/QbXWiRDaY6pQAaXz86q7dUK7uw+4Pkdi4IxPFCJDTmf5onQJa3Obh+i4bHc0GyJaz9VMKAACkhz0aVgJiXiZanQnnPF9fkj/3SYw8oxJO4uOPSwJk/L7/vmQOZYtm3sZGjAApqP72XlVC++garQ3GCBCZ2VRdqAkAAIQX6E9sPDykueoF4Z9zebNTJVAuMOONAeIU9OH73BXSJ/ER2Wk6QIrmiAISYucH0XoJjkqMAJnvLJu2WjUFAAAr4OX1YRsLazBfyPheIcwm4fGinoHppyU+5hcFyMmpTrWM7kAfteHRbIDIysfdzEnzBwUkyLaR2cM2OJoOkHL9kgIAAOmTKX39hJvXt20krOFUPT884/j6tVbdN5ILzCEbHw0B8ulyRxl3B6aUlb9vNkBk1WMuU9KvKSBBNv9NP9k1Wr8VJ0A2n629oQAAQDp5gf5tjJiIO3MyF728edN7t3X2jWQDPdoYINmiPqYa/GIoWifhcUYmihEgdYmP1FzqiPYh8VGSiZoLEJmxevWZMjd8AwCQaq5vjsePifjjBOaa4+t3nKC6Sz0iB/ujxyQ8phsDxC1MvaDueXXoq/USHRdkohgBUs2W9K8UkDDbyjVH4uNunAB5dqzmKwAAAAmAYzJRC81NCaOSl9eOjQK1RtxAezY8GgJkUt2TGaw+lQvMv210xAiQW68UzA4FJMy2D+sd9tErmShGgMx1lu9sVAAAAJZXMHvdwHzWIgHSONNOoEfle3vdRsBD3v9RagyQbGDeu7dfpkNi5LpM1GyAyIbzzxc2swMJYx+Z6irXr9jwiBkgBQUAALB0f4Prh792fT0qM90iAdI48zIfe0HYt3ewukmtMgmdm0tWQN70CmGXUzCf2fiIESDX9wxVOhSQMPb/hK6R+nkbHTEDpL51uP5zBQAAcL/9EPaRJPsolHycbJEAWTrXZY65hcoLKiZ3sLrLkehYEiBVmTsyUYwAubz75NRTCkiacvSTrpHasARIFDNA5PXZPgUAAPBg92Po7W5g3nbz+nKLxMeSCSsSS6e9wOzfFzz4vhGnoN9ZJkAWpvkA0R+/fKryhAISaHN5ZoPEx0TcAJHXPuGWfwAAEIs9Ntcen+sG+qLrh3OtESDfj+PrGfk4Jt/bG/ZiwRU+fnV9NQNEPh9e2EAPJNhz5emnJUCuxAiQmS1nv+lSAAAAq+XAiYpcaGjvEwlPu77WrRIhi/aNBGbc3vyeDZbfBJ7zzes2PlYxQN7r5ze+aBM7P4jWS3RcbCJA5PVZLtsEAAAPT6Y/WucMVjKOrwc9P/y8RQJk8QR6wt594gShkw3CXzq+PirhMb9aAZItmb8ooM08V44e2zZaG32wAJk9rgAAANaSMzjV6fq6z/P1Jfk43xIBIuPYCZZM/ACRz/VbCmhXdlP6aP39FQbImCqzCggAAB6hzF+/2eDkw1430GN2j0abBcjdXEH/TgEpIAFy9EcC5NLmj9j/BAAAWshLA5OP20eg3Lz2JQi+THiAzHUX9G8UkCJby7W3lg+Q2XF7caECAABoVXaztudXnvd8fdT1zbWEBchMrqgdBaTQlpFar4TH/HcB0lWuXyA+AABA4niFqU2N+0ZaOEB0JtAvKiDFZNXjgMTHna0js2fsrekKAAAgyewdHt8e8WvsEb/TLRQgX2Z8s0MBUNv/PrNdAQAAtJuFI359s3th30igJx9hgNxwfLNRAQAAAEiPngG93Q3M2xIkl9cqQJyiubYnmNmgAAAAAKSXXZHwfPN7xw/Pu3449zACJFsw/9oX6CcVAAAAAHzn1aGv1nuB2S+RMSSrI7dXJUCK5rwcHczpPgAAAAB+2EG5ifnbfSPhCYmO/zUVIEXtc7oPAAAAgAfmFMwOiZEjEiFXVhAgF3JFjtkFAAAAsAp6BisdOT/sdQP9roTHsOOHZxxfDzpB2Jspfd2hAAAAAAAAAAAAAAAAAAAAAAAAAAAAAAAAAAAAAAAAAAAAAAAAAAAAAAAAAAAAAAAAAAAAAAAAAAAAAAAAAAAAAAAAAAAAAAAAAAAAAAAAAAAAAAAAAAAAAAAAAAAAAAAAAAAAAAAAAAAAAAAAAAAAAAAAAAAAAAAAAAAAAAAAAAAAAAAAAAAAAAAAAAAAAAAAAAAAAAAAAAAAAAAAAAAAAAAAAADA/9mDAwEAAAAAIP/XRlBVVVVVVVVVVVVVVVVVVVVVVVVVVVVVVVVVVVVVVVVVVVVVVVVVVVVVVVVVVVVVVVVVVVVVVVVVVVVVVVVVVVVVVVVVVVVVVVVVVVVVVVVVVVVVVVVVVVVVVVVVVVVVVVVVVVVVVVVVVVVVVVVVVVVVVVVVVVVVVVVVVVVVVVVVVVVVVVVVVVVVVVVVVVVVVVVVVVVVVVVVVVVVVVVVVVVVVVVVVVVVVVVVVVVVVVVVVVVVVVVVVVVVVVVVVVVVVVVVVVVVVVVVVVVVVVVVVVVVVVVVVVVVVVVVVVVVVVVVVVVVVVVVVVVVVVVVVVVVVVVVVVVVVVVVVVVVVVVVVVVVVVVVVVVVVVVVVVVVVVVVVVVVVVVVVVVVVVVVVVVVVVVVVWkPDgQAAAAABPlbLzBCBQAAAAAAAAAAAAAAAAAAAAAAAAAAAAAAAAAAAAAAAAAAAAAAAAAAAAAAAAAAAAAAAAAAAAAAAAAAAAAAAAAAAAAAAAAAAMAJ4FoaMB5vJ0sAAAAASUVORK5CYII=;" parent="1" vertex="1">
                    <mxGeometry x="656.61" y="857" width="217.14" height="133" as="geometry"/>
                </mxCell>
                <mxCell id="35" value="" style="edgeStyle=none;html=1;strokeColor=#000000;strokeWidth=5;fontSize=24;fontColor=#000000;startArrow=none;" parent="1" source="29" target="18" edge="1">
                    <mxGeometry relative="1" as="geometry">
                        <mxPoint x="158" y="452" as="targetPoint"/>
                    </mxGeometry>
                </mxCell>
                <mxCell id="38" style="edgeStyle=none;html=1;strokeColor=#000000;strokeWidth=5;fontSize=24;fontColor=#000000;" parent="1" source="30" edge="1">
                    <mxGeometry relative="1" as="geometry">
                        <mxPoint x="770" y="619" as="targetPoint"/>
                    </mxGeometry>
                </mxCell>
                <mxCell id="53" value="&lt;font color=&quot;#000000&quot; style=&quot;font-size: 17px;&quot;&gt;store&lt;/font&gt;" style="edgeLabel;html=1;align=center;verticalAlign=middle;resizable=0;points=[];labelBackgroundColor=#FFFFFF;" vertex="1" connectable="0" parent="38">
                    <mxGeometry x="-0.0667" y="-3" relative="1" as="geometry">
                        <mxPoint x="3" y="-2" as="offset"/>
                    </mxGeometry>
                </mxCell>
                <mxCell id="30" value="" style="shape=image;imageAspect=0;aspect=fixed;verticalLabelPosition=bottom;verticalAlign=top;labelBackgroundColor=none;fontSize=24;fontColor=#000000;image=data:image/png,iVBORw0KGgoAAAANSUhEUgAAAfIAAAB4CAMAAAA+E4DoAAAC/VBMVEVMaXH+/v7+/v4vPz8yN0P9/f39/v7///8zN0MxN0MxOET///8vOkUzOUIxN0QyN0S3ub0xOEMvN0cyOET///8yN0UyOET////////9/f78/Pz9/v36+vr5+vv29/iWmJ78/Pz+/v36+vrn6euioqvx8fP3+Pj8/Pzt7+/Z293l5efQ0dX3+PfZ2dvh4+Vvc3yytbl2eoLk5ujf3+Ln6OnBwsafoqn8/P2jpqumqa5/hIvNz9HNztKhoal7f4eUl56+wMVaX2mVmJ4yOENmanNmanLt7/BhZm+vsrfAwcRxdX3DxsuWmqB8gIexs7h8f4fe3+Ggo6msrrOkqK7c3N/9/v2Zm6HExsm8vsJcX2mLjpX///9obHVeYWp0fYLP0NR6foZ3e4OKjpW/wcSws7iXmqLb3uCAg4tsb3lmanOhpKrO0NPm5+mvsrbd3uGOkZiytLmMj5ZLUFtSV2KOkJeytbrDxcja2961uLzExspARVBESlXS1Nfa292ws7fo6euhpKmGiZGJjJOqrLL09PXOz9KJjJR+g4uztbmcn6X7+vuJjJP6+/tnaXOUl56nqrDc3+C+wsW7vsKusLWcoKU3PEmytLn39/e6vMC5u8CCho3Fx8uXm6HV1trl5ueYmqC3ub1wdH2Pkpj4+Ph+goeEh5DW19v+/v7S09XJys7LztBWWmWUlptUWGJkZnGmqK1UV2Pa3d5iZnDc3t+2vLyOkplYW2RJTlqXm6H///9rcHdxdX7Dxsukpqzi4+Wcn6U3PUk2PEg3PUo2PEk2PEo3PUg2Pkg2PUgyOEQ4Pkk0OkU3PEknLjspLzwyOUUmLDovNUIgJjMuNEAwN0RCR1IsMz81O0g2PUc4Pks8Qk03PEg/RE8qMT4wNkIrMj8jKTYtNEErMD00Okc6QEw2PkozN0VOU14kKzhJTll1eIFZXmhTWGI0PEZhZW9RVmAaIS4dIzFWW2VLUFuFiZFeYmxqb3hna3QxNkJFSlZjaHH9/f2Mj5Zvc3x6foba3N8/13JbAAAAv3RSTlMABQQQwAIDAUCA8AYwUKDg0JAgcAdgsAgJCxofFCcwTQ85Qw80FyNPZm86fY8lLOFC7YMfVKEYWX/p/lpJCfPLgfW60Ny9QPCvZcwMor0o0k2vcv1cSddWcukkbOjhDnDl28vsT/Nnk9Tu3Jd1xJf4frD49ZrbwO+ei/j1QKrs/aOpvde7qtzpzOpn6Hij/o80stCewfK3zb+T0M1fx9E++4eEn13ugtS6j/zDa+lCvc/U1uId7Izv/eI18jPN8SakK2oAACH0SURBVHhe7NppbF3V1QbgdU58zo59HFvEN76+tgMOUUJaREOhCQQU0hAU0jA1BFBJgEJEw5B8CbP4oAyFtpS2NAgQokBRK1QoQ0H8aGmhSGvtM995njzPc+aJUb25BiHf2KmwHOnmcJ/rH5Ys/3q9115recPUMPg2KWFOD7yEAcDZH1RWVn5w+bcl7JKlL18zFE9mhrZf+c5/loPzlcy/sDcSG7HNWCA0vP2Wd25eCM5WsnDt7mAaszYnxFh/qO/z5095uwGcq2T1rbuTtq6lfRqiaaMdDO3KDF76o580giOVSJtvi2g9Ph8ahk6EWR/6ULf8uzpH7/zLuWeA45RcsmU0YvcQEZomEhKhnkqpiHYwsLv547X/3HEaOErJ8iX7+znSWNjky3/HuU6IKd3XG+iPD914y4XngGOUiGv2BLiKZGYRidAwUoiaxnUk1JFI5cGWSHjP4qc2XQ05TIATW4kIdw63+LIp0olzIiTT1hGNlO4jRI2riIRkJzvarb7r33ruLA+c8ErW7Q2PpDgnXdW0Ecvq4ppGmDINw/QRqjZSPnTErla/Fh++9aNXXoUTWsmagdYkoqohcTXa96/1w12E2J3JJr35Gm8i0hgkTLVGw917V17x5gmcesm6TJiIVI6m0RUY3expfGXU8o7se+ThDx+w9WCQSOMaHkHkM0ykZLC1tzl+975t0nIBTkAlF9qthIhmD9m9/gOLAKDpvaFYbOA+F6x+5oL34+lwzIuYNRCRVMNEJKRs0uq1Mw8O/mrDDfMlKHazZ9aU15ZZ1eBUlTVVZdaXqstqy2fNhmNo2HTIQiI7i2THAoOLABSRuV8bDid2roGcuS/87vrD6Wgi6ENCJNNGQjKMlIHUpaK3+bNlP99wNhSpypnlJ5Wtsr5UC440o7zaOkp11SyYCIOm064IeLOImM0ihjv3LQKRCS4J3FsGOjr7Hqo/tR4AFvztmov6ultaYoRIhIhcVe2szTWuJckbsw8sO3MDg+IzwxqvHJyopsKaWAVMaOtgv+rLT97IOzq3nwOi7JGZ2w2NL8Xb/H1ffLIRAGQGTQ+9u3ZPJhQKUw8hqlzlOiGZhp1FJCsQ/f4dG6DozLTGm+XEI15rFTp2Ufvx4ohh+Dghpnki+rON4BFA8bjcDKD+GTvRPvzIb0GWwcMAoOms5y9b2ReNRJNkE+ociVA3bFSRc/J3b1oKxabGGq/SgYmvsiZVA0db/trBSI+R4pyIeqKH3p0LgugWJYHJTJSg4TeticjQVpAUBiDmfgDANv7iqeuGA5EWL6YMQqT8XKepPGu3WSuK7kavssYD56myJlc50Vp9NJJWMa0RZTGaXVcPAMwtMhEk4chBb/ioMxG5bTWAW2GC4oIxG++55YKBUC51jqSjRkio63rW9mfeKLa3cmXWOGXgOLOsyVVMkPj9Q5EejpqGPh2jmWebmBtAVljuSxSYDAANK0LhyOKToU4RQZZAUiRZhpyrTt/xxE7/roA3na/uyDlH1Hfd9D0orsit8arAcaqtydUenfijQ/22z0RdJ5t3NP9QhgLMBQ2b+qPtNy4EqHPViSApMoAoCjKANG/z/Z8OhfzdNiIR5xphKtF3BxSV2Y5v2OdY1je4yuV79gTSNLY8NzoOH504yG6AhhdDrYEX60ES3RLkSXWCnC8BV3/yyRcH+9M9pOuUShHZXaFzp2Vnkpuja49Lwz4TnGaV9U2u8kv7EpoPCVVC3rL3zXqog0KiCDD3plAsuqIRBFkEkFwuCZiQ+xyJ/JE31+9MqCZyDVOGjoS77pmGnck0nsdya7wZ4DCV1jFUQ4Fn94YJkZBQS3cO/3ReI0jKhJnPWxywvM/NF0RJACa7BDji1Bcue+ui4Xhn2B5pTYSTRJwjx/bPzy+qAbq2sJ1xmpOsAsfqXB7NhDXNMAmJc//+7wDITJBgPMnlqpMBVl8XjWWeg3m/hDE/+L9r1l6783B3KBGO9bYNDP5hX7M3H7nZNvr2NA3Qs49H2Sv7FtT1iq8r5ZyCqm6HNRMxS4TJwMGtYwlDIUGQPXIu44vDscxj57wOLmnrsl9fdPdAd0dnIuhN2sPnLVu09PK5C+/NeDHFOQV7r5ymP9fj0rCfBA4zwypQPmOsZtZUVRcemzutWBbzWzc7GBjcCrIkMEUorOySIAsADGDrykPe5pXbn3zi7w/G7Whb1LKbH1j56Utn3rB0vgg5Ddd2oYGaTrvPLaYBuvCmm+PkobywA5o9rl9vfCxqqZgykSPFAuctghwGjBUO1bILBBFAkeC+uNfrtdPJaFtHbya+97Mn73v6hsZLYIwC4l/tEc5TxNv3TfEyrzgeA/QchzXsU29Pv3tT54iJhBzRDrf942oQRZiQJEgCCIIgwqK7YqhT8FDzXddf8fh7r/97Lowb6TwPp1NJ0/BR4ODLRfQfr3KHr1sLa+MqmMRVH4Y0bhqocTI6YitOBjcoEkyCgeyWAJ6JB7nW1XvbvdvqIEcU4GtMgqY/ZbyIhKrlPb+IBuiywqHFAaZSG9840I4mV5FzPZVIrlsAbkkRYRJMEZgEsPnuXkxR58e/BxDrJACRATAZxrjqGDS9n0TUNZ7afWXxNOyFy8hap3dvNXA0GdgfRyNpniVUOZqJ7scFcLtczDVZ5rKseEA+fWci5m9Nhh8DBnnjXrILEkDjBUlCTNp2//anp6Fhryi9j5im2shA2bE/l7jPRiKkjuY/Hzm2HpEJDCajgGfJgL+j++N4V8tloIAgMJCZnD/kX5Fh/noiJJ/JA4OnTH/DXnofMfXuzb1lZ3s395nkswlb4rnEFVkSZUWEyS14IR5KND/76nrLf/FpoOQw4chHgK+A6FK2eImTrmvBw1OKvGIKA3TpfUTV/+5VXDsG/Gk1q6dU0u3Ou/5/I+QCB0lhsgQTkWQJLr+3uT/QfL+bbbMTfQ+BDCBK+ZjhKzKTRKiPE0fSVYzcPP2XUhGsd4rAlJaLCw74ezCrYtaHdqDvdAlkmMxYqRfgjNttfyi+xANw9v5EZg0AiIW/5JYVCeoPeDGv/fYz4Bv7L21XHt1WeeXve9J7T7K2WpYtKYmNEwghCWQjCdlIIWYaUhgIDIEwA2VNWdpQ1iUQOCUsw9LThJlOz4HOTKedaU87nQydthTmdHp4T7JlSZas1ZYty5ZlJ5GdOImzYecQnzP+nswk6OnL1Sd7bv5LdO55+X7vLu93l48xYTfXXlCAadIbLQzRAteFCqn16asu5Dj11UaL+aLlQaNVf2H6aK8uma7oyO8uANKm1xtrDDptBaogxZy64UIBVVbFfaSQkvI0ByJHFvOCQ6J6dJFALsEtbw2GskPfcQDA5ad6Q6+pxHuRSxDALcLsHyZkVTITP51mIQhhSc2ESywWq4GhPwLXRRdzNb1c2WStMZcEuzh9tBOPrFVtpKm21RkNlHcZ64jZmJIVmXxMdYVO/1JwuCTBARThTQTxJUsHw9kTTwjAmfjZb8ezSxsIxFKJH7vf75dVSZxcBiBNs8BPT7ostGPRG9j6I3BdWtHV2NCTrqux0wKW8TzgWshrmxDNeqNZk/ngHTGfkJlS8qd3aLHa5EaHXBDdAPXvpTP5zz8AEAWnAFvjoaMflHYJToBFaUVWJb+bJeXERXchihd7v40s0QLXpZVa5Ki1WZRBq5QAroXcovU29KfSUXHW1hP+4cDU5EFk3TzgJJebDjlwHNTf3xsNnVsMpM/RIcGSY7ljjwCQ7pgicbgcsOR0+xTkr1/NQI+h0lT+mVtRArpSXUR06MNqGZ+aYsR051NKM6UTHXd4hnIgt09BnpJVz+4JD+8Gh+B0XdQDL1p6sDe8fCWQlJ5zAjRMZOKPAA+OEj1yItSfmvLsfesuY6DHUKmmhAEcJyuV3mHXBWDWmjjuIaqLIDdWlXI6ZuQYit8SI4OrecZHHHuLtys99tH8ApQa9CSpEIr5rfcMJOK3fgMIx+oglj17bSh262wQXBrIOacD5uwMTwXzY0sY6DFULCyB34J8wrDrYkfcb6F5sa/migZ21Zp3GfdSG4mNe1tavbJ/8MdzoIRf59wuB4CbA+mOze2J4IP1BH9uCuP1kfzRFSByWisHCWBDR6qrpVVubo3vY6DHUNGxZPc2pD+iYl06xBAp9QGtVi3k9rIR16PhUNsa8HqLPAl5a0tzsyfY84ETJIekQU9UIXYvvN4/1rJpFgnd4pe4LhoPj+8CkRYHjiWaVR439+JNDPQYIk1sh25B+iMq1AVIsKUwPnYccm0vE265LO/dvrbCvidvlz/RPn7d3AYt01pA2LTrSG+0+7bGwseaIKk1NVh0LpRbA7Q6676JzIFWsl4o+sVfM9NjeCg3spwKEQvliFl14e6IGkAMOOT4s2g/8vwMlrL6pLdV9e3B8e6Ef+jf/1uTvokc+as5b4739/esFSRJAJ6HL7mX//ksP7qHut3zqrXZlExm2wbOEsglloQdNzUdwwcS0h/Bros8KKMt4nAaKPihfsHCwl+tHh5QRweV8MTOTzoSh16YBxrhG2HWT3oyHYd2/qtJ4ngA6Xz/xPZY/swPqGDelW31ekifRKBcyrU8B0U/vRLQIf0RTLoQa8VHROpwAK1+5iTByBKUVr9zMKXufMmdabiuuz9++L9KldRnfy2dCR97zQmcW/wqp74hEDq5GHgK5stOJhRFDihKfBfHOD6EW5oGkcKKBHPxqSL9EUy6MOgI0U6DEg/TBlYjryrxNDh/tb7fl1LkViUY2A1/n47mHtuqTb6v/tpYOH/k+zcB8MWN7SuPhvqeBBeFmP/pRMaT9sne1uAPyxs01xkKUvwBbTgvZkpgrrJQjJnqQowA7LqobJe+1kxLSHRlejFzaYutqrYYdGrlxGgrnSTUGlWxFtuA8bxc4Gku7xkJtCmtshzbDs7bxno7Nl8CPAg8JxXw5iW46pvN4diJF68FUeKLqy7bTmWP3yzSPPuSHdmA3HLgQDp4ZvXM9kdo/Z+FBiDeH8Guq1YDiwFpsMOLRlZ7aS7KSCcWqivqbr3ljF9WJfJpA8z6UV90bOMGEHg3p06Z8ZIA9Xe2h2OnV10LUMKWhb3Hs+vo/YzbR1MkUwikkvOn1R+B/0RP/dDD+yPYdVmLEf/K6WptEed79AbtS6HttNcmCTi5qIX80ylWNH6uAaDhvVw8vnErTEIuguh2uDmofyvUETv9a04tmGvlrmj+8BagyV2BdgK5nB65T5rZ/ggzxTA1eNjw/gh2XVWUaE0JIGjCbjPQfmG82H/aUNHwFXddSFalfXwfuGDeqUh/+NMFwLtdnMSJEtQ/kIlmz64QALiSAfvho5GDdMhXHg2TtVJKZ+Cda6fTH4FzNtRzqUOjBbsuM4UEQwIIjSWrqqHnd7qLkcIAyKtG4UsGOmVVQuslgYP1E6F46LMF4OQcDkmEhqW5g/kzVwKYBEEiHLzGjk9lR/cCRUioV/d+yp3L3TM7YGCl4WcvOrQatMWbXVctBVRKAEGKRtU6pImDdi62CoevLjvbOwX52svBAXDFuVB/3+v1wDtdMOef74kmcrcuaCzwbZJJS7S5bjse++J8lq8N9WqlThk49sYMNO3hiYx24Zkd6Y9g0oWECOxfdaWCuP1iHqIWzWrpPsBMhfyLjKxK/0Q9gRyu+Dzc4f9IXQu08GxvYuzDegCTCEREE2hkSy5/+g6gyZaDvTJZ/Rjs+b3A0LSHDxiUPBpLdZXmRJFowawLP3o9A91qs6ADG/SU1Vjh8BW3Nz8VzI8sAafDBLDwdLhDfnGWe87i6/1Rz9fnAEBhkMFUimZbeCgSoKfs3z6RS6dln9w5+KoEqOBBiY6fuaaOQoMgnzAMupDnQ31zDcWnI0k3zUlYkHE0qiwbG/CRq1N8B7eCSZIIiifC0e4dL7x6zO/v/pEDnCJwLoFGkl9xLhujrwB6dyKr3tKR7rofhRzPoOlOjEBUSvTIaTLrwoOmnU63VqOutwnNC+meu6rs4av/PBr1pEk5beztWQQWTpy03NxAui0dHEh+xIP6V5xIu5ph/qbR7I59QNlAcM1no4W+m5G7pYpnpO2UBA+XKh3ub9l1WSjIIfU6xA6xir7WSVQ8fLVsXVj2Ec714BeXE9h40Q33jfd5mhUluLTQFUNFiyx5vD2fH1aHEyRtPs/D9ni7Quy8/ZNFM5mw68tDyYycJpMu7PlwDgxZwob5DyvFczN3/s//KBZIeQKtSvvpWepcmaMR4Pv97Yrs7Xxsw2WNAGKBhBEEkMRiTDnYPhRJbiiUz4tF4icdRka18oHx52aSbi2r2GkzY6fJrgs31rqih0B6qjEPQT8Xa+Wjuhuyss8jpxRlcB+pi0qk/+2JYxmF3J+RPLVq2SWzCN4guFyaW5IEDuD24XyWkDGCJGqdALx7Lu9NK21ysPutSlseqyn0HCZ1OuQ0K9Vl0xw9Qreidoj7DzxrtDKM6j58sl9WLTH4fCNInNMNk5CfDbV0xGKRTH60Z93UJadODkpJ/Yej2ccbQHBJ2n83gfOp44G03Koo/humT7eylKttFuQ02XThQZOdbrWzbTyw01wA+6juJRMhb0tAUbzpHTeBKLpMDh6+czrTf2LPnnNDo/lw/nj38Kbt36U2v6zJhobngYMvPeGyJhRMH/B52+L7588c3WpEQTICIP6WTRf+fDjdSqu+IxV9NKtl33V11Z0xT0r2ynLrYzeR2png5uDF7v7ks27XdT+7bXjoeCyUPx4//OAf1+yb8uaC2iBF/LwgmeC6ntChReDkgSc0vCj+3yCqRApxi4c6ZE+gpSVxclWFLY86lJ7T1q4ZThPVhT8fTrfiZQ/cdRsv6rnNTKO6W0YVpc3TqnS+3AgETDfAU9mOU7eoyd19/3bj8HgsFg6NJj9/4I97t6nLYkwOyck5Ocnt4p2w4nAovBtcnOTieBA5ThBMnIkUXk2iZIIVp0PeTjnlG0g+OJN0K11s1XYmegfXhdAlCN2K2CHiIeh+So9nfnT5x6Fepat5EvLBNx2TQDkck6RrPrvKXVj0Aw0/WP/kLw5ls+FIVr3k9BvXXAOiJHES73BwJoBty2PZncTtiyDwwPMSONwcB+oUE8x9aLD3QIuiBJTB38xcwk7v4zSaGfdH4LpwugTnwHA7xJNuG1N/BFwc8nNhpW0Slc7AWg4k0cTBrp6+noIX50WBB5Dm3bHl48O5SC4Tix6+4b2HFqieXRIlddXjs9nMqQYwceQNkVwuCSRhipWZv+K5IzmPN6V4FJ+inzG61UwZ8azVlT3RasZ1MT0fUq9Dds4hHgLrj2DfdbXkrZhXrXel7uedEi/wcHMsPNEAYAIQ3DyAIBB73bp+x9FEONqXzyQ3/2bPChfJzkwCiPDBgczhfcA71XVRgsAVphLrX9m559HDXX2tqRafTCBvqmxjuqWsewWaqg1MDfLsuhjpVjxhx/0bkjXi34Z0uX20cI9l8Mgbqom+eyYbu7GR8G4mEDhiveoCX6G+Yevac56+9v5I29Azjz5I9goInAOeOBIO7iOmLTlcHBCZ+6vHb733UE9vOJfweMiNuM0BZfC3gAhCZ9ITmWqLjjVasOjCgiYODG6HeLG8tgK6lS7bO8fS5L4rf/L3Kp2yeDzcvQEkkoOZgNCtvENUp4tB/MMfFr09kWwf6c31J5++YcebTpM4+YZEMu83To22wMrn7v/d/vHuRKgvGiTTT80eT+ek7mDyw/8vulVf2Qo8XBf78xk0XS3INwNSkKH7Kdu0dl2R0lmgtc0nd/Y8py4I2ZuNTCwDcDhAvLSwbZ1ALoHgMgFI81ev/tWpZ7qVaF908KX933sFfn4u7B9u4G+69FvfffW9u19O9vgzfQl58KXNn6cV9Xp7EjUSJ38NZUkdjkET/kaDpc6KGAGrLhxyg16TEyCPgHkIuiXop7frauu6rNzsVQIjvrdAcME1w7EYGT0GCaB0TcVx6Zw3P747Odibibb2vPxSVzrQ8qdX12785CXyIuQSg8lP7vn47xZt+6ucMrXTPz0wghg5nc7UChrt7aTj24acZoW6imGl7BBB6VYLy9I2cxOy1YL5LrA1x8legXRb4l7Ci983FOlCF3cJXOMTj9/wdDIY6e1MtbYoSsoz0JvJ+HuG9j/w+PNzeQ6uvnEwqCLeLPtGojcwzChhlMLFo72udgoVM3KaTLqokFuJLkONnjIniNsh7j/sVtrscOXxaU2nX03gEk9fASI8mY1gGxndbhOxfteKO3+7vzseDBxQlP7MwPgzv/vw9VdICdYpwNw/d44QwMkm/pH+e7dOj27V1V4Q+6j4qb8rioUIfcKsS4utjV6Lq2XZOacv7YrMVvxiHPa7wH5+NCMTaU/+BGZd+bex0Tsvh4uK6FA5OI5ci/e1u6PNHm9u6NFNb5McHniBF0TY9s5Yp9wsB8gg4kjHPYsqXcBoUHG0Vl1oFpRz1Rm+uo+rDjUCdl1EFYOY6Y+AQ15lNBiMVsrk+3TvArtjOOuVlYDSPvh1mPvCoXBuC+bWJQBOlASRYPzLQzlP3+Y33YWBJpEnSf6y7/UPtCiyz+dt7gqGl66seAGjTa+3FTvJEkNbRmOdljlFuE5mXeyQM9ghm+YmjG5F5dlR1Qeno4+SEeHI6W8jwHACiDwn8aIJJJi3PBs8cQVAI8dzDk5wmpyw7BfxYFtzQFZamrv8pNDG0B+B/y+Zd7TYqf6WXZeRGRj8C4wd8rrp3QUmSfAzXzDt8SmBjv1z6z8ePf7eXECFM021OS94Y3Mo9H4jiCLZAyU6RAdcsjzeLqu5utLVm//LK2exQI7Py5a7pqUaMQJmXdrIU/kKi+lBbkTuAsMhf+RwPO1R5HTv0Cv7DocitxcG0HDhHQDbHkr29SwBgRCuZJRNhIcfiyfk5gDpZg7kgpvmA8wI5LWse1qacPqEXZeZHRjcDnHIK6dbqRcvRGRilu3dN+4OhY8tBLcA5YgkCBw8m+0jjLxIKHYSylcuzyVk9asvEAj1/MUcmCHI65gNzY72o7HrAhsbMPgjaNMYXOxIqQeX2bfGyOxYwBvc/GFk9P655UIOoDLy2R/PAVHN43mAldfn27tkRSYSSu75FjBJHbI0gWnTQi0y/sKkS0N246JjGgutZcoLkbkmXG7OBQu7ocaCnZG9hZQcF4EDgF3jofRukC6VJKeJZP9H8u2eAunmySU3MSCOWp2BsQ+5BjECVl2sS7qqGOwQefvY6FZDWZB/ed9pZ3vfycUg8EJ5fl0UYW82fIbcYU+uMgdYOJQPBtQJFeVAOPm8ExgEs7pqlnhaZdQhXCebLnyvo96gZ6Fb2YJ5leYkpnu1wKqjYRUmWW7N/mkBuHkoS0QTYeSzf54NJieh47ldydCIx0smDz1K36Gd4oze06ovPwLbCEhofwS7LvqK1ToDxZTxR8CbbW0GK0N/RHmdCdw3s4UCiBwM3QwEvfKEh8UnQ4m7AATBBDDvX17qG2nxeEgmmIqfeF8AdtE1YaaGpzp1tTh5zaBLI7risdSmGjvt8x9/BLxz16gDo9ZzI2MwqLwWD3pkxSe3+oN7weRwnkdLrafRNvUJ8GQ+dHZrYa3I1TsD0bSny0tCRGfi+vtEgBnDvKnmq6ZmoRLb+ho7Xl9n11Vcb7FOPWaVvrrWztof0cTg4qqsds3boMPpVlyeGkoostKsyJ15dV8j5yIwiybRJRY2rpukkunbvHWx2J2F2y/nPp72txK4UylPp3/zP0GlYqzCTx505FfaHiaLDu+PYNRV+TAd+w2uBlvxU0w14RlY+iP+t72zi22qDOP4O9atp+0YbDAwoASGgKDjWyGEAEZARIHpFjF8BqKId3qhF3IDgaAXQvxKJBpECQYvJBojEWOU53nf871+rPvoKd3abmVjuMG+IGyGXZi+NTqCDV07zmSnvza9POfiOe9z3uf/vE//JCWe7IkAJMbH4HzllDIXHzObPNk1huRPTm64Qr677m5+jiuwCy/osb/3AxBT988n6cPXUALbJIeQTD4UHLZx//reFHGbmTTI9FrJ5wTToaDI9o8pT4oPnSM958jpP7pFXktLiH3qzYv7ts1zxeU0LqzmJHW9JS81u9sr42l//fG+ACAAIsK18IIlxDRy/y/Xsg2fvWZxJloGSZF1agA0RMkAVBRvY+PN46+UlyY01Rx+9u2/mPLBUX/3+RnERU6tqmUhRL7K1Zot04gFMc9eM2O5lfNifw0iAAMECaho9Ll9V755s7L0eR72PG6adddw6Yzf291tcR/bU4tqr8n8qJsYrG78fAqxIAUjZI5erKbpHDl/Z7MOiNCCksSYwZiG1VF//+1jZx7jAcyx80R+B3ay1ePumEvI+veadFkCQAmC9Z7b64mVSD4naA4T0nZy3X3AE0AEDTSNgUG5aCqF/Z7egQ1nlieZO33k5e7uFaWk/A2fVwIFEZSgL/TpE7OJhUg+J2gSdx+kThE7WdMfrWVUVCSkLCQDAEJIUiDc1lX3x1tr1gxK1lyOjbdQyv/0RJeT8qfbdE1BBiAHfdrGJcRSJO+cmIOgpn3ffLJ7RX+3W6UMDBBbKPA8XQUIEPZ1qbf2frJ4Wlxly5toz3O57DzkK6t9HUcWn2vTE48HC/paT8wio5kiLryk/ko1f5GXkCEwZuuZgwPV3R69hYqiiAgQ/9UQAAzV7W/t2HPw2+18hNz+UF7cgGP2YX/99YqOaEwD0EIQavFpH4/ynZuTF8zcw/YeTZGSkbEsdw6hzuTq2sxXy78foP5m3eCdEQoiIiAin1/yRKuv7Hhh/BwSL9jjf9k+byBiNAQioCFiCJC6676YTkY1wiClZZJjgiAkt0stML1M4BSSoTN7admGG52RSAypFtISehoyEQCo1Bppq+/dsW71MsL5UIsZei0CIB8+a+w9OZO4LLJFG0wi3Obv3rinWuZ1Qtysftajuasv9LR6Y8j9lXjMDVkGhUo01uQzes9tef/Ls2c/O9qoyYzxmTNsgZr2kxN5+T6KsQ3BN8kEeAsqc/0nEbOfNhdvfa1dUZRYABE4qCELhYCKGI7UNlwZuH1LC0hViAg8FfTtXDnLAgJbqowdkYiPy0x9tj+1q/zis+9eDni9AQDkX0UGBKSge8Ne6tUBUGJMVgAC+tr5ZNQjDM3dyPyQZ/6g5e0icyoWHKi7pKp8pFCRq3jo+ScQ0GRRBAARQNcXLLGE2pIqDmJazIe/MMwnSw+v/flqQ1OTFxRDAYYg81SPfOYMRRE0b2zPoKSefZXzUskMcgvv2EYO510XvrP/h846T70XIUhBo5Sv8xaKhkGrtPDlG1OJFTDhTZ5Bk9453Kp+zkebNrY3RD0qAmUGoIyMSoCAWuTSxiOW6J0JJqT19M+HOu+HEjD1xKFNPXU10RpGIUAZFRGABT24ZRuxW6NZVjQuNZdTMym5z3Lfw4sPHfu10+dvEkXNkERFptHQ22XEOhSXFN4j7LYCYi4l91/gXXbs60U9bf56nTLV3XX1N8v1SnMFx6QkcXcWCsR0BKcJkv6+10+v6vF1dTV37n18M7EmwlhHoW1QlfSMrXCCQEaEAqcZTZz8ytNfVVSMnzuDWIYsZb8s215KLESWmQ9+vLNkyZIlS5Ys9gdKdsvyFx1TGEDX2nocAAAAAElFTkSuQmCC;" parent="1" vertex="1">
                    <mxGeometry x="666.25" y="411.5" width="207.5" height="50" as="geometry"/>
                </mxCell>
                <mxCell id="36" value="" style="edgeStyle=none;html=1;strokeColor=#000000;strokeWidth=5;fontSize=24;fontColor=#000000;endArrow=none;" parent="1" source="3" target="29" edge="1">
                    <mxGeometry relative="1" as="geometry">
                        <mxPoint x="98" y="437.5" as="sourcePoint"/>
                        <mxPoint x="516.25" y="442.5424528301887" as="targetPoint"/>
                    </mxGeometry>
                </mxCell>
                <mxCell id="58" value="send" style="edgeLabel;html=1;align=center;verticalAlign=middle;resizable=0;points=[];fontSize=17;fontColor=#000000;labelBackgroundColor=#FFFFFF;" vertex="1" connectable="0" parent="36">
                    <mxGeometry x="-0.0147" relative="1" as="geometry">
                        <mxPoint as="offset"/>
                    </mxGeometry>
                </mxCell>
                <mxCell id="29" value="" style="outlineConnect=0;dashed=0;verticalLabelPosition=bottom;verticalAlign=top;align=center;html=1;shape=mxgraph.aws3.mqtt_protocol;fillColor=#5294CF;gradientColor=none;" parent="1" vertex="1">
                    <mxGeometry x="186" y="400.5" width="63" height="66" as="geometry"/>
                </mxCell>
                <mxCell id="40" style="edgeStyle=none;html=1;strokeColor=#000000;strokeWidth=5;fontSize=24;fontColor=#000000;" parent="1" edge="1">
                    <mxGeometry relative="1" as="geometry">
                        <mxPoint x="727.9999999999999" y="689" as="sourcePoint"/>
                        <mxPoint x="727.9999999999999" y="846.5" as="targetPoint"/>
                    </mxGeometry>
                </mxCell>
                <mxCell id="54" value="response" style="edgeLabel;html=1;align=center;verticalAlign=middle;resizable=0;points=[];fontSize=17;fontColor=#000000;labelBackgroundColor=#FFFFFF;" vertex="1" connectable="0" parent="40">
                    <mxGeometry x="-0.0667" y="1" relative="1" as="geometry">
                        <mxPoint y="1" as="offset"/>
                    </mxGeometry>
                </mxCell>
                <mxCell id="50" value="" style="edgeStyle=none;html=1;strokeColor=#000000;strokeWidth=5;fontSize=24;fontColor=#000000;startArrow=none;entryX=0;entryY=0.5;entryDx=0;entryDy=0;" edge="1" parent="1" source="52" target="30">
                    <mxGeometry relative="1" as="geometry">
                        <mxPoint x="721" y="436.5" as="targetPoint"/>
                    </mxGeometry>
                </mxCell>
                <mxCell id="57" value="process" style="edgeLabel;html=1;align=center;verticalAlign=middle;resizable=0;points=[];fontSize=17;fontColor=#000000;labelBackgroundColor=#FFFFFF;" vertex="1" connectable="0" parent="50">
                    <mxGeometry x="0.0479" y="2" relative="1" as="geometry">
                        <mxPoint x="-17" y="2" as="offset"/>
                    </mxGeometry>
                </mxCell>
                <mxCell id="51" value="" style="edgeStyle=none;html=1;strokeColor=#000000;strokeWidth=5;fontSize=24;fontColor=#000000;endArrow=none;" edge="1" parent="1" target="52">
                    <mxGeometry relative="1" as="geometry">
                        <mxPoint x="449" y="436.5" as="sourcePoint"/>
                        <mxPoint x="915.25" y="445.5424528301887" as="targetPoint"/>
                    </mxGeometry>
                </mxCell>
                <mxCell id="52" value="" style="outlineConnect=0;dashed=0;verticalLabelPosition=bottom;verticalAlign=top;align=center;html=1;shape=mxgraph.aws3.mqtt_protocol;fillColor=#5294CF;gradientColor=none;" vertex="1" parent="1">
                    <mxGeometry x="462" y="403.5" width="63" height="66" as="geometry"/>
                </mxCell>
                <mxCell id="55" style="edgeStyle=none;html=1;strokeColor=#000000;strokeWidth=5;fontSize=24;fontColor=#000000;" edge="1" parent="1">
                    <mxGeometry relative="1" as="geometry">
                        <mxPoint x="820.0399999999998" y="843.5" as="sourcePoint"/>
                        <mxPoint x="820.0399999999998" y="686" as="targetPoint"/>
                    </mxGeometry>
                </mxCell>
                <mxCell id="56" value="query" style="edgeLabel;html=1;align=center;verticalAlign=middle;resizable=0;points=[];fontSize=17;fontColor=#000000;labelBackgroundColor=#FFFFFF;" vertex="1" connectable="0" parent="55">
                    <mxGeometry x="-0.0667" y="1" relative="1" as="geometry">
                        <mxPoint y="1" as="offset"/>
                    </mxGeometry>
                </mxCell>
            </root>
        </mxGraphModel>
    </diagram>
</mxfile>